{
.appVersion = "3316";
.formatVersion = 3;
axes = (
{
name = Weight;
tag = wght;
}
);
classes = (
{
automatic = 1;

glyphs = (
{
glyphname = A;
kernLeft = A;
kernRight = A;
lastChange = "2024-09-05 12:38:30 +0000";
layers = (
{
anchors = (
{
name = bottom;
pos = (310,-12);
},
{
name = ogonek;
pos = (612,0);
},
{
name = top;
pos = (311,727);
}
);
layerId = "DB82AE46-9E91-4728-8B1E-D34291E5A7BF";
shapes = (
{
closed = 1;
nodes = (
(265,690,ls),
(249,690,o),
(236,681,o),
(232,666,cs),
(10,0,l),
(101,0,l),
(280,566,ls),
(286,584,o),
(292,604,o),
(297,622,c),
(325,622,l),
(330,604,o),
(336,584,o),
(342,566,cs),
(521,0,l),
(612,0,l),
(390,666,ls),
(386,681,o),
(373,690,o),
(357,690,cs)
);
},
{
closed = 1;
nodes = (
(135,292,l),
(135,216,l),
(485,216,l),
(485,292,l)
);
}
);
width = 621.96471;
},
{
anchors = (
{
name = bottom;
pos = (301,-12);
},
{
name = ogonek;
pos = (584,0);
},
{
name = top;
pos = (302,740);
}
);
layerId = "E21536AE-9819-4FE7-8A20-8865FE3C0515";
shapes = (
{
closed = 1;
nodes = (
(280,690,ls),
(274,690,o),
(269,687,o),
(267,681,cs),
(19,0,l),
(46,0,l),
(267,612,ls),
(274,631,o),
(280,649,o),
(287,668,c),
(316,668,l),
(323,649,o),
(329,631,o),
(336,612,cs),
(557,0,l),
(584,0,l),
(336,681,ls),
(334,687,o),
(329,690,o),
(323,690,cs)
);
},
{
closed = 1;
nodes = (
(126,274,l),
(126,252,l),
(476,252,l),
(476,274,l)
);
}
);
width = 603;
},
{
anchors = (
{
name = bottom;
pos = (343,-12);
},
{
name = ogonek;
pos = (692,0);
},
{
name = top;
pos = (343,735);
}
);
layerId = "924B7471-43FB-4CAD-AF7E-45215B64D997";
shapes = (
{
closed = 1;
nodes = (
(243,690,ls),
(208,690,o),
(179,668,o),
(170,634,cs),
(-9,0,l),
(212,0,l),
(316,449,ls),
(321,474,o),
(325,503,o),
(328,528,c),
(355,528,l),
(357,503,o),
(362,474,o),
(367,449,cs),
(471,0,l),
(692,0,l),
(513,634,ls),
(504,668,o),
(475,690,o),
(440,690,cs)
);
},
{
closed = 1;
nodes = (
(158,301,l),
(158,149,l),
(525,149,l),
(525,301,l)
);
}
);
width = 683;
}
);
unicode = 65;
},
{
glyphname = Aringacute;
kernLeft = A;
kernRight = A;
lastChange = "2024-09-05 12:38:30 +0000";
layers = (
{
layerId = "DB82AE46-9E91-4728-8B1E-D34291E5A7BF";
shapes = (
{
closed = 1;
nodes = (
(265,630,ls),
(249,630,o),
(238,621,o),
(232,606,cs),
(10,0,l),
(101,0,l),
(280,506,ls),
(287,524,o),
(292,544,o),
(297,562,c),
(325,562,l),
(330,544,o),
(335,524,o),
(342,506,cs),
(521,0,l),
(612,0,l),
(390,606,ls),
(384,621,o),
(373,630,o),
(357,630,cs)
);
},
{
closed = 1;
nodes = (
(133,251,l),
(133,175,l),
(488,175,l),
(488,251,l)
);
},
{
closed = 1;
nodes = (
(227,907,l),
(254,869,l),
(417,959,l),
(372,1023,l)
);
},
{
pos = (162,113);
ref = ring;
}
);
userData = {
com.schriftgestaltung.componentsAlignment = (
-1
);
};
width = 621.96471;
},
{
layerId = "E21536AE-9819-4FE7-8A20-8865FE3C0515";
shapes = (
{
closed = 1;
nodes = (
(280,630,ls),
(274,630,o),
(269,627,o),
(267,621,cs),
(19,0,l),
(46,0,l),
(267,552,ls),
(275,571,o),
(280,589,o),
(287,608,c),
(316,608,l),
(323,589,o),
(328,571,o),
(336,552,cs),
(557,0,l),
(584,0,l),
(336,621,ls),
(334,627,o),
(329,630,o),
(323,630,cs)
);
},
{
closed = 1;
nodes = (
(116,214,l),
(116,192,l),
(486,192,l),
(486,214,l)
);
},
{
closed = 1;
nodes = (
(255,870,l),
(266,854,l),
(400,939,l),
(387,960,l)
);
},
{
pos = (160,109);
ref = ring;
}
);
width = 603;
},
{
layerId = "924B7471-43FB-4CAD-AF7E-45215B64D997";
shapes = (
{
closed = 1;
nodes = (
(243,630,ls),
(208,630,o),
(181,608,o),
(170,574,cs),
(-9,0,l),
(212,0,l),
(316,389,ls),
(323,414,o),
(325,443,o),
(328,468,c),
(355,468,l),
(357,443,o),
(360,414,o),
(367,389,cs),
(471,0,l),
(692,0,l),
(513,574,ls),
(502,608,o),
(475,630,o),
(440,630,cs)
);
},
{
closed = 1;
nodes = (
(158,301,l),
(158,149,l),
(525,149,l),
(525,301,l)
);
},
{
closed = 1;
nodes = (
(175,989,l),
(232,903,l),
(487,1006,l),
(408,1139,l)
);
},
{
pos = (184,129);
ref = ring;
}
);
width = 683;
}
);
unicode = 506;
},
{
glyphname = AE;
kernLeft = AE;
kernRight = AE;
lastChange = "2024-09-05 12:38:30 +0000";
layers = (
{
anchors = (
{
name = top;
pos = (565,734);
}
);
layerId = "DB82AE46-9E91-4728-8B1E-D34291E5A7BF";
shapes = (
{
closed = 1;
nodes = (
(446,691,o),
(390,668,o),
(342,582,cs),
(-1,0,l),
(91,0,l),
(419,567,ls),
(438,598,o),
(459,620,o),
(477,630,c),
(485,630,l),
(468,618,o),
(453,586,o),
(453,558,cs),
(453,119,ls),
(453,49,o),
(500,-1,o),
(569,-1,cs),
(667,-1,o),
(767,-1,o),
(862,5,c),
(859,74,l),
(604,74,ls),
(557,74,o),
(536,95,o),
(536,141,cs),
(536,546,ls),
(536,589,o),
(563,615,o),
(604,615,cs),
(859,615,l),
(862,685,l),
(774,690,o),
(691,691,o),
(567,691,cs)
);
},
{
closed = 1;
nodes = (
(185,298,l),
(177,225,l),
(477,225,l),
(477,298,l)
);
},
{
closed = 1;
nodes = (
(467,328,l),
(819,329,l),
(819,400,l),
(467,401,l)
);
}
);
width = 913.02353;
},
{
anchors = (
{
name = top;
pos = (565,765);
}
);
layerId = "E21536AE-9819-4FE7-8A20-8865FE3C0515";
shapes = (
{
closed = 1;
nodes = (
(510,690,o),
(459,679,o),
(410,605,cs),
(11,0,l),
(41,0,l),
(430,592,ls),
(456,632,o),
(484,655,o),
(506,664,c),
(512,664,l),
(490,654,o),
(471,618,o),
(471,587,cs),
(471,102,ls),
(471,43,o),
(514,0,o),
(573,0,cs),
(665,0,o),
(755,0,o),
(847,4,c),
(847,22,l),
(578,22,ls),
(530,22,o),
(496,56,o),
(496,104,cs),
(496,586,ls),
(496,636,o),
(528,668,o),
(578,668,cs),
(847,668,l),
(847,686,l),
(774,689,o),
(699,690,o),
(575,690,cs)
);
},
{
closed = 1;
nodes = (
(219,294,l),
(206,272,l),
(483,272,l),
(483,294,l)
);
},
{
closed = 1;
nodes = (
(488,359,l),
(804,360,l),
(804,380,l),
(488,381,l)
);
}
);
width = 905;
},
{
anchors = (
{
name = top;
pos = (564,735);
}
);
layerId = "924B7471-43FB-4CAD-AF7E-45215B64D997";
shapes = (
{
closed = 1;
nodes = (
(338,692,o),
(272,646,o),
(222,534,cs),
(-19,0,l),
(202,0,l),
(417,516,ls),
(423,528,o),
(431,547,o),
(440,560,c),
(454,560,l),
(445,542,o),
(439,519,o),
(439,498,cs),
(439,153,ls),
(439,60,o),
(494,-4,o),
(585,-4,cs),
(699,-4,o),
(822,-4,o),
(926,9,c),
(916,159,l),
(680,159,ls),
(656,159,o),
(641,174,o),
(641,195,cs),
(641,495,ls),
(641,516,o),
(657,531,o),
(680,531,cs),
(916,531,l),
(926,681,l),
(805,692,o),
(704,692,o),
(576,692,cs)
);
},
{
closed = 1;
nodes = (
(131,309,l),
(130,161,l),
(488,161,l),
(488,309,l)
);
},
{
closed = 1;
nodes = (
(447,286,l),
(882,286,l),
(882,420,l),
(447,420,l)
);
}
);
width = 954;
}
);
unicode = 198;
},
{
glyphname = B;
kernLeft = B;
kernRight = B;
lastChange = "2024-09-05 12:38:30 +0000";
layers = (
{
layerId = "DB82AE46-9E91-4728-8B1E-D34291E5A7BF";
shapes = (
{
closed = 1;
nodes = (
(209,698,o),
(156,697,o),
(87,690,c),
(101,620,l),
(141,624,o),
(209,623,o),
(307,623,cs),
(418,623,o),
(456,602,o),
(456,508,cs),
(456,415,o),
(421,392,o),
(321,391,cs),
(100,391,l),
(100,324,l),
(322,324,ls),
(435,322,o),
(473,294,o),
(473,187,cs),
(473,89,o),
(437,67,o),
(328,67,cs),
(218,67,o),
(130,68,o),
(101,70,c),
(87,0,l),
(165,-7,o),
(224,-8,o),
(342,-8,cs),
(500,-8,o),
(562,30,o),
(562,172,cs),
(562,282,o),
(527,347,o),
(424,356,c),
(424,360,l),
(507,368,o),
(541,419,o),
(541,518,cs),
(541,660,o),
(480,698,o),
(311,698,cs)
);
},
{
closed = 1;
nodes = (
(87,690,l),
(87,0,l),
(173,0,l),
(173,690,l)
);
}
);
width = 620.02353;
},
{
layerId = "E21536AE-9819-4FE7-8A20-8865FE3C0515";
shapes = (
{
closed = 1;
nodes = (
(207,698,o),
(165,697,o),
(103,690,c),
(117,672,l),
(141,674,o),
(209,675,o),
(297,675,cs),
(441,675,o),
(493,646,o),
(493,518,cs),
(493,398,o),
(446,369,o),
(317,368,cs),
(116,368,l),
(116,347,l),
(317,347,ls),
(461,345,o),
(513,309,o),
(513,172,cs),
(513,44,o),
(464,15,o),
(327,15,cs),
(225,15,o),
(145,16,o),
(117,18,c),
(103,0,l),
(174,-7,o),
(223,-8,o),
(327,-8,cs),
(483,-8,o),
(539,30,o),
(539,172,cs),
(539,282,o),
(505,347,o),
(402,356,c),
(402,360,l),
(484,368,o),
(519,419,o),
(519,518,cs),
(519,660,o),
(460,698,o),
(297,698,cs)
);
},
{
closed = 1;
nodes = (
(103,690,l),
(103,0,l),
(128,0,l),
(128,690,l)
);
}
);
width = 612;
},
{
layerId = "924B7471-43FB-4CAD-AF7E-45215B64D997";
shapes = (
{
closed = 1;
nodes = (
(218,698,o),
(141,697,o),
(52,690,c),
(68,548,l),
(143,554,o),
(213,551,o),
(339,551,cs),
(391,551,o),
(403,540,o),
(403,487,cs),
(403,433,o),
(391,421,o),
(341,421,cs),
(67,421,l),
(67,294,l),
(343,294,ls),
(404,294,o),
(417,280,o),
(417,216,cs),
(417,153,o),
(404,139,o),
(344,139,cs),
(210,139,o),
(102,140,o),
(68,142,c),
(52,0,l),
(150,-7,o),
(234,-8,o),
(383,-8,cs),
(556,-8,o),
(633,30,o),
(633,172,cs),
(633,282,o),
(594,346,o),
(484,355,c),
(484,361,l),
(575,369,o),
(610,419,o),
(610,518,cs),
(610,660,o),
(542,698,o),
(350,698,cs)
);
},
{
closed = 1;
nodes = (
(52,690,l),
(52,0,l),
(264,0,l),
(264,690,l)
);
}
);
width = 660;
}
);
unicode = 66;
},
{
glyphname = C;
kernLeft = C;
kernRight = C;
lastChange = "2024-09-05 12:38:30 +0000";
layers = (
{
anchors = (
{
name = bottom;
pos = (324,-12);
},
{
name = top;
pos = (321,734);
}
);
layerId = "DB82AE46-9E91-4728-8B1E-D34291E5A7BF";
shapes = (
{
closed = 1;
nodes = (
(133,702,o),
(61,608,o),
(61,345,cs),
(61,82,o),
(133,-12,o),
(332,-12,cs),
(422,-12,o),
(476,-5,o),
(534,11,c),
(525,77,l),
(469,69,o),
(417,66,o),
(332,66,cs),
(197,66,o),
(154,135,o),
(154,345,cs),
(154,555,o),
(197,624,o),
(332,624,cs),
(412,624,o),
(451,621,o),
(511,615,c),
(520,682,l),
(463,696,o),
(419,702,o),
(332,702,cs)
);
}
);
width = 570.48235;
},
{
anchors = (
{
name = bottom;
pos = (331,-12);
},
{
name = top;
pos = (322,740);
}
);
guides = (
{
angle = 290;
pos = (350,278);
},
{
angle = 70;
pos = (344,401);
},
{
angle = 90;
pos = (438,354);
}
);
layerId = "E21536AE-9819-4FE7-8A20-8865FE3C0515";
shapes = (
{
closed = 1;
nodes = (
(142,702,o),
(76,608,o),
(76,345,cs),
(76,82,o),
(142,-12,o),
(331,-12,cs),
(415,-12,o),
(466,-6,o),
(519,6,c),
(513,24,l),
(461,15,o),
(411,11,o),
(331,11,cs),
(161,11,o),
(102,97,o),
(102,345,cs),
(102,593,o),
(161,679,o),
(331,679,cs),
(406,679,o),
(443,676,o),
(499,667,c),
(505,685,l),
(453,697,o),
(410,702,o),
(331,702,cs)
);
}
);
width = 561;
},
{
anchors = (
{
name = bottom;
pos = (323,-32);
},
{
name = top;
pos = (344,735);
}
);
layerId = "924B7471-43FB-4CAD-AF7E-45215B64D997";
shapes = (
{
closed = 1;
nodes = (
(116,702,o),
(32,608,o),
(32,345,cs),
(32,82,o),
(116,-12,o),
(345,-12,cs),
(453,-12,o),
(517,-3,o),
(587,21,c),
(571,179,l),
(504,172,o),
(445,171,o),
(345,171,cs),
(277,171,o),
(260,205,o),
(260,345,cs),
(260,485,o),
(277,519,o),
(345,519,cs),
(440,519,o),
(486,518,o),
(556,517,c),
(572,675,l),
(503,694,o),
(453,702,o),
(345,702,cs)
);
}
);
width = 605;
}
);
unicode = 67;
},
{
glyphname = D;
kernLeft = B;
kernRight = D;
lastChange = "2024-09-05 12:38:30 +0000";
layers = (
{
anchors = (
{
name = bottom;
pos = (323,-12);
},
{
name = top;
pos = (318,734);
}
);
layerId = "DB82AE46-9E91-4728-8B1E-D34291E5A7BF";
shapes = (
{
closed = 1;
nodes = (
(238,699,o),
(159,695,o),
(87,690,c),
(125,620,l),
(187,621,o),
(250,623,o),
(333,623,cs),
(465,623,o),
(510,554,o),
(510,345,cs),
(510,136,o),
(465,68,o),
(333,68,cs),
(249,68,o),
(181,70,o),
(125,72,c),
(87,0,l),
(159,-5,o),
(238,-9,o),
(333,-9,cs),
(531,-9,o),
(602,78,o),
(602,345,cs),
(602,612,o),
(531,699,o),
(333,699,cs)
);
},
{
closed = 1;
nodes = (
(87,690,l),
(87,0,l),
(175,0,l),
(175,690,l)
);
}
);
width = 664.10588;
},
{
anchors = (
{
name = bottom;
pos = (321,-12);
},
{
name = top;
pos = (324,740);
}
);
layerId = "E21536AE-9819-4FE7-8A20-8865FE3C0515";
shapes = (
{
closed = 1;
nodes = (
(245,699,o),
(169,695,o),
(103,690,c),
(113,672,l),
(178,674,o),
(246,676,o),
(332,676,cs),
(498,676,o),
(557,590,o),
(557,345,cs),
(557,100,o),
(498,14,o),
(332,14,cs),
(247,14,o),
(180,16,o),
(116,17,c),
(103,0,l),
(170,-5,o),
(244,-9,o),
(332,-9,cs),
(517,-9,o),
(583,85,o),
(583,345,cs),
(583,605,o),
(517,699,o),
(332,699,cs)
);
},
{
closed = 1;
nodes = (
(103,690,l),
(103,0,l),
(128,0,l),
(128,690,l)
);
}
);
width = 659;
},
{
anchors = (
{
name = bottom;
pos = (335,-12);
},
{
name = top;
pos = (348,735);
}
);
layerId = "924B7471-43FB-4CAD-AF7E-45215B64D997";
shapes = (
{
closed = 1;
nodes = (
(229,700,o),
(140,695,o),
(52,690,c),
(149,544,l),
(208,543,o),
(266,543,o),
(347,543,cs),
(421,543,o),
(440,505,o),
(440,345,cs),
(440,185,o),
(421,147,o),
(347,147,cs),
(260,147,o),
(186,149,o),
(140,154,c),
(52,0,l),
(139,-6,o),
(232,-10,o),
(347,-10,cs),
(584,-10,o),
(669,65,o),
(669,345,cs),
(669,625,o),
(584,700,o),
(347,700,cs)
);
},
{
closed = 1;
nodes = (
(52,690,l),
(52,0,l),
(269,0,l),
(269,690,l)
);
}
);
width = 701;
}
);
unicode = 68;
},
{
glyphname = Eth;
kernLeft = B;
kernRight = D;
lastChange = "2024-09-05 12:38:30 +0000";
layers = (
{
layerId = "DB82AE46-9E91-4728-8B1E-D34291E5A7BF";
shapes = (
{
closed = 1;
nodes = (
(22,391,l),
(22,342,l),
(331,342,l),
(331,391,l)
);
},
{
pos = (4,0);
ref = D;
}
);
userData = {
com.schriftgestaltung.Glyphs.glyph.rightMetricsKey = D;
com.schriftgestaltung.componentsAlignment = (
-1
);
};
width = 668.56471;
},
{
layerId = "E21536AE-9819-4FE7-8A20-8865FE3C0515";
shapes = (
{
closed = 1;
nodes = (
(26,381,l),
(26,361,l),
(314,361,l),
(314,381,l)
);
},
{
pos = (3,0);
ref = D;
}
);
userData = {
com.schriftgestaltung.Glyphs.glyph.rightMetricsKey = D;
};
width = 662;
},
{
layerId = "924B7471-43FB-4CAD-AF7E-45215B64D997";
shapes = (
{
closed = 1;
nodes = (
(7,409,l),
(7,305,l),
(368,305,l),
(368,409,l)
);
},
{
ref = D;
}
);
userData = {
com.schriftgestaltung.Glyphs.glyph.rightMetricsKey = D;
};
width = 701;
}
);
unicode = 208;
},
{
glyphname = E;
kernLeft = E;
kernRight = AE;
lastChange = "2024-09-05 12:38:30 +0000";
layers = (
{
anchors = (
{
name = bottom;
pos = (300,0);
},
{
name = ogonek;
pos = (510,5);
},
{
name = top;
pos = (310,747);
}
);
layerId = "DB82AE46-9E91-4728-8B1E-D34291E5A7BF";
shapes = (
{
closed = 1;
nodes = (
(133,691,o),
(82,645,o),
(81,571,cs),
(81,119,ls),
(82,45,o),
(133,-1,o),
(214,-1,cs),
(313,-1,o),
(418,-1,o),
(510,5,c),
(506,73,l),
(229,73,ls),
(188,73,o),
(169,93,o),
(169,140,cs),
(169,550,ls),
(169,596,o),
(188,616,o),
(229,616,cs),
(506,616,l),
(510,685,l),
(418,691,o),
(313,691,o),
(214,691,cs)
);
},
{
closed = 1;
nodes = (
(99,329,l),
(467,329,l),
(467,400,l),
(99,400,l)
);
}
);
width = 560.48235;
},
{
anchors = (
{
name = bottom;
pos = (297,0);
},
{
name = ogonek;
pos = (493,4);
},
{
name = top;
pos = (310,765);
}
);
guides = (
{
pos = (170,586);
}
);
layerId = "E21536AE-9819-4FE7-8A20-8865FE3C0515";
shapes = (
{
closed = 1;
nodes = (
(140,690,o),
(97,647,o),
(97,588,cs),
(97,102,ls),
(97,43,o),
(140,0,o),
(199,0,cs),
(297,0,o),
(395,0,o),
(493,4,c),
(491,22,l),
(204,22,ls),
(156,22,o),
(122,56,o),
(122,104,cs),
(122,586,ls),
(122,634,o),
(156,668,o),
(204,668,cs),
(491,668,l),
(493,686,l),
(395,690,o),
(297,690,o),
(199,690,cs)
);
},
{
closed = 1;
nodes = (
(114,359,l),
(450,360,l),
(450,380,l),
(114,381,l)
);
}
);
width = 551;
},
{
anchors = (
{
name = bottom;
pos = (317,0);
},
{
name = ogonek;
pos = (568,9);
},
{
name = top;
pos = (323,735);
}
);
guides = (
{
pos = (146,538);
userData = {
UFO.identifier = GJzUD8cNIH;
};
}
);
layerId = "924B7471-43FB-4CAD-AF7E-45215B64D997";
shapes = (
{
closed = 1;
nodes = (
(114,694,o),
(47,630,o),
(47,537,cs),
(47,153,ls),
(47,60,o),
(114,-4,o),
(209,-4,cs),
(328,-4,o),
(468,-4,o),
(568,9,c),
(558,162,l),
(305,162,ls),
(280,162,o),
(264,177,o),
(264,198,cs),
(264,492,ls),
(264,513,o),
(280,528,o),
(305,528,cs),
(558,528,l),
(568,681,l),
(468,694,o),
(328,694,o),
(209,694,cs)
);
},
{
closed = 1;
nodes = (
(65,281,l),
(522,281,l),
(522,425,l),
(65,425,l)
);
}
);
width = 596;
}
);
unicode = 69;
},
{
glyphname = Schwa;
kernLeft = Schwa;
kernRight = Schwa;
lastChange = "2024-09-05 12:38:30 +0000";
layers = (
{
layerId = "DB82AE46-9E91-4728-8B1E-D34291E5A7BF";
shapes = (
{
closed = 1;
nodes = (
(514,-12,o),
(572,94,o),
(572,343,cs),
(572,594,o),
(519,703,o),
(297,703,cs),
(218,703,o),
(138,691,o),
(72,668,c),
(83,607,l),
(153,617,o),
(219,624,o),
(291,624,cs),
(442,624,o),
(480,550,o),
(480,337,cs),
(480,156,o),
(443,66,o),
(306,66,cs),
(187,66,o),
(149,122,o),
(148,206,cs),
(147,259,o),
(168,309,o),
(229,309,cs),
(542,309,l),
(542,389,l),
(224,389,ls),
(112,389,o),
(55,327,o),
(56,207,cs),
(56,79,o),
(125,-12,o),
(313,-12,cs)
);
}
);
width = 633.48235;
},
{
layerId = "E21536AE-9819-4FE7-8A20-8865FE3C0515";
shapes = (
{
closed = 1;
nodes = (
(491,-12,o),
(548,98,o),
(548,342,cs),
(548,574,o),
(495,702,o),
(307,702,cs),
(233,702,o),
(142,690,o),
(86,676,c),
(90,659,l),
(142,667,o),
(221,677,o),
(303,677,cs),
(473,677,o),
(522,565,o),
(522,341,cs),
(522,117,o),
(476,11,o),
(297,11,cs),
(159,11,o),
(99,83,o),
(96,183,cs),
(93,282,o),
(134,340,o),
(220,340,cs),
(530,340,l),
(530,363,l),
(228,363,ls),
(119,363,o),
(68,299,o),
(71,181,cs),
(74,72,o),
(141,-12,o),
(298,-12,cs)
);
}
);
width = 624;
},
{
layerId = "924B7471-43FB-4CAD-AF7E-45215B64D997";
shapes = (
{
closed = 1;
nodes = (
(552,-12,o),
(641,82,o),
(641,344,cs),
(641,601,o),
(548,703,o),
(313,703,cs),
(233,703,o),
(126,692,o),
(57,665,c),
(71,532,l),
(147,543,o),
(238,548,o),
(306,548,cs),
(450,548,o),
(434,486,o),
(434,336,cs),
(434,190,o),
(431,147,o),
(330,147,cs),
(259,147,o),
(237,166,o),
(237,213,cs),
(237,248,o),
(252,272,o),
(303,272,cs),
(567,272,l),
(567,412,l),
(210,412,ls),
(97,412,o),
(30,338,o),
(30,217,cs),
(30,71,o),
(129,-12,o),
(338,-12,cs)
);
}
);
width = 673;
}
);
unicode = 399;
},
{
glyphname = F;
kernLeft = F;
kernRight = F;
lastChange = "2024-09-05 12:38:30 +0000";
layers = (
{
layerId = "DB82AE46-9E91-4728-8B1E-D34291E5A7BF";
shapes = (
{
closed = 1;
nodes = (
(137,691,o),
(85,646,o),
(85,567,cs),
(85,0,l),
(173,0,l),
(173,550,ls),
(173,596,o),
(193,616,o),
(240,616,cs),
(499,616,l),
(504,684,l),
(415,691,o),
(314,691,o),
(218,691,cs)
);
},
{
closed = 1;
nodes = (
(102,319,l),
(461,319,l),
(461,390,l),
(102,390,l)
);
}
);
width = 538.75294;
},
{
layerId = "E21536AE-9819-4FE7-8A20-8865FE3C0515";
shapes = (
{
closed = 1;
nodes = (
(143,690,o),
(100,647,o),
(100,588,cs),
(100,0,l),
(125,0,l),
(125,586,ls),
(125,634,o),
(159,668,o),
(207,668,cs),
(487,668,l),
(489,686,l),
(393,690,o),
(298,690,o),
(202,690,cs)
);
},
{
closed = 1;
nodes = (
(117,355,l),
(446,356,l),
(446,376,l),
(117,377,l)
);
}
);
width = 530;
},
{
layerId = "924B7471-43FB-4CAD-AF7E-45215B64D997";
shapes = (
{
closed = 1;
nodes = (
(118,694,o),
(50,630,o),
(50,537,cs),
(50,0,l),
(267,0,l),
(267,492,ls),
(267,513,o),
(283,528,o),
(310,528,cs),
(551,528,l),
(561,680,l),
(466,694,o),
(329,694,o),
(214,694,cs)
);
},
{
closed = 1;
nodes = (
(68,267,l),
(514,267,l),
(514,411,l),
(68,411,l)
);
}
);
width = 574;
}
);
unicode = 70;
},
{
glyphname = G;
kernLeft = C;
kernRight = G;
lastChange = "2024-09-05 12:38:30 +0000";
layers = (
{
anchors = (
{
name = bottom;
pos = (329,-3);
},
{
name = top;
pos = (328,741);
}
);
layerId = "DB82AE46-9E91-4728-8B1E-D34291E5A7BF";
shapes = (
{
closed = 1;
nodes = (
(137,703,o),
(62,621,o),
(62,347,cs),
(62,99,o),
(125,-13,o),
(280,-13,cs),
(385,-13,o),
(461,43,o),
(498,86,c),
(486,140,l),
(434,102,o),
(380,64,o),
(304,64,cs),
(193,64,o),
(155,138,o),
(155,341,cs),
(155,582,o),
(206,624,o),
(355,624,cs),
(406,624,o),
(470,622,o),
(533,616,c),
(542,682,l),
(483,697,o),
(420,703,o),
(350,703,cs)
);
},
{
closed = 1;
nodes = (
(474,399,l),
(474,122,l),
(482,102,l),
(496,0,l),
(560,0,l),
(560,399,l)
);
}
);
width = 627.83529;
},
{
anchors = (
{
name = bottom;
pos = (319,-12);
},
{
name = top;
pos = (324,740);
}
);
background = {
anchors = (
{
name = bottom;
pos = (319,-12);
},
{
name = top;
pos = (324,740);
}
);
shapes = (
{
closed = 1;
nodes = (
(143,702,o),
(76,608,o),
(76,345,cs),
(76,95,o),
(140,-12,o),
(304,-12,cs),
(395,-12,o),
(470,34,o),
(524,96,c),
(518,114,l),
(465,66,o),
(405,11,o),
(306,11,cs),
(158,11,o),
(102,111,o),
(102,345,cs),
(102,593,o),
(161,679,o),
(334,679,cs),
(418,679,o),
(461,676,o),
(524,667,c),
(530,685,l),
(471,697,o),
(424,702,o),
(334,702,cs)
);
},
{
closed = 1;
nodes = (
(516,400,l),
(516,111,l),
(517,99,l),
(524,0,l),
(541,0,l),
(541,400,l)
);
}
);
};
layerId = "E21536AE-9819-4FE7-8A20-8865FE3C0515";
shapes = (
{
closed = 1;
nodes = (
(143,702,o),
(76,608,o),
(76,345,cs),
(76,95,o),
(140,-12,o),
(304,-12,cs),
(395,-12,o),
(470,34,o),
(524,96,c),
(518,114,l),
(465,66,o),
(405,11,o),
(306,11,cs),
(158,11,o),
(102,111,o),
(102,345,cs),
(102,593,o),
(161,679,o),
(334,679,cs),
(418,679,o),
(461,676,o),
(524,667,c),
(530,685,l),
(471,697,o),
(424,702,o),
(334,702,cs)
);
},
{
closed = 1;
nodes = (
(516,400,l),
(516,111,l),
(517,99,l),
(524,0,l),
(541,0,l),
(541,400,l)
);
}
);
width = 622;
},
{
anchors = (
{
name = bottom;
pos = (352,-12);
},
{
name = top;
pos = (352,735);
}
);
background = {
shapes = (
{
closed = 1;
nodes = (
(87,500,l),
(87,126,ls),
(87,34,o),
(135,-14,o),
(228,-14,cs),
(298,-14,o),
(358,16,o),
(421,79,c),
(410,182,l),
(370,165,o),
(350,162,o),
(329,162,cs),
(307,162,o),
(298,171,o),
(298,193,cs),
(298,500,l)
);
},
{
closed = 1;
nodes = (
(388,500,l),
(388,114,l),
(408,102,l),
(434,0,l),
(599,0,l),
(599,500,l)
);
}
);
};
layerId = "924B7471-43FB-4CAD-AF7E-45215B64D997";
shapes = (
{
closed = 1;
nodes = (
(119,704,o),
(32,610,o),
(32,345,cs),
(32,84,o),
(102,-14,o),
(261,-14,cs),
(371,-14,o),
(443,50,o),
(467,91,c),
(446,182,l),
(427,177,o),
(391,171,o),
(348,171,cs),
(280,171,o),
(260,205,o),
(260,345,cs),
(260,487,o),
(281,521,o),
(358,521,cs),
(451,521,o),
(510,520,o),
(586,519,c),
(602,675,l),
(529,696,o),
(467,704,o),
(357,704,cs)
);
},
{
closed = 1;
nodes = (
(423,397,l),
(423,144,l),
(443,107,l),
(471,0,l),
(631,0,l),
(631,397,l)
);
}
);
width = 668;
}
);
unicode = 71;
},
{
glyphname = H;
kernLeft = B;
kernRight = H;
lastChange = "2024-09-05 12:38:30 +0000";
layers = (
{
anchors = (
{
name = bottom;
pos = (334,0);
},
{
name = center;
pos = (329,345);
},
{
name = top;
pos = (334,742);
}
);
layerId = "DB82AE46-9E91-4728-8B1E-D34291E5A7BF";
shapes = (
{
closed = 1;
nodes = (
(87,690,l),
(87,0,l),
(175,0,l),
(175,690,l)
);
},
{
closed = 1;
nodes = (
(167,407,l),
(167,331,l),
(504,331,l),
(504,407,l)
);
},
{
closed = 1;
nodes = (
(493,690,l),
(493,0,l),
(581,0,l),
(581,690,l)
);
}
);
width = 667.94118;
},
{
anchors = (
{
name = bottom;
pos = (330,0);
},
{
name = center;
pos = (329,345);
},
{
name = top;
pos = (330,745);
}
);
layerId = "E21536AE-9819-4FE7-8A20-8865FE3C0515";
shapes = (
{
closed = 1;
nodes = (
(103,690,l),
(103,0,l),
(128,0,l),
(128,690,l)
);
},
{
closed = 1;
nodes = (
(120,381,l),
(120,359,l),
(540,359,l),
(540,381,l)
);
},
{
closed = 1;
nodes = (
(529,690,l),
(529,0,l),
(554,0,l),
(554,690,l)
);
}
);
width = 657;
},
{
anchors = (
{
name = bottom;
pos = (358,0);
},
{
name = center;
pos = (329,345);
},
{
name = top;
pos = (355,735);
}
);
layerId = "924B7471-43FB-4CAD-AF7E-45215B64D997";
shapes = (
{
closed = 1;
nodes = (
(53,690,l),
(53,0,l),
(270,0,l),
(270,690,l)
);
},
{
closed = 1;
nodes = (
(262,442,l),
(262,290,l),
(455,290,l),
(455,442,l)
);
},
{
closed = 1;
nodes = (
(444,690,l),
(444,0,l),
(661,0,l),
(661,690,l)
);
}
);
width = 714;
}
);
unicode = 72;
},
{
glyphname = Hbar;
kernLeft = B;
kernRight = H;
lastChange = "2024-09-05 12:38:30 +0000";
layers = (
{
layerId = "DB82AE46-9E91-4728-8B1E-D34291E5A7BF";
shapes = (
{
closed = 1;
nodes = (
(20,566,l),
(20,519,l),
(655,519,l),
(655,566,l)
);
},
{
pos = (4,0);
ref = H;
}
);
userData = {
com.schriftgestaltung.componentsAlignment = (
-1
);
};
width = 675.94118;
},
{
layerId = "E21536AE-9819-4FE7-8A20-8865FE3C0515";
shapes = (
{
closed = 1;
nodes = (
(27,545,l),
(27,525,l),
(638,525,l),
(638,545,l)
);
},
{
pos = (4,0);
ref = H;
}
);
width = 665;
},
{
layerId = "924B7471-43FB-4CAD-AF7E-45215B64D997";
shapes = (
{
closed = 1;
nodes = (
(4,601,l),
(4,507,l),
(712,507,l),
(712,601,l)
);
},
{
ref = H;
}
);
width = 714;
}
);
unicode = 294;
},
{
glyphname = I;
kernLeft = B;
kernRight = H;
lastChange = "2024-09-05 12:38:30 +0000";
layers = (
{
anchors = (
{
name = bottom;
pos = (128,0);
},
{
name = ogonek;
pos = (165,0);
},
{
name = top;
pos = (131,734);
}
);
layerId = "DB82AE46-9E91-4728-8B1E-D34291E5A7BF";
shapes = (
{
closed = 1;
nodes = (
(87,690,l),
(87,0,l),
(175,0,l),
(175,690,l)
);
}
);
width = 261.63529;
},
{
anchors = (
{
name = bottom;
pos = (115,0);
},
{
name = ogonek;
pos = (128,0);
},
{
name = top;
pos = (115,740);
}
);
layerId = "E21536AE-9819-4FE7-8A20-8865FE3C0515";
shapes = (
{
closed = 1;
nodes = (
(103,690,l),
(103,0,l),
(128,0,l),
(128,690,l)
);
}
);
width = 231;
},
{
anchors = (
{
name = bottom;
pos = (159,0);
},
{
name = ogonek;
pos = (240,0);
},
{
name = top;
pos = (161,735);
}
);
layerId = "924B7471-43FB-4CAD-AF7E-45215B64D997";
shapes = (
{
closed = 1;
nodes = (
(53,690,l),
(53,0,l),
(268,0,l),
(268,690,l)
);
}
);
width = 321;
}
);
unicode = 73;
},
{
glyphname = J;
kernLeft = J;
kernRight = IJ;
lastChange = "2024-09-05 12:38:30 +0000";
layers = (
{
anchors = (
{
name = bottom;
pos = (208,0);
},
{
name = top;
pos = (212,736);
}
);
layerId = "DB82AE46-9E91-4728-8B1E-D34291E5A7BF";
shapes = (
{
closed = 1;
nodes = (
(168,690,l),
(168,142,ls),
(168,92,o),
(143,66,o),
(90,66,cs),
(40,66,l),
(30,4,l),
(52,-4,o),
(96,-9,o),
(122,-9,cs),
(209,-9,o),
(256,44,o),
(256,145,cs),
(256,690,l)
);
}
);
width = 340.04706;
},
{
anchors = (
{
name = bottom;
pos = (204,-1);
},
{
name = top;
pos = (208,745);
}
);
layerId = "E21536AE-9819-4FE7-8A20-8865FE3C0515";
shapes = (
{
closed = 1;
nodes = (
(199,690,l),
(199,116,ls),
(199,49,o),
(166,16,o),
(99,16,cs),
(41,16,l),
(38,0,l),
(56,-3,o),
(84,-6,o),
(102,-6,cs),
(184,-7,o),
(224,35,o),
(224,115,cs),
(224,690,l)
);
}
);
width = 324;
},
{
anchors = (
{
name = bottom;
pos = (248,0);
},
{
name = top;
pos = (250,735);
}
);
layerId = "924B7471-43FB-4CAD-AF7E-45215B64D997";
shapes = (
{
closed = 1;
nodes = (
(139,690,l),
(139,183,ls),
(139,158,o),
(120,148,o),
(80,148,cs),
(33,148,l),
(10,12,l),
(44,-6,o),
(127,-14,o),
(171,-14,cs),
(284,-14,o),
(354,37,o),
(354,127,cs),
(354,690,l)
);
}
);
width = 404;
}
);
unicode = 74;
},
{
glyphname = K;
kernLeft = B;
kernRight = K;
lastChange = "2024-09-05 12:38:30 +0000";
layers = (
{
anchors = (
{
name = bottom;
pos = (295,0);
},
{
name = top;
pos = (298,721);
}
);
layerId = "DB82AE46-9E91-4728-8B1E-D34291E5A7BF";
shapes = (
{
closed = 1;
nodes = (
(462,690,l),
(228,361,l),
(473,0,l),
(572,0,l),
(362,310,ls),
(351,326,o),
(336,342,o),
(319,358,c),
(319,360,l),
(335,376,o),
(345,386,o),
(357,404,cs),
(558,690,l)
);
},
{
closed = 1;
nodes = (
(87,690,l),
(87,0,l),
(174,0,l),
(174,251,ls),
(174,286,o),
(169,323,o),
(162,361,c),
(170,400,o),
(174,434,o),
(174,474,cs),
(174,690,l)
);
},
{
closed = 1;
nodes = (
(143,395,l),
(143,324,l),
(276,324,l),
(276,395,l)
);
}
);
width = 591.17647;
},
{
anchors = (
{
name = bottom;
pos = (285,0);
},
{
name = top;
pos = (285,690);
}
);
guides = (
{
angle = 270;
pos = (528,359);
}
);
layerId = "E21536AE-9819-4FE7-8A20-8865FE3C0515";
shapes = (
{
closed = 1;
nodes = (
(482,690,l),
(231,360,l),
(499,0,l),
(529,0,l),
(281,336,ls),
(273,346,o),
(264,354,o),
(259,359,c),
(259,361,l),
(264,365,o),
(273,374,o),
(281,385,cs),
(512,690,l)
);
},
{
closed = 1;
nodes = (
(103,690,l),
(103,0,l),
(127,0,l),
(127,263,l),
(127,296,o),
(127,325,o),
(124,361,c),
(126,396,o),
(127,419,o),
(127,454,cs),
(127,690,l)
);
},
{
closed = 1;
nodes = (
(112,371,l),
(112,349,l),
(257,349,l),
(257,371,l)
);
}
);
width = 562;
},
{
anchors = (
{
name = bottom;
pos = (335,-12);
},
{
name = top;
pos = (335,735);
}
);
layerId = "924B7471-43FB-4CAD-AF7E-45215B64D997";
shapes = (
{
closed = 1;
nodes = (
(442,690,l),
(261,361,l),
(444,0,l),
(685,0,l),
(524,287,ls),
(508,317,o),
(474,347,o),
(455,355,c),
(455,359,l),
(474,367,o),
(499,389,o),
(516,420,cs),
(675,690,l)
);
},
{
closed = 1;
nodes = (
(53,690,l),
(53,0,l),
(270,0,l),
(270,225,ls),
(270,265,o),
(255,319,o),
(239,362,c),
(260,408,o),
(270,465,o),
(270,516,cs),
(270,690,l)
);
},
{
closed = 1;
nodes = (
(208,428,l),
(208,288,l),
(324,288,l),
(324,428,l)
);
}
);
width = 676;
}
);
unicode = 75;
},
{
glyphname = L;
kernLeft = L;
kernRight = L;
lastChange = "2024-09-05 12:38:30 +0000";
layers = (
{
anchors = (
{
name = bottom;
pos = (301,0);
},
{
name = top;
pos = (131,736);
}
);
layerId = "DB82AE46-9E91-4728-8B1E-D34291E5A7BF";
shapes = (
{
closed = 1;
nodes = (
(85,690,l),
(85,129,ls),
(85,54,o),
(123,-1,o),
(225,-1,cs),
(314,-1,o),
(405,-1,o),
(492,6,c),
(488,74,l),
(239,74,ls),
(193,74,o),
(172,94,o),
(172,140,cs),
(172,690,l)
);
}
);
width = 513.56471;
},
{
anchors = (
{
name = bottom;
pos = (297,0);
},
{
name = top;
pos = (116,745);
}
);
layerId = "E21536AE-9819-4FE7-8A20-8865FE3C0515";
shapes = (
{
closed = 1;
nodes = (
(100,690,l),
(100,102,ls),
(100,43,o),
(143,0,o),
(202,0,cs),
(294,0,o),
(387,0,o),
(479,4,c),
(479,22,l),
(207,22,ls),
(159,22,o),
(125,56,o),
(125,104,cs),
(125,690,l)
);
}
);
width = 507;
},
{
anchors = (
{
name = bottom;
pos = (313,0);
},
{
name = top;
pos = (151,735);
}
);
background = {
shapes = (
{
closed = 1;
nodes = (
(107,694,o),
(43,630,o),
(43,537,cs),
(43,153,ls),
(43,60,o),
(107,-4,o),
(196,-4,cs),
(310,-4,o),
(445,-4,o),
(539,9,c),
(529,162,l),
(297,162,ls),
(276,162,o),
(261,177,o),
(261,198,cs),
(261,492,ls),
(261,513,o),
(276,528,o),
(297,528,cs),
(529,528,l),
(539,681,l),
(445,694,o),
(310,694,o),
(196,694,cs)
);
},
{
closed = 1;
nodes = (
(60,280,l),
(496,290,l),
(496,416,l),
(60,426,l)
);
}
);
};
layerId = "924B7471-43FB-4CAD-AF7E-45215B64D997";
shapes = (
{
closed = 1;
nodes = (
(50,690,l),
(50,153,ls),
(50,60,o),
(114,-4,o),
(214,-4,cs),
(327,-4,o),
(448,-4,o),
(551,10,c),
(541,172,l),
(309,172,ls),
(283,172,o),
(267,187,o),
(267,208,cs),
(267,690,l)
);
}
);
width = 557;
}
);
unicode = 76;
},
{
glyphname = Lslash;
kernLeft = L;
kernRight = L;
lastChange = "2024-09-05 12:38:30 +0000";
layers = (
{
layerId = "DB82AE46-9E91-4728-8B1E-D34291E5A7BF";
shapes = (
{
closed = 1;
nodes = (
(20,360,l),
(20,305,l),
(294,420,l),
(294,474,l)
);
},
{
pos = (6,0);
ref = L;
}
);
userData = {
com.schriftgestaltung.componentsAlignment = (
-1
);
};
width = 519.75294;
},
{
layerId = "E21536AE-9819-4FE7-8A20-8865FE3C0515";
shapes = (
{
closed = 1;
nodes = (
(27,344,l),
(27,323,l),
(258,425,l),
(258,446,l)
);
},
{
pos = (4,0);
ref = L;
}
);
width = 511;
},
{
layerId = "924B7471-43FB-4CAD-AF7E-45215B64D997";
shapes = (
{
closed = 1;
nodes = (
(7,373,l),
(7,269,l),
(371,409,l),
(371,513,l)
);
},
{
ref = L;
}
);
width = 557;
}
);
unicode = 321;
},
{
glyphname = M;
kernLeft = M;
kernRight = M;
lastChange = "2024-09-05 12:38:30 +0000";
layers = (
{
anchors = (
{
name = bottom;
pos = (437,0);
},
{
name = top;
pos = (439,734);
}
);
layerId = "DB82AE46-9E91-4728-8B1E-D34291E5A7BF";
shapes = (
{
closed = 1;
nodes = (
(640,690,ls),
(620,690,o),
(607,680,o),
(602,660,cs),
(473,241,ls),
(463,208,o),
(456,178,o),
(447,146,c),
(429,146,l),
(420,178,o),
(413,208,o),
(403,239,cs),
(274,660,ls),
(268,680,o),
(257,690,o),
(237,690,cs),
(137,690,ls),
(114,690,o),
(101,677,o),
(100,653,cs),
(73,0,l),
(161,0,l),
(185,617,l),
(205,617,l),
(359,108,ls),
(365,89,o),
(378,78,o),
(399,78,cs),
(478,78,ls),
(498,78,o),
(511,89,o),
(516,108,cs),
(670,617,l),
(691,617,l),
(716,0,l),
(804,0,l),
(775,653,ls),
(775,677,o),
(762,690,o),
(739,690,cs)
);
}
);
width = 876.61176;
},
{
anchors = (
{
name = bottom;
pos = (428,0);
},
{
name = top;
pos = (422,740);
}
);
layerId = "E21536AE-9819-4FE7-8A20-8865FE3C0515";
shapes = (
{
closed = 1;
nodes = (
(679,690,ls),
(673,690,o),
(668,687,o),
(666,681,c),
(476,178,ls),
(464,146,o),
(452,114,o),
(440,82,c),
(414,82,l),
(402,113,o),
(391,145,o),
(379,176,cs),
(188,681,l),
(186,687,o),
(181,690,o),
(175,690,cs),
(133,690,ls),
(124,690,o),
(118,684,o),
(118,675,cs),
(88,0,l),
(113,0,l),
(143,668,l),
(167,668,l),
(393,69,ls),
(395,63,o),
(400,60,o),
(406,60,cs),
(448,60,ls),
(454,60,o),
(459,63,o),
(461,69,cs),
(687,668,l),
(711,668,l),
(741,0,l),
(766,0,l),
(736,675,ls),
(736,684,o),
(730,690,o),
(721,690,cs)
);
}
);
width = 854;
},
{
anchors = (
{
name = bottom;
pos = (471,0);
},
{
name = top;
pos = (473,735);
}
);
guides = (
{
pos = (348,437);
}
);
layerId = "924B7471-43FB-4CAD-AF7E-45215B64D997";
shapes = (
{
closed = 1;
nodes = (
(621,690,ls),
(575,690,o),
(546,668,o),
(538,623,cs),
(491,349,ls),
(486,315,o),
(483,280,o),
(479,246,c),
(470,246,l),
(467,280,o),
(464,315,o),
(459,349,cs),
(409,623,ls),
(401,668,o),
(372,690,o),
(327,690,cs),
(140,690,ls),
(90,690,o),
(66,664,o),
(64,615,cs),
(40,0,l),
(235,0,l),
(252,528,l),
(267,528,l),
(336,176,ls),
(344,132,o),
(373,110,o),
(419,110,cs),
(531,110,ls),
(577,110,o),
(606,132,o),
(613,176,cs),
(681,528,l),
(696,528,l),
(717,0,l),
(912,0,l),
(888,615,ls),
(886,664,o),
(862,690,o),
(812,690,cs)
);
}
);
width = 952;
},
{
associatedMasterId = "924B7471-43FB-4CAD-AF7E-45215B64D997";
guides = (
{
pos = (325,393);
}
);
layerId = "7726A850-89FC-4817-B329-7BDF05F3C811";
name = "Bold May 2 13, 22:06";
shapes = (
{
closed = 1;
nodes = (
(580,690,ls),
(541,690,o),
(510,664,o),
(504,624,cs),
(468,395,ls),
(464,369,o),
(457,308,o),
(453,259,c),
(439,259,l),
(433,307,o),
(428,370,o),
(424,395,cs),
(388,624,ls),
(382,664,o),
(351,690,o),
(312,690,cs),
(130,690,ls),
(82,690,o),
(48,656,o),
(48,608,cs),
(48,0,l),
(246,0,l),
(246,395,ls),
(246,432,o),
(240,474,o),
(236,508,c),
(254,508,l),
(313,164,ls),
(320,125,o),
(350,100,o),
(389,100,cs),
(503,100,ls),
(542,100,o),
(573,125,o),
(580,164,cs),
(639,508,l),
(657,508,l),
(653,474,o),
(647,432,o),
(647,393,cs),
(647,0,l),
(844,0,l),
(844,608,ls),
(844,656,o),
(810,690,o),
(762,690,cs)
);
}
);
width = 892;
},
{
associatedMasterId = "924B7471-43FB-4CAD-AF7E-45215B64D997";
guides = (
{
pos = (336,437);
}
);
layerId = "78B2C151-EEFC-4E03-A606-5415830A5859";
name = "Bold May 2 13, 22:40";
shapes = (
{
closed = 1;
nodes = (
(590,690,ls),
(544,690,o),
(517,668,o),
(508,623,cs),
(455,336,l),
(447,336,l),
(392,623,ls),
(383,668,o),
(356,690,o),
(311,690,cs),
(128,690,ls),
(79,690,o),
(53,664,o),
(53,615,cs),
(53,0,l),
(251,0,l),
(251,528,l),
(257,528,l),
(323,226,ls),
(333,182,o),
(360,160,o),
(406,160,cs),
(495,160,ls),
(541,160,o),
(568,182,o),
(577,226,cs),
(642,528,l),
(648,528,l),
(652,0,l),
(850,0,l),
(850,615,ls),
(850,664,o),
(824,690,o),
(775,690,cs)
);
}
);
width = 902;
}
);
unicode = 77;
},
{
glyphname = N;
kernLeft = N;
kernRight = N;
lastChange = "2024-09-05 12:38:30 +0000";
layers = (
{
anchors = (
{
name = bottom;
pos = (359,0);
},
{
name = top;
pos = (364,734);
}
);
layerId = "DB82AE46-9E91-4728-8B1E-D34291E5A7BF";
shapes = (
{
closed = 1;
nodes = (
(531,690,l),
(531,190,ls),
(531,155,o),
(532,121,o),
(534,85,c),
(517,85,l),
(502,119,o),
(484,157,o),
(470,185,cs),
(244,662,ls),
(236,681,o),
(225,690,o),
(205,690,cs),
(122,690,ls),
(99,690,o),
(87,678,o),
(87,655,cs),
(87,0,l),
(175,0,l),
(175,517,ls),
(175,547,o),
(174,578,o),
(171,608,c),
(187,608,l),
(195,580,o),
(214,543,o),
(226,517,cs),
(459,28,ls),
(467,9,o),
(478,0,o),
(498,0,cs),
(584,0,ls),
(606,0,o),
(618,12,o),
(618,35,cs),
(618,690,l)
);
}
);
width = 704.77647;
},
{
anchors = (
{
name = bottom;
pos = (344,0);
},
{
name = top;
pos = (358,740);
}
);
layerId = "E21536AE-9819-4FE7-8A20-8865FE3C0515";
shapes = (
{
closed = 1;
nodes = (
(560,690,l),
(560,112,l),
(560,82,o),
(560,52,o),
(560,22,c),
(532,22,l),
(517,49,o),
(503,76,o),
(488,103,c),
(175,679,ls),
(171,687,o),
(165,690,o),
(157,690,cs),
(118,690,ls),
(108,690,o),
(103,685,o),
(103,675,cs),
(103,0,l),
(128,0,l),
(128,599,l),
(128,622,o),
(128,645,o),
(128,668,c),
(153,668,l),
(165,645,o),
(178,623,o),
(190,600,c),
(510,11,ls),
(514,3,o),
(520,0,o),
(528,0,cs),
(570,0,ls),
(580,0,o),
(585,5,o),
(585,15,cs),
(585,690,l)
);
}
);
width = 688;
},
{
anchors = (
{
name = bottom;
pos = (379,0);
},
{
name = top;
pos = (381,735);
}
);
layerId = "924B7471-43FB-4CAD-AF7E-45215B64D997";
shapes = (
{
closed = 1;
nodes = (
(488,690,l),
(489,408,ls),
(489,366,o),
(493,325,o),
(498,283,c),
(491,283,l),
(475,327,o),
(457,368,o),
(438,401,cs),
(294,627,ls),
(270,668,o),
(255,690,o),
(210,690,cs),
(127,690,ls),
(78,690,o),
(52,664,o),
(52,615,cs),
(52,0,l),
(252,0,l),
(252,292,ls),
(252,332,o),
(248,376,o),
(242,418,c),
(249,418,l),
(261,376,o),
(276,334,o),
(295,300,cs),
(445,63,ls),
(468,22,o),
(484,0,o),
(529,0,cs),
(612,0,ls),
(661,0,o),
(687,26,o),
(687,75,cs),
(687,690,l)
);
}
);
width = 738;
},
{
associatedMasterId = "924B7471-43FB-4CAD-AF7E-45215B64D997";
layerId = "0F5B3EA8-D086-4B50-8321-C07D569699D4";
name = "Bold May 2 13, 22:48";
shapes = (
{
closed = 1;
nodes = (
(479,690,l),
(480,288,l),
(474,288,l),
(463,326,o),
(446,373,o),
(431,401,cs),
(311,627,ls),
(289,669,o),
(272,690,o),
(227,690,cs),
(128,690,ls),
(79,690,o),
(53,664,o),
(53,615,cs),
(53,0,l),
(257,0,l),
(257,402,l),
(263,402,l),
(274,361,o),
(287,324,o),
(299,300,cs),
(422,63,ls),
(444,21,o),
(461,0,o),
(506,0,cs),
(608,0,ls),
(657,0,o),
(683,26,o),
(683,75,cs),
(683,690,l)
);
}
);
width = 736;
}
);
unicode = 78;
},
{
glyphname = Eng;
kernLeft = N;
kernRight = N;
lastChange = "2024-09-05 12:38:30 +0000";
layers = (
{
layerId = "DB82AE46-9E91-4728-8B1E-D34291E5A7BF";
shapes = (
{
closed = 1;
nodes = (
(530,690,l),
(530,202,ls),
(530,168,o),
(532,134,o),
(534,100,c),
(517,100,l),
(502,134,o),
(484,173,o),
(470,200,cs),
(229,662,ls),
(219,681,o),
(209,690,o),
(189,690,cs),
(122,690,ls),
(99,690,o),
(87,678,o),
(87,655,cs),
(87,0,l),
(175,0,l),
(175,501,ls),
(175,532,o),
(175,563,o),
(171,594,c),
(185,594,l),
(197,564,o),
(213,527,o),
(226,502,cs),
(474,25,ls),
(480,12,o),
(488,0,o),
(500,0,cs),
(535,0,l),
(535,-72,ls),
(535,-124,o),
(508,-148,o),
(453,-148,cs),
(404,-148,l),
(395,-204,l),
(419,-212,o),
(459,-216,o),
(483,-216,cs),
(566,-217,o),
(618,-168,o),
(618,-79,cs),
(618,690,l)
);
}
);
width = 704.77647;
},
{
layerId = "E21536AE-9819-4FE7-8A20-8865FE3C0515";
shapes = (
{
closed = 1;
nodes = (
(560,690,l),
(560,112,ls),
(560,82,o),
(560,52,o),
(560,22,c),
(532,22,l),
(517,49,o),
(503,76,o),
(488,103,cs),
(175,679,ls),
(171,687,o),
(165,690,o),
(157,690,cs),
(118,690,ls),
(108,690,o),
(103,685,o),
(103,675,cs),
(103,0,l),
(128,0,l),
(128,598,ls),
(128,621,o),
(128,645,o),
(128,668,c),
(153,668,l),
(165,645,o),
(178,623,o),
(190,600,cs),
(510,11,ls),
(514,3,o),
(520,0,o),
(528,0,cs),
(560,0,l),
(560,-100,ls),
(560,-167,o),
(527,-200,o),
(460,-200,cs),
(402,-200,l),
(399,-216,l),
(417,-219,o),
(445,-222,o),
(463,-222,cs),
(545,-223,o),
(585,-181,o),
(585,-101,cs),
(585,690,l)
);
}
);
width = 688;
},
{
background = {
shapes = (
{
closed = 1;
nodes = (
(464,690,l),
(465,283,l),
(460,283,l),
(450,331,o),
(437,368,o),
(418,401,cs),
(288,627,ls),
(264,668,o),
(249,690,o),
(204,690,cs),
(128,690,ls),
(79,690,o),
(53,664,o),
(53,615,cs),
(53,0,l),
(252,0,l),
(252,418,l),
(258,418,l),
(264,378,o),
(275,332,o),
(293,300,cs),
(428,63,ls),
(452,22,o),
(467,0,o),
(512,0,cs),
(588,0,ls),
(637,0,o),
(663,26,o),
(663,75,cs),
(663,690,l)
);
}
);
};
layerId = "924B7471-43FB-4CAD-AF7E-45215B64D997";
shapes = (
{
closed = 1;
nodes = (
(487,690,l),
(487,406,ls),
(487,365,o),
(491,324,o),
(497,283,c),
(490,283,l),
(474,331,o),
(454,374,o),
(438,401,cs),
(294,627,ls),
(271,668,o),
(254,690,o),
(209,690,cs),
(127,690,ls),
(78,690,o),
(52,664,o),
(52,615,cs),
(52,0,l),
(251,0,l),
(251,302,ls),
(251,341,o),
(247,379,o),
(242,418,c),
(248,418,l),
(261,378,o),
(275,334,o),
(295,300,cs),
(450,63,ls),
(466,36,o),
(485,9,o),
(495,9,cs),
(500,9,l),
(500,-15,ls),
(500,-34,o),
(484,-42,o),
(457,-42,cs),
(421,-42,l),
(398,-178,l),
(438,-196,o),
(503,-204,o),
(542,-204,cs),
(629,-204,o),
(687,-141,o),
(687,-33,cs),
(687,690,l)
);
}
);
width = 740;
}
);
unicode = 330;
},
{
glyphname = O;
kernLeft = C;
kernRight = O;
lastChange = "2024-09-05 12:38:30 +0000";
layers = (
{
anchors = (
{
name = bottom;
pos = (332,0);
},
{
name = ogonek;
pos = (371,0);
},
{
name = top;
pos = (336,734);
}
);
layerId = "DB82AE46-9E91-4728-8B1E-D34291E5A7BF";
shapes = (
{
closed = 1;
nodes = (
(133,703,o),
(61,615,o),
(61,345,cs),
(61,75,o),
(133,-13,o),
(334,-13,cs),
(535,-13,o),
(606,75,o),
(606,345,cs),
(606,615,o),
(535,703,o),
(334,703,cs)
);
},
{
closed = 1;
nodes = (
(470,624,o),
(514,556,o),
(514,345,cs),
(514,134,o),
(470,66,o),
(334,66,cs),
(198,66,o),
(154,134,o),
(154,345,cs),
(154,556,o),
(198,624,o),
(334,624,cs)
);
}
);
width = 667.83529;
},
{
anchors = (
{
name = bottom;
pos = (331,0);
},
{
name = ogonek;
pos = (362,0);
},
{
name = top;
pos = (332,740);
}
);
layerId = "E21536AE-9819-4FE7-8A20-8865FE3C0515";
shapes = (
{
closed = 1;
nodes = (
(142,702,o),
(76,608,o),
(76,345,cs),
(76,82,o),
(142,-12,o),
(331,-12,cs),
(520,-12,o),
(586,82,o),
(586,345,cs),
(586,608,o),
(520,702,o),
(331,702,cs)
);
},
{
closed = 1;
nodes = (
(501,679,o),
(560,593,o),
(560,345,cs),
(560,97,o),
(501,11,o),
(331,11,cs),
(161,11,o),
(102,97,o),
(102,345,cs),
(102,593,o),
(161,679,o),
(331,679,cs)
);
}
);
width = 662;
},
{
anchors = (
{
name = bottom;
pos = (352,-12);
},
{
name = ogonek;
pos = (409,0);
},
{
name = top;
pos = (352,735);
}
);
layerId = "924B7471-43FB-4CAD-AF7E-45215B64D997";
shapes = (
{
closed = 1;
nodes = (
(117,704,o),
(32,629,o),
(32,345,cs),
(32,61,o),
(117,-14,o),
(353,-14,cs),
(590,-14,o),
(675,61,o),
(675,345,cs),
(675,629,o),
(590,704,o),
(353,704,cs)
);
},
{
closed = 1;
nodes = (
(427,543,o),
(446,505,o),
(446,345,cs),
(446,185,o),
(427,147,o),
(353,147,cs),
(279,147,o),
(260,185,o),
(260,345,cs),
(260,505,o),
(279,543,o),
(353,543,cs)
);
}
);
width = 707;
}
);
unicode = 79;
},
{
glyphname = Ohorn;
kernLeft = C;
kernRight = Ohorn;
lastChange = "2024-09-05 12:38:30 +0000";
layers = (
{
anchors = (
{
name = bottom;
pos = (332,0);
},
{
name = top;
pos = (336,734);
}
);
layerId = "DB82AE46-9E91-4728-8B1E-D34291E5A7BF";
shapes = (
{
closed = 1;
nodes = (
(133,703,o),
(61,614,o),
(61,345,cs),
(61,75,o),
(133,-13,o),
(334,-13,cs),
(535,-13,o),
(606,75,o),
(606,345,cs),
(606,615,o),
(535,703,o),
(334,703,cs)
);
},
{
closed = 1;
nodes = (
(470,624,o),
(514,556,o),
(514,345,cs),
(514,134,o),
(470,66,o),
(334,66,cs),
(198,66,o),
(154,134,o),
(154,345,cs),
(154,556,o),
(198,624,o),
(334,624,cs)
);
},
{
pos = (774,179);
ref = horncomb;
}
);
userData = {
com.schriftgestaltung.componentsAlignment = (
-1
);
};
width = 667.83529;
},
{
anchors = (
{
name = bottom;
pos = (331,0);
},
{
name = top;
pos = (332,740);
}
);
background = {
anchors = (
{
name = bottom;
pos = (331,0);
},
{
name = top;
pos = (332,740);
}
);
shapes = (
{
closed = 1;
nodes = (
(144,702,o),
(76,607,o),
(76,345,cs),
(76,82,o),
(142,-12,o),
(331,-12,cs),
(520,-12,o),
(586,82,o),
(586,345,cs),
(586,608,o),
(520,702,o),
(331,702,cs)
);
},
{
closed = 1;
nodes = (
(501,679,o),
(560,593,o),
(560,345,cs),
(560,97,o),
(501,11,o),
(331,11,cs),
(161,11,o),
(102,97,o),
(102,345,cs),
(102,593,o),
(161,679,o),
(331,679,cs)
);
},
{
pos = (765,179);
ref = horncomb;
}
);
};
layerId = "E21536AE-9819-4FE7-8A20-8865FE3C0515";
shapes = (
{
closed = 1;
nodes = (
(144,702,o),
(76,607,o),
(76,345,cs),
(76,82,o),
(142,-12,o),
(331,-12,cs),
(520,-12,o),
(586,82,o),
(586,345,cs),
(586,608,o),
(520,702,o),
(331,702,cs)
);
},
{
closed = 1;
nodes = (
(501,679,o),
(560,593,o),
(560,345,cs),
(560,97,o),
(501,11,o),
(331,11,cs),
(161,11,o),
(102,97,o),
(102,345,cs),
(102,593,o),
(161,679,o),
(331,679,cs)
);
},
{
pos = (765,179);
ref = horncomb;
}
);
width = 662;
},
{
anchors = (
{
name = bottom;
pos = (350,0);
},
{
name = top;
pos = (354,732);
}
);
layerId = "924B7471-43FB-4CAD-AF7E-45215B64D997";
shapes = (
{
closed = 1;
nodes = (
(117,704,o),
(32,629,o),
(32,345,cs),
(32,61,o),
(117,-14,o),
(353,-14,cs),
(590,-14,o),
(675,61,o),
(675,345,cs),
(675,629,o),
(590,704,o),
(353,704,cs)
);
},
{
closed = 1;
nodes = (
(427,543,o),
(446,505,o),
(446,345,cs),
(446,185,o),
(427,147,o),
(353,147,cs),
(279,147,o),
(260,185,o),
(260,345,cs),
(260,505,o),
(279,543,o),
(353,543,cs)
);
},
{
pos = (826,185);
ref = horncomb;
}
);
userData = {
com.schriftgestaltung.componentsAlignment = (
-1
);
};
width = 736;
}
);
unicode = 416;
},
{
glyphname = Oslash;
kernLeft = C;
kernRight = O;
lastChange = "2024-09-05 12:38:30 +0000";
layers = (
{
anchors = (
{
name = top;
pos = (331,734);
}
);
layerId = "DB82AE46-9E91-4728-8B1E-D34291E5A7BF";
shapes = (
{
closed = 1;
nodes = (
(124,-38,l),
(169,-58,l),
(539,731,l),
(493,750,l)
);
},
{
ref = O;
}
);
userData = {
com.schriftgestaltung.componentsAlignment = (
-1
);
};
width = 668;
},
{
anchors = (
{
name = top;
pos = (332,740);
}
);
layerId = "E21536AE-9819-4FE7-8A20-8865FE3C0515";
shapes = (
{
closed = 1;
nodes = (
(128,-41,l),
(149,-51,l),
(516,731,l),
(495,741,l)
);
},
{
ref = O;
}
);
width = 662;
},
{
anchors = (
{
name = top;
pos = (351,735);
}
);
layerId = "924B7471-43FB-4CAD-AF7E-45215B64D997";
shapes = (
{
closed = 1;
nodes = (
(133,-44,l),
(191,-71,l),
(565,730,l),
(507,757,l)
);
},
{
ref = O;
}
);
width = 707;
},
{
associatedMasterId = "924B7471-43FB-4CAD-AF7E-45215B64D997";
layerId = "9C37119C-C614-4FDC-B503-FF1F10A86FCA";
name = "Bold [144}";
shapes = (
{
closed = 1;
nodes = (
(151,125,l),
(72,-41,l),
(233,-118,l),
(312,49,l)
);
},
{
closed = 1;
nodes = (
(566,586,l),
(632,730,l),
(471,806,l),
(405,662,l)
);
},
{
ref = O;
}
);
width = 707;
}
);
unicode = 216;
},
{
glyphname = OE;
kernLeft = C;
kernRight = AE;
lastChange = "2024-09-05 12:38:30 +0000";
layers = (
{
layerId = "DB82AE46-9E91-4728-8B1E-D34291E5A7BF";
shapes = (
{
closed = 1;
nodes = (
(133,703,o),
(61,615,o),
(61,345,cs),
(61,75,o),
(133,-13,o),
(334,-13,cs),
(411,-13,o),
(451,-2,o),
(509,26,c),
(478,89,l),
(430,74,o),
(403,66,o),
(334,66,cs),
(198,66,o),
(154,134,o),
(154,345,cs),
(154,558,o),
(198,624,o),
(334,624,cs),
(400,624,o),
(429,616,o),
(475,603,c),
(507,669,l),
(448,693,o),
(409,703,o),
(334,703,cs)
);
},
{
closed = 1;
nodes = (
(500,691,o),
(447,638,o),
(447,561,cs),
(447,129,ls),
(447,52,o),
(497,-1,o),
(566,-1,cs),
(665,-1,o),
(770,-1,o),
(862,5,c),
(859,73,l),
(602,73,ls),
(556,73,o),
(535,93,o),
(535,140,cs),
(535,550,ls),
(535,596,o),
(556,616,o),
(602,616,cs),
(859,616,l),
(862,685,l),
(772,691,o),
(670,691,o),
(573,691,cs)
);
},
{
closed = 1;
nodes = (
(464,328,l),
(819,329,l),
(819,400,l),
(464,401,l)
);
}
);
width = 913.07059;
},
{
guides = (
{
angle = 290;
pos = (320,278);
},
{
angle = 70;
pos = (314,401);
}
);
layerId = "E21536AE-9819-4FE7-8A20-8865FE3C0515";
shapes = (
{
closed = 1;
nodes = (
(142,702,o),
(76,608,o),
(76,345,cs),
(76,82,o),
(142,-12,o),
(331,-12,cs),
(405,-12,o),
(442,-2,o),
(503,26,c),
(493,46,l),
(434,21,o),
(402,11,o),
(331,11,cs),
(161,11,o),
(102,97,o),
(102,345,cs),
(102,596,o),
(161,679,o),
(331,679,cs),
(400,679,o),
(433,669,o),
(490,645,c),
(498,666,l),
(436,693,o),
(402,702,o),
(331,702,cs)
);
},
{
closed = 1;
nodes = (
(498,690,o),
(455,647,o),
(455,588,cs),
(455,102,ls),
(455,43,o),
(498,0,o),
(557,0,cs),
(649,0,o),
(739,0,o),
(831,4,c),
(831,22,l),
(562,22,ls),
(514,22,o),
(480,56,o),
(480,104,cs),
(480,586,ls),
(480,634,o),
(514,668,o),
(562,668,cs),
(831,668,l),
(831,686,l),
(739,690,o),
(649,690,o),
(557,690,cs)
);
},
{
closed = 1;
nodes = (
(472,359,l),
(788,360,l),
(788,380,l),
(472,381,l)
);
}
);
width = 889;
},
{
guides = (
{
angle = 290;
pos = (371,278);
},
{
angle = 70;
pos = (365,401);
}
);
layerId = "924B7471-43FB-4CAD-AF7E-45215B64D997";
shapes = (
{
closed = 1;
nodes = (
(117,704,o),
(33,629,o),
(33,345,cs),
(33,61,o),
(117,-14,o),
(349,-14,cs),
(423,-14,o),
(483,-1,o),
(537,29,c),
(462,164,l),
(438,152,o),
(404,147,o),
(349,147,cs),
(279,147,o),
(262,185,o),
(262,345,cs),
(262,505,o),
(279,543,o),
(349,543,cs),
(401,543,o),
(435,539,o),
(459,530,c),
(543,672,l),
(487,694,o),
(425,704,o),
(349,704,cs)
);
},
{
closed = 1;
nodes = (
(512,694,o),
(446,630,o),
(446,537,cs),
(446,153,ls),
(446,60,o),
(511,-4,o),
(602,-4,cs),
(719,-4,o),
(857,-4,o),
(954,9,c),
(944,162,l),
(703,162,ls),
(679,162,o),
(664,177,o),
(664,198,cs),
(664,492,ls),
(664,513,o),
(679,528,o),
(703,528,cs),
(944,528,l),
(954,681,l),
(857,694,o),
(720,694,o),
(603,694,cs)
);
},
{
closed = 1;
nodes = (
(463,286,l),
(910,286,l),
(910,420,l),
(463,420,l)
);
}
);
width = 982;
}
);
unicode = 338;
},
{
glyphname = P;
kernLeft = B;
kernRight = P;
lastChange = "2024-09-05 12:38:30 +0000";
layers = (
{
layerId = "DB82AE46-9E91-4728-8B1E-D34291E5A7BF";
shapes = (
{
closed = 1;
nodes = (
(213,699,o),
(162,698,o),
(87,690,c),
(101,619,l),
(129,622,o),
(214,623,o),
(323,623,cs),
(423,623,o),
(457,594,o),
(457,483,cs),
(457,372,o),
(423,344,o),
(323,343,cs),
(248,343,o),
(170,343,o),
(100,343,c),
(97,289,l),
(122,280,o),
(222,267,o),
(334,267,cs),
(490,267,o),
(546,313,o),
(546,483,cs),
(546,652,o),
(490,699,o),
(324,699,cs)
);
},
{
closed = 1;
nodes = (
(87,690,l),
(87,0,l),
(175,0,l),
(175,690,l)
);
}
);
width = 590.48235;
},
{
layerId = "E21536AE-9819-4FE7-8A20-8865FE3C0515";
shapes = (
{
closed = 1;
nodes = (
(221,698,o),
(173,697,o),
(103,690,c),
(117,672,l),
(144,674,o),
(223,675,o),
(324,675,cs),
(451,675,o),
(497,638,o),
(497,495,cs),
(497,352,o),
(451,317,o),
(324,315,cs),
(255,315,o),
(181,315,o),
(116,315,c),
(113,297,l),
(135,295,o),
(218,292,o),
(324,292,cs),
(470,292,o),
(523,335,o),
(523,495,cs),
(523,653,o),
(470,698,o),
(324,698,cs)
);
},
{
closed = 1;
nodes = (
(103,690,l),
(103,0,l),
(128,0,l),
(128,690,l)
);
}
);
width = 581;
},
{
layerId = "924B7471-43FB-4CAD-AF7E-45215B64D997";
shapes = (
{
closed = 1;
nodes = (
(206,700,o),
(144,699,o),
(52,690,c),
(67,542,l),
(101,546,o),
(203,547,o),
(339,547,cs),
(398,547,o),
(413,531,o),
(413,465,cs),
(413,401,o),
(398,385,o),
(339,385,cs),
(248,385,o),
(153,385,o),
(66,385,c),
(63,287,l),
(95,265,o),
(240,232,o),
(374,232,cs),
(563,232,o),
(630,283,o),
(630,465,cs),
(630,649,o),
(563,700,o),
(344,700,cs)
);
},
{
closed = 1;
nodes = (
(52,690,l),
(52,0,l),
(269,0,l),
(269,690,l)
);
}
);
width = 646;
}
);
unicode = 80;
},
{
glyphname = Thorn;
kernLeft = B;
kernRight = Thorn;
lastChange = "2024-09-05 12:38:30 +0000";
layers = (
{
layerId = "DB82AE46-9E91-4728-8B1E-D34291E5A7BF";
shapes = (
{
closed = 1;
nodes = (
(213,567,o),
(162,566,o),
(87,559,c),
(101,488,l),
(129,491,o),
(214,492,o),
(323,492,cs),
(423,492,o),
(457,464,o),
(457,349,cs),
(457,235,o),
(423,208,o),
(323,207,cs),
(248,207,o),
(170,207,o),
(100,207,c),
(97,153,l),
(122,144,o),
(222,131,o),
(334,131,cs),
(490,131,o),
(546,177,o),
(546,349,cs),
(546,520,o),
(490,567,o),
(325,567,cs)
);
},
{
closed = 1;
nodes = (
(87,690,l),
(87,0,l),
(175,0,l),
(175,690,l)
);
}
);
width = 592.48235;
},
{
layerId = "E21536AE-9819-4FE7-8A20-8865FE3C0515";
shapes = (
{
closed = 1;
nodes = (
(221,555,o),
(173,554,o),
(103,547,c),
(117,529,l),
(144,531,o),
(223,532,o),
(324,532,cs),
(451,532,o),
(497,495,o),
(497,352,cs),
(497,209,o),
(451,174,o),
(324,172,cs),
(255,172,o),
(181,172,o),
(116,172,c),
(113,154,l),
(135,152,o),
(218,149,o),
(324,149,cs),
(470,149,o),
(523,192,o),
(523,352,cs),
(523,510,o),
(470,555,o),
(324,555,cs)
);
},
{
closed = 1;
nodes = (
(103,690,l),
(103,0,l),
(128,0,l),
(128,690,l)
);
}
);
width = 583;
},
{
layerId = "924B7471-43FB-4CAD-AF7E-45215B64D997";
shapes = (
{
closed = 1;
nodes = (
(203,578,o),
(142,577,o),
(53,568,c),
(68,420,l),
(101,424,o),
(200,425,o),
(332,425,cs),
(386,425,o),
(399,409,o),
(399,343,cs),
(399,279,o),
(386,263,o),
(332,263,cs),
(243,263,o),
(151,263,o),
(67,263,c),
(64,165,l),
(95,143,o),
(237,110,o),
(367,110,cs),
(551,110,o),
(616,161,o),
(616,343,cs),
(616,527,o),
(551,578,o),
(337,578,cs)
);
},
{
closed = 1;
nodes = (
(53,690,l),
(53,0,l),
(270,0,l),
(270,690,l)
);
}
);
width = 633;
}
);
unicode = 222;
},
{
glyphname = Q;
kernLeft = C;
kernRight = O;
lastChange = "2024-09-05 12:38:30 +0000";
layers = (
{
layerId = "DB82AE46-9E91-4728-8B1E-D34291E5A7BF";
shapes = (
{
closed = 1;
nodes = (
(133,703,o),
(62,615,o),
(62,345,cs),
(62,75,o),
(133,-13,o),
(335,-13,cs),
(536,-13,o),
(607,75,o),
(607,345,cs),
(607,615,o),
(536,703,o),
(335,703,cs)
);
},
{
closed = 1;
nodes = (
(269,-96,l),
(341,-139,o),
(427,-180,o),
(531,-201,c),
(559,-113,l),
(460,-99,o),
(372,-77,o),
(294,-43,c)
);
},
{
closed = 1;
nodes = (
(470,624,o),
(515,556,o),
(515,345,cs),
(515,134,o),
(470,66,o),
(335,66,cs),
(199,66,o),
(155,134,o),
(155,345,cs),
(155,556,o),
(199,624,o),
(335,624,cs)
);
}
);
width = 669.29412;
},
{
layerId = "E21536AE-9819-4FE7-8A20-8865FE3C0515";
shapes = (
{
closed = 1;
nodes = (
(142,702,o),
(76,608,o),
(76,345,cs),
(76,82,o),
(142,-12,o),
(331,-12,cs),
(520,-12,o),
(586,82,o),
(586,345,cs),
(586,608,o),
(520,702,o),
(331,702,cs)
);
},
{
closed = 1;
nodes = (
(286,-65,l),
(345,-114,o),
(427,-149,o),
(515,-161,c),
(522,-136,l),
(429,-121,o),
(360,-95,o),
(298,-51,c)
);
},
{
closed = 1;
nodes = (
(501,679,o),
(560,593,o),
(560,345,cs),
(560,97,o),
(501,11,o),
(331,11,cs),
(161,11,o),
(102,97,o),
(102,345,cs),
(102,593,o),
(161,679,o),
(331,679,cs)
);
}
);
width = 662;
},
{
layerId = "924B7471-43FB-4CAD-AF7E-45215B64D997";
shapes = (
{
closed = 1;
nodes = (
(117,704,o),
(32,629,o),
(32,345,cs),
(32,61,o),
(117,-14,o),
(353,-14,cs),
(590,-14,o),
(675,61,o),
(675,345,cs),
(675,629,o),
(590,704,o),
(353,704,cs)
);
},
{
closed = 1;
nodes = (
(248,-129,l),
(326,-185,o),
(434,-236,o),
(570,-275,c),
(623,-100,l),
(496,-81,o),
(394,-63,o),
(294,-26,c)
);
},
{
closed = 1;
nodes = (
(427,543,o),
(446,505,o),
(446,345,cs),
(446,185,o),
(427,147,o),
(353,147,cs),
(279,147,o),
(260,185,o),
(260,345,cs),
(260,505,o),
(279,543,o),
(353,543,cs)
);
}
);
width = 707;
}
);
unicode = 81;
},
{
glyphname = R;
kernLeft = B;
kernRight = R;
lastChange = "2024-09-05 12:38:30 +0000";
layers = (
{
anchors = (
{
name = bottom;
pos = (315,0);
},
{
name = top;
pos = (303,734);
}
);
layerId = "DB82AE46-9E91-4728-8B1E-D34291E5A7BF";
shapes = (
{
closed = 1;
nodes = (
(214,699,o),
(162,698,o),
(87,690,c),
(101,621,l),
(129,621,o),
(213,623,o),
(323,623,cs),
(425,623,o),
(459,596,o),
(459,495,cs),
(459,393,o),
(425,365,o),
(323,364,cs),
(100,364,l),
(97,291,l),
(133,290,o),
(203,288,o),
(326,288,cs),
(372,288,o),
(400,268,o),
(418,216,cs),
(479,0,l),
(573,0,l),
(506,218,ls),
(491,276,o),
(455,308,o),
(421,317,c),
(421,322,l),
(512,334,o),
(548,388,o),
(548,500,cs),
(548,655,o),
(485,699,o),
(325,699,cs)
);
},
{
closed = 1;
nodes = (
(87,690,l),
(87,0,l),
(174,0,l),
(174,690,l)
);
}
);
width = 617.94118;
},
{
anchors = (
{
name = bottom;
pos = (302,0);
},
{
name = top;
pos = (303,740);
}
);
layerId = "E21536AE-9819-4FE7-8A20-8865FE3C0515";
shapes = (
{
closed = 1;
nodes = (
(221,698,o),
(173,697,o),
(103,690,c),
(117,672,l),
(144,674,o),
(223,675,o),
(324,675,cs),
(451,675,o),
(497,640,o),
(497,504,cs),
(497,370,o),
(451,335,o),
(324,333,cs),
(116,333,l),
(113,315,l),
(135,313,o),
(218,310,o),
(333,310,cs),
(386,310,o),
(423,285,o),
(446,218,cs),
(520,0,l),
(548,0,l),
(472,221,ls),
(456,267,o),
(431,305,o),
(396,316,c),
(396,320,l),
(484,333,o),
(523,379,o),
(523,504,cs),
(523,657,o),
(470,698,o),
(324,698,cs)
);
},
{
closed = 1;
nodes = (
(103,690,l),
(103,0,l),
(128,0,l),
(128,690,l)
);
}
);
width = 607;
},
{
anchors = (
{
name = bottom;
pos = (330,-12);
},
{
name = top;
pos = (330,735);
}
);
layerId = "924B7471-43FB-4CAD-AF7E-45215B64D997";
shapes = (
{
closed = 1;
nodes = (
(207,700,o),
(144,699,o),
(52,690,c),
(68,542,l),
(102,546,o),
(201,547,o),
(340,547,cs),
(402,547,o),
(418,533,o),
(418,476,cs),
(418,419,o),
(402,405,o),
(340,405,cs),
(66,405,l),
(63,257,l),
(128,253,o),
(182,253,o),
(332,252,cs),
(369,252,o),
(383,243,o),
(391,205,cs),
(436,0,l),
(663,0,l),
(609,212,ls),
(592,296,o),
(534,315,o),
(496,320,c),
(496,326,l),
(603,337,o),
(636,407,o),
(636,490,cs),
(636,651,o),
(548,700,o),
(345,700,cs)
);
},
{
closed = 1;
nodes = (
(52,690,l),
(52,0,l),
(265,0,l),
(265,690,l)
);
}
);
width = 676;
}
);
unicode = 82;
},
{
glyphname = S;
kernLeft = S;
kernRight = S;
lastChange = "2024-09-05 12:38:30 +0000";
layers = (
{
anchors = (
{
name = bottom;
pos = (283,-12);
},
{
name = top;
pos = (285,734);
}
);
layerId = "DB82AE46-9E91-4728-8B1E-D34291E5A7BF";
shapes = (
{
closed = 1;
nodes = (
(125,702,o),
(55,681,o),
(55,520,cs),
(55,415,o),
(91,353,o),
(191,328,cs),
(334,292,ls),
(394,277,o),
(421,258,o),
(421,178,cs),
(421,83,o),
(388,67,o),
(282,67,cs),
(225,66,o),
(188,68,o),
(71,72,c),
(65,7,l),
(159,-10,o),
(234,-12,o),
(279,-12,cs),
(440,-12,o),
(510,17,o),
(510,176,cs),
(510,283,o),
(477,344,o),
(371,370,cs),
(231,405,ls),
(170,420,o),
(144,442,o),
(144,518,cs),
(144,620,o),
(183,623,o),
(283,623,cs),
(347,623,o),
(420,621,o),
(478,618,c),
(484,682,l),
(415,697,o),
(344,701,o),
(279,702,cs)
);
}
);
width = 561.29412;
},
{
anchors = (
{
name = bottom;
pos = (282,-11);
},
{
name = top;
pos = (280,740);
}
);
layerId = "E21536AE-9819-4FE7-8A20-8865FE3C0515";
shapes = (
{
closed = 1;
nodes = (
(134,703,o),
(66,690,o),
(66,524,cs),
(66,412,o),
(103,358,o),
(200,347,cs),
(353,326,ls),
(436,315,o),
(467,278,o),
(467,169,cs),
(467,32,o),
(416,14,o),
(283,12,cs),
(207,11,o),
(156,13,o),
(81,19,c),
(78,0,l),
(163,-10,o),
(227,-11,o),
(282,-11,cs),
(417,-11,o),
(492,5,o),
(492,169,cs),
(492,290,o),
(454,338,o),
(353,350,cs),
(200,371,ls),
(121,382,o),
(91,423,o),
(91,524,cs),
(91,675,o),
(146,678,o),
(274,678,cs),
(336,678,o),
(398,674,o),
(458,670,c),
(461,689,l),
(401,696,o),
(337,700,o),
(274,701,cs)
);
}
);
width = 554;
},
{
anchors = (
{
name = bottom;
pos = (308,-12);
},
{
name = top;
pos = (308,735);
}
);
layerId = "924B7471-43FB-4CAD-AF7E-45215B64D997";
shapes = (
{
closed = 1;
nodes = (
(106,704,o),
(30,658,o),
(30,501,cs),
(30,400,o),
(72,343,o),
(184,293,cs),
(321,233,ls),
(358,219,o),
(368,210,o),
(368,191,cs),
(368,172,o),
(355,167,o),
(300,167,cs),
(263,167,o),
(168,169,o),
(49,172,c),
(36,20,l),
(156,-11,o),
(256,-14,o),
(303,-14,cs),
(518,-14,o),
(585,42,o),
(585,197,cs),
(585,298,o),
(545,357,o),
(430,407,cs),
(305,459,ls),
(258,477,o),
(245,487,o),
(245,506,cs),
(245,527,o),
(259,532,o),
(309,532,cs),
(395,532,o),
(492,531,o),
(552,530,c),
(565,669,l),
(482,698,o),
(386,704,o),
(314,704,cs)
);
}
);
width = 610;
}
);
unicode = 83;
},
{
glyphname = Germandbls;
kernLeft = F;
kernRight = B;
lastChange = "2024-09-05 12:38:30 +0000";
layers = (
{
layerId = "DB82AE46-9E91-4728-8B1E-D34291E5A7BF";
shapes = (
{
closed = 1;
nodes = (
(137,691,o),
(85,646,o),
(85,567,cs),
(85,0,l),
(173,0,l),
(173,550,ls),
(173,596,o),
(193,616,o),
(240,616,cs),
(562,616,l),
(567,684,l),
(478,691,o),
(314,691,o),
(218,691,cs)
);
},
{
closed = 1;
nodes = (
(308,320,l),
(406,319,ls),
(518,319,o),
(543,271,o),
(543,197,cs),
(543,97,o),
(499,66,o),
(390,66,cs),
(328,66,o),
(283,70,o),
(228,76,c),
(222,5,l),
(278,-5,o),
(340,-13,o),
(411,-13,cs),
(580,-13,o),
(631,57,o),
(630,202,cs),
(628,325,o),
(561,388,o),
(448,387,c),
(396,384,l),
(396,387,l),
(410,398,o),
(422,412,o),
(434,429,cs),
(562,616,l),
(467,616,l),
(308,381,l)
);
}
);
width = 650.6;
},
{
background = {
shapes = (
{
closed = 1;
nodes = (
(143,690,o),
(100,647,o),
(100,588,cs),
(100,0,l),
(125,0,l),
(125,586,ls),
(125,634,o),
(159,668,o),
(207,668,cs),
(512,668,l),
(514,686,l),
(418,690,o),
(298,690,o),
(202,690,cs)
);
},
{
closed = 1;
nodes = (
(276,356,l),
(376,355,ls),
(519,354,o),
(547,275,o),
(547,192,cs),
(547,61,o),
(493,11,o),
(364,11,cs),
(304,11,o),
(244,17,o),
(197,23,c),
(191,5,l),
(246,-4,o),
(306,-12,o),
(366,-12,cs),
(521,-12,o),
(575,56,o),
(572,192,cs),
(569,340,o),
(480,381,o),
(376,377,cs),
(299,374,l),
(299,377,l),
(304,381,o),
(313,390,o),
(321,401,cs),
(512,668,l),
(485,668,l),
(276,374,l)
);
}
);
};
layerId = "E21536AE-9819-4FE7-8A20-8865FE3C0515";
shapes = (
{
closed = 1;
nodes = (
(143,690,o),
(100,647,o),
(100,588,cs),
(100,0,l),
(125,0,l),
(125,586,ls),
(125,634,o),
(159,668,o),
(207,668,cs),
(512,668,l),
(514,686,l),
(418,690,o),
(298,690,o),
(202,690,cs)
);
},
{
closed = 1;
nodes = (
(276,356,l),
(376,355,ls),
(519,354,o),
(547,275,o),
(547,192,cs),
(547,61,o),
(493,11,o),
(364,11,cs),
(304,11,o),
(244,17,o),
(197,23,c),
(191,5,l),
(246,-4,o),
(306,-12,o),
(366,-12,cs),
(521,-12,o),
(575,56,o),
(572,192,cs),
(569,340,o),
(480,381,o),
(376,377,cs),
(299,374,l),
(299,377,l),
(304,381,o),
(313,390,o),
(321,401,cs),
(512,668,l),
(485,668,l),
(276,374,l)
);
}
);
width = 601;
},
{
layerId = "924B7471-43FB-4CAD-AF7E-45215B64D997";
shapes = (
{
closed = 1;
nodes = (
(118,694,o),
(50,630,o),
(50,537,cs),
(50,0,l),
(267,0,l),
(267,492,ls),
(267,513,o),
(283,528,o),
(310,528,cs),
(635,528,l),
(645,680,l),
(550,694,o),
(329,694,o),
(214,694,cs)
);
},
{
closed = 1;
nodes = (
(344,261,l),
(436,261,ls),
(487,261,o),
(505,249,o),
(505,199,cs),
(505,140,o),
(485,126,o),
(423,126,cs),
(381,126,o),
(361,129,o),
(304,135,c),
(298,5,l),
(354,-5,o),
(416,-13,o),
(472,-13,cs),
(646,-13,o),
(716,47,o),
(715,206,cs),
(714,314,o),
(672,401,o),
(561,401,c),
(522,399,l),
(522,402,l),
(540,411,o),
(557,427,o),
(569,443,cs),
(635,528,l),
(437,528,l),
(344,394,l)
);
}
);
width = 727;
}
);
unicode = 7838;
},
{
glyphname = T;
kernLeft = T;
kernRight = T;
lastChange = "2024-09-05 12:38:30 +0000";
layers = (
{
anchors = (
{
name = bottom;
pos = (289,0);
},
{
name = center;
pos = (289,345);
},
{
name = top;
pos = (290,734);
}
);
layerId = "DB82AE46-9E91-4728-8B1E-D34291E5A7BF";
shapes = (
{
closed = 1;
nodes = (
(246,690,l),
(246,0,l),
(334,0,l),
(334,690,l)
);
},
{
closed = 1;
nodes = (
(24,690,l),
(24,612,l),
(557,612,l),
(557,690,l)
);
}
);
width = 580.77647;
},
{
anchors = (
{
name = bottom;
pos = (282,0);
},
{
name = center;
pos = (282,345);
},
{
name = top;
pos = (283,740);
}
);
layerId = "E21536AE-9819-4FE7-8A20-8865FE3C0515";
shapes = (
{
closed = 1;
nodes = (
(269,690,l),
(269,0,l),
(294,0,l),
(294,690,l)
);
},
{
closed = 1;
nodes = (
(27,690,l),
(27,668,l),
(537,668,l),
(537,690,l)
);
}
);
width = 564;
},
{
anchors = (
{
name = bottom;
pos = (303,-20);
},
{
name = center;
pos = (304,345);
},
{
name = top;
pos = (311,735);
}
);
layerId = "924B7471-43FB-4CAD-AF7E-45215B64D997";
shapes = (
{
closed = 1;
nodes = (
(203,690,l),
(203,0,l),
(420,0,l),
(420,690,l)
);
},
{
closed = 1;
nodes = (
(10,690,l),
(10,528,l),
(613,528,l),
(613,690,l)
);
}
);
width = 623;
}
);
unicode = 84;
},
{
glyphname = Tbar;
kernLeft = T;
kernRight = T;
lastChange = "2024-09-05 12:38:30 +0000";
layers = (
{
layerId = "DB82AE46-9E91-4728-8B1E-D34291E5A7BF";
shapes = (
{
closed = 1;
nodes = (
(105,401,l),
(105,351,l),
(474,351,l),
(474,401,l)
);
},
{
ref = T;
}
);
userData = {
com.schriftgestaltung.componentsAlignment = (
-1
);
};
width = 580.77647;
},
{
layerId = "E21536AE-9819-4FE7-8A20-8865FE3C0515";
shapes = (
{
closed = 1;
nodes = (
(114,405,l),
(114,385,l),
(443,385,l),
(443,405,l)
);
},
{
ref = T;
}
);
width = 564;
},
{
layerId = "924B7471-43FB-4CAD-AF7E-45215B64D997";
shapes = (
{
closed = 1;
nodes = (
(88,401,l),
(88,307,l),
(537,307,l),
(537,401,l)
);
},
{
pos = (2,0);
ref = T;
}
);
width = 627;
}
);
unicode = 358;
},
{
glyphname = U;
kernLeft = U;
kernRight = U;
lastChange = "2024-09-05 12:38:30 +0000";
layers = (
{
anchors = (
{
name = bottom;
pos = (331,0);
},
{
name = ogonek;
pos = (374,-9);
},
{
name = top;
pos = (334,734);
}
);
layerId = "DB82AE46-9E91-4728-8B1E-D34291E5A7BF";
shapes = (
{
closed = 1;
nodes = (
(496,690,l),
(496,264,ls),
(496,116,o),
(453,66,o),
(333,66,cs),
(212,66,o),
(170,116,o),
(170,264,cs),
(170,690,l),
(82,690,l),
(82,264,ls),
(82,64,o),
(150,-13,o),
(337,-13,cs),
(518,-13,o),
(584,64,o),
(584,264,cs),
(584,690,l)
);
}
);
width = 666.27059;
},
{
anchors = (
{
name = bottom;
pos = (334,0);
},
{
name = ogonek;
pos = (374,-9);
},
{
name = top;
pos = (335,740);
}
);
layerId = "E21536AE-9819-4FE7-8A20-8865FE3C0515";
shapes = (
{
closed = 1;
nodes = (
(544,690,l),
(544,255,ls),
(544,76,o),
(487,11,o),
(334,11,cs),
(180,11,o),
(123,76,o),
(123,255,cs),
(123,690,l),
(98,690,l),
(98,255,ls),
(98,63,o),
(161,-12,o),
(334,-12,cs),
(506,-12,o),
(569,63,o),
(569,255,cs),
(569,690,l)
);
}
);
width = 667;
},
{
anchors = (
{
name = bottom;
pos = (354,-12);
},
{
name = ogonek;
pos = (411,0);
},
{
name = top;
pos = (354,735);
}
);
layerId = "924B7471-43FB-4CAD-AF7E-45215B64D997";
shapes = (
{
closed = 1;
nodes = (
(441,690,l),
(441,285,ls),
(441,174,o),
(422,147,o),
(353,147,cs),
(283,147,o),
(264,174,o),
(264,285,cs),
(264,690,l),
(47,690,l),
(47,285,ls),
(47,65,o),
(131,-14,o),
(364,-14,cs),
(580,-14,o),
(658,65,o),
(658,285,cs),
(658,690,l)
);
}
);
width = 705;
}
);
unicode = 85;
},
{
glyphname = Uhorn;
kernLeft = U;
kernRight = Uhorn;
lastChange = "2024-09-05 12:38:30 +0000";
layers = (
{
anchors = (
{
name = bottom;
pos = (331,0);
},
{
name = top;
pos = (334,734);
}
);
layerId = "DB82AE46-9E91-4728-8B1E-D34291E5A7BF";
shapes = (
{
closed = 1;
nodes = (
(496,690,l),
(496,264,ls),
(496,116,o),
(453,66,o),
(333,66,cs),
(212,66,o),
(170,116,o),
(170,264,cs),
(170,690,l),
(82,690,l),
(82,264,ls),
(82,64,o),
(150,-13,o),
(337,-13,cs),
(518,-13,o),
(584,64,o),
(584,264,cs),
(584,690,l)
);
},
{
pos = (816,179);
ref = horncomb;
}
);
userData = {
com.schriftgestaltung.componentsAlignment = (
-1
);
};
width = 695.44706;
},
{
anchors = (
{
name = bottom;
pos = (334,0);
},
{
name = top;
pos = (335,740);
}
);
layerId = "E21536AE-9819-4FE7-8A20-8865FE3C0515";
shapes = (
{
closed = 1;
nodes = (
(544,690,l),
(544,255,ls),
(544,76,o),
(487,11,o),
(334,11,cs),
(180,11,o),
(123,76,o),
(123,255,cs),
(123,690,l),
(98,690,l),
(98,255,ls),
(98,63,o),
(161,-12,o),
(334,-12,cs),
(506,-12,o),
(569,63,o),
(569,255,cs),
(569,690,l)
);
},
{
pos = (809,179);
ref = horncomb;
}
);
width = 667;
},
{
anchors = (
{
name = bottom;
pos = (353,-12);
},
{
name = top;
pos = (353,735);
}
);
layerId = "924B7471-43FB-4CAD-AF7E-45215B64D997";
shapes = (
{
closed = 1;
nodes = (
(441,690,l),
(441,285,ls),
(441,174,o),
(422,147,o),
(353,147,cs),
(283,147,o),
(264,174,o),
(264,285,cs),
(264,690,l),
(47,690,l),
(47,285,ls),
(47,65,o),
(131,-14,o),
(364,-14,cs),
(580,-14,o),
(658,65,o),
(658,285,cs),
(658,690,l)
);
},
{
pos = (888,185);
ref = horncomb;
}
);
userData = {
com.schriftgestaltung.componentsAlignment = (
-1
);
};
width = 785;
}
);
unicode = 431;
},
{
glyphname = V;
kernLeft = V;
kernRight = V;
lastChange = "2024-09-05 12:38:30 +0000";
layers = (
{
layerId = "DB82AE46-9E91-4728-8B1E-D34291E5A7BF";
shapes = (
{
closed = 1;
nodes = (
(501,690,l),
(339,144,ls),
(331,119,o),
(324,93,o),
(318,68,c),
(291,68,l),
(285,93,o),
(278,118,o),
(271,143,cs),
(108,690,l),
(17,690,l),
(226,25,ls),
(230,11,o),
(243,0,o),
(260,0,cs),
(349,0,ls),
(365,0,o),
(378,11,o),
(383,25,cs),
(592,690,l)
);
}
);
width = 608.77647;
},
{
layerId = "E21536AE-9819-4FE7-8A20-8865FE3C0515";
shapes = (
{
closed = 1;
nodes = (
(539,690,l),
(335,97,ls),
(326,72,o),
(318,47,o),
(310,22,c),
(282,22,l),
(274,47,o),
(266,71,o),
(257,96,cs),
(53,690,l),
(26,690,l),
(262,9,ls),
(264,4,o),
(269,0,o),
(275,0,cs),
(317,0,ls),
(323,0,o),
(328,4,o),
(330,9,cs),
(566,690,l)
);
}
);
width = 592;
},
{
layerId = "924B7471-43FB-4CAD-AF7E-45215B64D997";
shapes = (
{
closed = 1;
nodes = (
(449,690,l),
(360,241,ls),
(355,216,o),
(350,187,o),
(347,162,c),
(323,162,l),
(319,187,o),
(315,216,o),
(310,241,cs),
(221,690,l),
(-2,690,l),
(166,58,ls),
(174,23,o),
(203,0,o),
(240,0,cs),
(430,0,ls),
(467,0,o),
(496,23,o),
(504,58,cs),
(672,690,l)
);
}
);
width = 670;
}
);
unicode = 86;
},
{
glyphname = W;
kernLeft = W;
kernRight = W;
lastChange = "2024-09-05 12:38:30 +0000";
layers = (
{
anchors = (
{
name = top;
pos = (475,733);
}
);
layerId = "DB82AE46-9E91-4728-8B1E-D34291E5A7BF";
shapes = (
{
closed = 1;
nodes = (
(824,690,l),
(715,151,ls),
(710,124,o),
(706,95,o),
(702,67,c),
(677,67,l),
(674,95,o),
(669,123,o),
(663,152,cs),
(556,661,ls),
(552,678,o),
(539,690,o),
(522,690,cs),
(426,690,ls),
(408,690,o),
(395,678,o),
(392,661,cs),
(285,152,ls),
(279,125,o),
(274,98,o),
(269,67,c),
(246,67,l),
(241,98,o),
(237,126,o),
(232,152,cs),
(124,690,l),
(31,690,l),
(171,26,ls),
(174,11,o),
(188,0,o),
(205,0,cs),
(306,0,ls),
(323,0,o),
(337,11,o),
(341,27,cs),
(448,546,ls),
(453,571,o),
(458,598,o),
(463,624,c),
(484,624,l),
(489,598,o),
(494,572,o),
(500,546,cs),
(608,27,ls),
(611,11,o),
(625,0,o),
(642,0,cs),
(742,0,ls),
(760,0,o),
(773,11,o),
(777,26,cs),
(917,690,l)
);
}
);
width = 947.50588;
},
{
anchors = (
{
name = top;
pos = (466,740);
}
);
guides = (
{
pos = (467,587);
}
);
layerId = "E21536AE-9819-4FE7-8A20-8865FE3C0515";
shapes = (
{
closed = 1;
nodes = (
(871,690,l),
(711,90,ls),
(705,67,o),
(699,45,o),
(693,22,c),
(665,22,l),
(659,45,o),
(654,68,o),
(648,91,cs),
(498,679,ls),
(496,686,o),
(491,690,o),
(484,690,cs),
(446,690,ls),
(439,690,o),
(434,686,o),
(432,679,cs),
(282,90,ls),
(276,67,o),
(271,45,o),
(265,22,c),
(237,22,l),
(231,45,o),
(225,68,o),
(219,91,cs),
(59,690,l),
(33,690,l),
(216,10,ls),
(218,4,o),
(223,0,o),
(230,0,cs),
(272,0,ls),
(279,0,o),
(284,4,o),
(286,11,cs),
(433,591,ls),
(440,617,o),
(446,642,o),
(453,668,c),
(477,668,l),
(484,642,o),
(490,617,o),
(497,591,cs),
(644,11,ls),
(646,4,o),
(651,0,o),
(658,0,cs),
(700,0,ls),
(707,0,o),
(712,4,o),
(714,10,cs),
(897,690,l)
);
}
);
width = 930;
},
{
anchors = (
{
name = top;
pos = (502,735);
}
);
guides = (
{
pos = (440,447);
}
);
layerId = "924B7471-43FB-4CAD-AF7E-45215B64D997";
shapes = (
{
closed = 1;
nodes = (
(769,690,l),
(735,265,ls),
(733,231,o),
(730,189,o),
(730,152,c),
(714,152,l),
(709,188,o),
(703,230,o),
(699,266,cs),
(652,626,ls),
(647,664,o),
(618,690,o),
(579,690,cs),
(424,690,ls),
(385,690,o),
(355,664,o),
(351,626,cs),
(305,268,ls),
(301,232,o),
(294,187,o),
(289,152,c),
(273,152,l),
(273,196,o),
(271,233,o),
(269,267,cs),
(234,690,l),
(20,690,l),
(106,58,ls),
(111,23,o),
(143,0,o),
(180,0,cs),
(365,0,ls),
(402,0,o),
(435,23,o),
(439,58,cs),
(485,438,ls),
(489,471,o),
(491,506,o),
(493,540,c),
(510,540,l),
(512,507,o),
(514,472,o),
(518,439,cs),
(565,58,ls),
(569,23,o),
(602,0,o),
(639,0,cs),
(823,0,ls),
(860,0,o),
(892,23,o),
(897,58,cs),
(983,690,l)
);
}
);
width = 1003;
}
);
unicode = 87;
},
{
glyphname = X;
kernLeft = X;
kernRight = X;
lastChange = "2024-09-05 12:38:30 +0000";
layers = (
{
layerId = "DB82AE46-9E91-4728-8B1E-D34291E5A7BF";
shapes = (
{
closed = 1;
nodes = (
(478,690,l),
(301,357,l),
(490,0,l),
(586,0,l),
(391,357,l),
(573,690,l)
);
},
{
closed = 1;
nodes = (
(38,690,l),
(219,357,l),
(25,0,l),
(121,0,l),
(310,357,l),
(133,690,l)
);
},
{
closed = 1;
nodes = (
(252,392,l),
(252,324,l),
(358,324,l),
(358,392,l)
);
}
);
width = 611.23529;
},
{
layerId = "E21536AE-9819-4FE7-8A20-8865FE3C0515";
shapes = (
{
closed = 1;
nodes = (
(512,690,l),
(306,360,l),
(525,0,l),
(555,0,l),
(336,360,l),
(542,690,l)
);
},
{
closed = 1;
nodes = (
(51,690,l),
(257,360,l),
(38,0,l),
(68,0,l),
(287,360,l),
(81,690,l)
);
},
{
closed = 1;
nodes = (
(275,372,l),
(275,350,l),
(327,350,l),
(327,372,l)
);
}
);
width = 593;
},
{
layerId = "924B7471-43FB-4CAD-AF7E-45215B64D997";
shapes = (
{
closed = 1;
nodes = (
(454,690,l),
(311,352,l),
(467,0,l),
(682,0,l),
(511,352,l),
(668,690,l)
);
},
{
closed = 1;
nodes = (
(9,690,l),
(166,352,l),
(-5,0,l),
(210,0,l),
(366,352,l),
(223,690,l)
);
},
{
closed = 1;
nodes = (
(226,414,l),
(226,294,l),
(434,294,l),
(434,414,l)
);
}
);
width = 677;
}
);
unicode = 88;
},
{
glyphname = Y;
kernLeft = Y;
kernRight = Y;
lastChange = "2024-09-05 12:38:30 +0000";
layers = (
{
anchors = (
{
name = bottom;
pos = (283,0);
},
{
name = top;
pos = (286,724);
}
);
layerId = "DB82AE46-9E91-4728-8B1E-D34291E5A7BF";
shapes = (
{
closed = 1;
nodes = (
(464,690,l),
(319,398,ls),
(308,374,o),
(297,346,o),
(288,321,c),
(281,321,l),
(272,346,o),
(262,374,o),
(250,399,cs),
(105,690,l),
(11,690,l),
(245,234,l),
(324,234,l),
(557,690,l)
);
},
{
closed = 1;
nodes = (
(240,296,l),
(240,0,l),
(328,0,l),
(328,296,l)
);
}
);
width = 568.71765;
},
{
anchors = (
{
name = bottom;
pos = (271,0);
},
{
name = top;
pos = (271,740);
}
);
guides = (
{
angle = 90;
pos = (271,289);
}
);
layerId = "E21536AE-9819-4FE7-8A20-8865FE3C0515";
shapes = (
{
closed = 1;
nodes = (
(490,690,l),
(310,356,ls),
(299,335,o),
(285,311,o),
(273,289,c),
(268,289,l),
(255,311,o),
(242,335,o),
(230,357,cs),
(50,690,l),
(22,690,l),
(262,250,l),
(279,250,l),
(518,690,l)
);
},
{
closed = 1;
nodes = (
(258,281,l),
(258,0,l),
(283,0,l),
(283,281,l)
);
}
);
width = 541;
},
{
anchors = (
{
name = bottom;
pos = (328,-12);
},
{
name = top;
pos = (328,735);
}
);
layerId = "924B7471-43FB-4CAD-AF7E-45215B64D997";
shapes = (
{
closed = 1;
nodes = (
(441,690,l),
(355,474,ls),
(344,444,o),
(339,407,o),
(334,376,c),
(321,376,l),
(316,407,o),
(312,443,o),
(300,473,cs),
(213,690,l),
(-10,690,l),
(223,205,l),
(431,205,l),
(664,690,l)
);
},
{
closed = 1;
nodes = (
(219,328,l),
(219,0,l),
(436,0,l),
(436,328,l)
);
}
);
width = 654;
}
);
unicode = 89;
},
{
glyphname = Z;
kernLeft = Z;
kernRight = Z;
lastChange = "2024-09-05 12:38:30 +0000";
layers = (
{
anchors = (
{
name = bottom;
pos = (290,0);
},
{
name = top;
pos = (281,734);
}
);
layerId = "DB82AE46-9E91-4728-8B1E-D34291E5A7BF";
shapes = (
{
closed = 1;
nodes = (
(48,75,l),
(145,74,l),
(512,615,l),
(416,616,l)
);
},
{
closed = 1;
nodes = (
(48,75,l),
(48,0,l),
(519,0,l),
(519,75,l)
);
},
{
closed = 1;
nodes = (
(54,690,l),
(54,615,l),
(512,615,l),
(512,690,l)
);
}
);
width = 566.02353;
},
{
anchors = (
{
name = bottom;
pos = (278,0);
},
{
name = top;
pos = (279,740);
}
);
layerId = "E21536AE-9819-4FE7-8A20-8865FE3C0515";
shapes = (
{
closed = 1;
nodes = (
(52,23,l),
(80,22,l),
(502,667,l),
(474,668,l)
);
},
{
closed = 1;
nodes = (
(52,23,l),
(52,0,l),
(507,0,l),
(507,23,l)
);
},
{
closed = 1;
nodes = (
(55,690,l),
(55,667,l),
(502,667,l),
(502,690,l)
);
}
);
width = 558;
},
{
anchors = (
{
name = bottom;
pos = (304,-12);
},
{
name = top;
pos = (304,735);
}
);
layerId = "924B7471-43FB-4CAD-AF7E-45215B64D997";
shapes = (
{
closed = 1;
nodes = (
(29,152,l),
(268,151,l),
(567,538,l),
(328,539,l)
);
},
{
closed = 1;
nodes = (
(29,152,l),
(29,0,l),
(577,0,l),
(577,152,l)
);
},
{
closed = 1;
nodes = (
(39,690,l),
(39,538,l),
(567,538,l),
(567,690,l)
);
}
);
width = 605;
}
);
unicode = 90;
},
{
glyphname = Oslash.rvrn;
lastChange = "2024-09-05 12:38:30 +0000";
layers = (
{
layerId = "DB82AE46-9E91-4728-8B1E-D34291E5A7BF";
shapes = (
{
closed = 1;
nodes = (
(167,85,l),
(114,-28,l),
(179,-63,l),
(232,51,l)
);
},
{
closed = 1;
nodes = (
(495,610,l),
(549,726,l),
(483,760,l),
(433,653,l)
);
},
{
ref = O;
}
);
width = 663;
},
{
associatedMasterId = "DB82AE46-9E91-4728-8B1E-D34291E5A7BF";
layerId = "DBDE05CE-FBC2-424A-8677-7DF92253398A";
name = "Light May 2 13, 12:48";
width = 500;
},
{
associatedMasterId = "DB82AE46-9E91-4728-8B1E-D34291E5A7BF";
layerId = "FDF1576E-4AFC-4F20-9DA3-5818AFFB4E74";
name = "Light May 2 13, 21:35";
width = 500;
},
{
associatedMasterId = "DB82AE46-9E91-4728-8B1E-D34291E5A7BF";
layerId = "42F42594-18F0-41AB-A548-BB4A66000673";
name = "Light May 2 13, 16:37";
width = 500;
},
{
associatedMasterId = "DB82AE46-9E91-4728-8B1E-D34291E5A7BF";
layerId = "167E60B0-3013-4B03-80AD-DC7D3FDF3A15";
name = "Light Apr 26 13, 16:54";
width = 500;
},
{
associatedMasterId = "DB82AE46-9E91-4728-8B1E-D34291E5A7BF";
layerId = "506D77B6-0003-45F2-B268-55E1F097EE76";
name = "Light Apr 26 13, 18:43";
width = 500;
},
{
associatedMasterId = "DB82AE46-9E91-4728-8B1E-D34291E5A7BF";
layerId = "2F0A10E4-365B-4EE2-9E6D-B69D63805030";
name = "Light Apr 26 13, 19:05";
width = 500;
},
{
associatedMasterId = "DB82AE46-9E91-4728-8B1E-D34291E5A7BF";
layerId = "814CB02F-C09C-4D31-B5E8-0D042E2D07C4";
name = "Light Apr 26 13, 19:23";
width = 500;
},
{
associatedMasterId = "DB82AE46-9E91-4728-8B1E-D34291E5A7BF";
layerId = "20BEF353-8476-4F90-A6D4-8FAFEF9C6CB0";
name = "Light May 27 13, 12:31";
width = 500;
},
{
associatedMasterId = "DB82AE46-9E91-4728-8B1E-D34291E5A7BF";
layerId = "CF7B1E51-5CAF-47B3-A991-1F60F993C5AA";
name = "Light May 29 13, 11:13";
width = 500;
},
{
associatedMasterId = "DB82AE46-9E91-4728-8B1E-D34291E5A7BF";
layerId = "BE21F5A2-0202-478A-BA75-6FFDAE65046B";
name = "Light May 20 13, 12:51";
width = 500;
},
{
associatedMasterId = "DB82AE46-9E91-4728-8B1E-D34291E5A7BF";
layerId = "FE76F93E-04CD-4E83-AFE7-A5A61B1FCFCE";
name = "Nov 15 16, 16:16";
width = 500;
},
{
associatedMasterId = "DB82AE46-9E91-4728-8B1E-D34291E5A7BF";
layerId = "8644CA7A-5EAF-44C2-8CD3-472944B425EB";
name = "Nov 15 16, 16:16.background";
width = 500;
},
{
associatedMasterId = "DB82AE46-9E91-4728-8B1E-D34291E5A7BF";
layerId = "4881EED8-1810-4592-843B-564A0952F4CA";
name = "Nov 15 16, 10:56";
width = 500;
},
{
associatedMasterId = "DB82AE46-9E91-4728-8B1E-D34291E5A7BF";
layerId = "F5C2AC19-3E68-4302-B9ED-A893281AEE51";
name = "Nov 15 16, 10:56.background";
width = 500;
},
{
associatedMasterId = "DB82AE46-9E91-4728-8B1E-D34291E5A7BF";
layerId = "EFA3C9FD-1079-4DB6-9109-E65D1042D1F2";
name = "Light May 20 13, 14:44";
width = 500;
},
{
associatedMasterId = "DB82AE46-9E91-4728-8B1E-D34291E5A7BF";
layerId = "B3C888FF-D850-4780-93C8-E96E77EC85AE";
name = "Light Jun 12 13, 16:23";
width = 500;
},
{
associatedMasterId = "DB82AE46-9E91-4728-8B1E-D34291E5A7BF";
layerId = "271C16C4-41DC-4212-9BE4-73859053E2C0";
name = "Nov 17 16, 16:25";
width = 500;
},
{
associatedMasterId = "DB82AE46-9E91-4728-8B1E-D34291E5A7BF";
layerId = "77E9F876-6706-4C35-957B-69D4A8E8FEB6";
name = "Nov 15 16, 16:05";
width = 500;
},
{
associatedMasterId = "DB82AE46-9E91-4728-8B1E-D34291E5A7BF";
layerId = "A5EA25B2-3333-44A6-90A2-61B8D842E066";
name = "Nov 15 16, 16:09";
width = 500;
},
{
associatedMasterId = "DB82AE46-9E91-4728-8B1E-D34291E5A7BF";
layerId = "5289EE96-33C9-4391-8A88-56AD6B43EDBA";
name = "Nov 17 16, 11:45";
width = 500;
},
{
associatedMasterId = "DB82AE46-9E91-4728-8B1E-D34291E5A7BF";
layerId = "2F466683-740C-40F6-8FE9-AC0718CBB92C";
name = "Nov 17 16, 11:45.background";
width = 500;
},
{
associatedMasterId = "DB82AE46-9E91-4728-8B1E-D34291E5A7BF";
layerId = "8FA0B4C7-5097-4536-B496-537934A47982";
name = "Nov 17 16, 11:46";
width = 500;
},
{
associatedMasterId = "DB82AE46-9E91-4728-8B1E-D34291E5A7BF";
layerId = "7D6A3349-F569-4BB2-BE3D-0F3811474989";
name = "Nov 17 16, 11:46.background";
width = 500;
},
{
associatedMasterId = "DB82AE46-9E91-4728-8B1E-D34291E5A7BF";
layerId = "C3DE2231-3634-4909-A935-A85D0B7EA043";
name = "Nov 16 16, 16:36";
width = 500;
},
{
associatedMasterId = "DB82AE46-9E91-4728-8B1E-D34291E5A7BF";
layerId = "EDC7DCA8-EFF0-40AB-AD66-8AA32B84BBC6";
name = "Nov 15 16, 11:23";
width = 500;
},
{
associatedMasterId = "DB82AE46-9E91-4728-8B1E-D34291E5A7BF";
layerId = "F6C839F6-00A8-45DF-BB34-1291EBE34300";
name = "Nov 15 16, 11:23.background";
width = 500;
},
{
associatedMasterId = "DB82AE46-9E91-4728-8B1E-D34291E5A7BF";
layerId = "0A6B58EA-5BA3-4624-9FDF-3B935050B352";
name = "Nov 16 16, 10:43";
width = 500;
},
{
associatedMasterId = "DB82AE46-9E91-4728-8B1E-D34291E5A7BF";
layerId = "AADA6F84-4FB6-4C34-BEB6-73218BCC7955";
name = "Nov 16 16, 10:43.background";
width = 500;
},
{
associatedMasterId = "DB82AE46-9E91-4728-8B1E-D34291E5A7BF";
layerId = "2C50A035-272B-43B9-9049-670DDC4211C6";
name = "Nov 16 16, 10:44";
width = 500;
},
{
associatedMasterId = "DB82AE46-9E91-4728-8B1E-D34291E5A7BF";
layerId = "F02B008E-1BA4-436E-9F9B-20629A4C3EFA";
name = "Nov 16 16, 10:44.background";
width = 500;
},
{
associatedMasterId = "DB82AE46-9E91-4728-8B1E-D34291E5A7BF";
layerId = "2D9E2837-9A7D-4034-B93F-ED738977D2E3";
name = "Nov 16 16, 10:45";
width = 500;
},
{
associatedMasterId = "DB82AE46-9E91-4728-8B1E-D34291E5A7BF";
layerId = "83921510-81C1-47B2-A6A8-2C8632368567";
name = "Nov 16 16, 10:45.background";
width = 500;
},
{
associatedMasterId = "DB82AE46-9E91-4728-8B1E-D34291E5A7BF";
layerId = "5156C4B9-6FB3-4266-B86E-1879FD1F5FEA";
name = "Light May 21 13, 18:00";
width = 500;
},
{
layerId = "E21536AE-9819-4FE7-8A20-8865FE3C0515";
shapes = (
{
closed = 1;
nodes = (
(166,40,l),
(128,-41,l),
(149,-51,l),
(192,40,l)
);
},
{
closed = 1;
nodes = (
(482,659,l),
(516,731,l),
(495,741,l),
(456,659,l)
);
},
{
ref = O;
}
);
width = 662;
},
{
layerId = "924B7471-43FB-4CAD-AF7E-45215B64D997";
shapes = (
{
closed = 1;
nodes = (
(137,95,l),
(84,-18,l),
(219,-68,l),
(272,46,l)
);
},
{
closed = 1;
nodes = (
(585,595,l),
(639,711,l),
(503,760,l),
(453,653,l)
);
},
{
ref = O;
}
);
width = 707;
},
{
associatedMasterId = "924B7471-43FB-4CAD-AF7E-45215B64D997";
layerId = "235AF1F7-3611-44CF-A49B-56A35F72486F";
name = "Nov 17 16, 16:25";
width = 500;
},
{
associatedMasterId = "924B7471-43FB-4CAD-AF7E-45215B64D997";
layerId = "05C3764A-BDC3-4E4C-AE3C-F3509BB0A9CC";
name = "Light May 2 13, 12:48";
width = 500;
},
{
associatedMasterId = "924B7471-43FB-4CAD-AF7E-45215B64D997";
layerId = "ACFC7BA0-97B0-4187-A003-9F599B3E5BB6";
name = "Light May 2 13, 21:35";
width = 500;
},
{
associatedMasterId = "924B7471-43FB-4CAD-AF7E-45215B64D997";
layerId = "B1A95620-009F-45A7-84E3-AC39BB9184F0";
name = "Light May 2 13, 16:37";
width = 500;
},
{
associatedMasterId = "924B7471-43FB-4CAD-AF7E-45215B64D997";
layerId = "5994E363-4CF0-4E03-93F5-B77BF5AF5EE4";
name = "Light Apr 26 13, 16:54";
width = 500;
},
{
associatedMasterId = "924B7471-43FB-4CAD-AF7E-45215B64D997";
layerId = "BC656D61-3BAC-4C61-918B-08CF0C1DFAA0";
name = "Light Apr 26 13, 18:43";
width = 500;
},
{
associatedMasterId = "924B7471-43FB-4CAD-AF7E-45215B64D997";
layerId = "1139EE92-41C3-45F7-9C78-8E5B91B1EC09";
name = "Light Apr 26 13, 19:05";
width = 500;
},
{
associatedMasterId = "924B7471-43FB-4CAD-AF7E-45215B64D997";
layerId = "59CC54A1-7487-4C15-8ECB-738765E64334";
name = "Light Apr 26 13, 19:23";
width = 500;
},
{
associatedMasterId = "924B7471-43FB-4CAD-AF7E-45215B64D997";
layerId = "1AF7CBF4-6963-4A1C-B1B2-631C184B5993";
name = "Light May 27 13, 12:31";
width = 500;
},
{
associatedMasterId = "924B7471-43FB-4CAD-AF7E-45215B64D997";
layerId = "D64CC9CA-0FB7-4DCC-B0EF-49A41E2D0CD3";
name = "Light May 29 13, 11:13";
width = 500;
},
{
associatedMasterId = "924B7471-43FB-4CAD-AF7E-45215B64D997";
layerId = "A889F56D-BDA7-4C3C-A59D-14BDD1D19996";
name = "Light May 20 13, 12:51";
width = 500;
},
{
associatedMasterId = "924B7471-43FB-4CAD-AF7E-45215B64D997";
layerId = "9D8369AA-5236-492A-B503-A3D745492DC2";
name = "Nov 15 16, 16:16";
width = 500;
},
{
associatedMasterId = "924B7471-43FB-4CAD-AF7E-45215B64D997";
layerId = "4BEC7A1F-3ACB-490C-8606-190CA14A4548";
name = "Nov 15 16, 16:16.background";
width = 500;
},
{
associatedMasterId = "924B7471-43FB-4CAD-AF7E-45215B64D997";
layerId = "1EE67B39-1DEB-4A84-95D8-56805EFD0C75";
name = "Nov 15 16, 10:56";
width = 500;
},
{
associatedMasterId = "924B7471-43FB-4CAD-AF7E-45215B64D997";
layerId = "EAF5BE85-426C-44ED-89E7-957868B37E87";
name = "Nov 15 16, 10:56.background";
width = 500;
},
{
associatedMasterId = "924B7471-43FB-4CAD-AF7E-45215B64D997";
layerId = "91BC20DD-6290-429D-BC04-2666C7C0FA70";
name = "Light May 20 13, 14:44";
width = 500;
},
{
associatedMasterId = "924B7471-43FB-4CAD-AF7E-45215B64D997";
layerId = "B13C6FCF-FAF3-4504-839D-C9A9DEB1D947";
name = "Light Jun 12 13, 16:23";
width = 500;
},
{
associatedMasterId = "924B7471-43FB-4CAD-AF7E-45215B64D997";
layerId = "1C770FB3-F717-471C-B188-994D54822B81";
name = "Nov 15 16, 16:05";
width = 500;
},
{
associatedMasterId = "924B7471-43FB-4CAD-AF7E-45215B64D997";
layerId = "972B4A7D-53EA-4737-A48A-99753B052CBF";
name = "Nov 15 16, 16:09";
width = 500;
},
{
associatedMasterId = "924B7471-43FB-4CAD-AF7E-45215B64D997";
layerId = "0A75750C-4239-479E-A99C-3F4E3A8B7137";
name = "Nov 17 16, 11:45";
width = 500;
},
{
associatedMasterId = "924B7471-43FB-4CAD-AF7E-45215B64D997";
layerId = "00BE4467-872F-4B16-947C-1795E19FAC48";
name = "Nov 17 16, 11:45.background";
width = 500;
},
{
associatedMasterId = "924B7471-43FB-4CAD-AF7E-45215B64D997";
layerId = "A141A1AE-1167-4B8C-838B-F077C2C6B7D9";
name = "Nov 17 16, 11:46";
width = 500;
},
{
associatedMasterId = "924B7471-43FB-4CAD-AF7E-45215B64D997";
layerId = "19D64822-D625-461C-A5C4-421C5D98E2AB";
name = "Nov 17 16, 11:46.background";
width = 500;
},
{
associatedMasterId = "924B7471-43FB-4CAD-AF7E-45215B64D997";
layerId = "ED26E970-1ECB-4A7B-AFE9-B03DCFBD1172";
name = "Nov 16 16, 16:36";
width = 500;
},
{
associatedMasterId = "924B7471-43FB-4CAD-AF7E-45215B64D997";
layerId = "2426584C-7F65-4D48-9C7C-E355767BC821";
name = "Nov 15 16, 11:23";
width = 500;
},
{
associatedMasterId = "924B7471-43FB-4CAD-AF7E-45215B64D997";
layerId = "22D49697-AF83-4DF6-A9A8-EE89F5F8ECF2";
name = "Nov 15 16, 11:23.background";
width = 500;
},
{
associatedMasterId = "924B7471-43FB-4CAD-AF7E-45215B64D997";
layerId = "0C1954B1-1C58-4B72-99DD-E532956C0F12";
name = "Nov 16 16, 10:43";
width = 500;
},
{
associatedMasterId = "924B7471-43FB-4CAD-AF7E-45215B64D997";
layerId = "9C2F4798-2D2F-49FE-BCD2-291B80477CA8";
name = "Nov 16 16, 10:43.background";
width = 500;
},
{
associatedMasterId = "924B7471-43FB-4CAD-AF7E-45215B64D997";
layerId = "6D7DEFDD-5A58-429C-B802-43A302D87716";
name = "Nov 16 16, 10:44";
width = 500;
},
{
associatedMasterId = "924B7471-43FB-4CAD-AF7E-45215B64D997";
layerId = "F0BA95C2-AC05-4618-8FC6-96F3B9D851E3";
name = "Nov 16 16, 10:44.background";
width = 500;
},
{
associatedMasterId = "924B7471-43FB-4CAD-AF7E-45215B64D997";
layerId = "F736BE4E-8732-49DC-BAE9-28EB012CC496";
name = "Nov 16 16, 10:45";
width = 500;
},
{
associatedMasterId = "924B7471-43FB-4CAD-AF7E-45215B64D997";
layerId = "63598D38-FE50-4F7E-9E2E-A95C5D7DB1FB";
name = "Nov 16 16, 10:45.background";
width = 500;
},
{
associatedMasterId = "924B7471-43FB-4CAD-AF7E-45215B64D997";
layerId = "522368A9-EFD8-45C5-AD13-88AEAE51F40E";
name = "Light May 21 13, 18:00";
width = 500;
}
);
},
{
glyphname = Oslashacute.rvrn;
lastChange = "2024-09-05 12:38:30 +0000";
layers = (
{
layerId = "DB82AE46-9E91-4728-8B1E-D34291E5A7BF";
shapes = (
{
closed = 1;
nodes = (
(433,653,l),
(495,610,l),
(549,726,l),
(483,760,l)
);
},
{
closed = 1;
nodes = (
(114,-28,l),
(179,-63,l),
(232,51,l),
(167,85,l)
);
},
{
ref = O;
},
{
pos = (567,197);
ref = acutecomb;
}
);
width = 668;
},
{
layerId = "E21536AE-9819-4FE7-8A20-8865FE3C0515";
shapes = (
{
closed = 1;
nodes = (
(456,659,l),
(482,659,l),
(516,731,l),
(495,741,l)
);
},
{
closed = 1;
nodes = (
(128,-41,l),
(149,-51,l),
(192,40,l),
(166,40,l)
);
},
{
ref = O;
},
{
pos = (544,186);
ref = acutecomb;
}
);
width = 662;
},
{
layerId = "924B7471-43FB-4CAD-AF7E-45215B64D997";
shapes = (
{
closed = 1;
nodes = (
(453,653,l),
(585,595,l),
(639,711,l),
(503,760,l)
);
},
{
closed = 1;
nodes = (
(84,-18,l),
(219,-68,l),
(272,46,l),
(137,95,l)
);
},
{
ref = O;
},
{
pos = (610,209);
ref = acutecomb;
}
);
width = 707;
}
);
},
{
glyphname = a;
kernLeft = a;
kernRight = a;
lastChange = "2024-09-05 12:38:30 +0000";
layers = (
{
anchors = (
{
name = bottom;
pos = (263,-12);
},
{
name = ogonek;
pos = (473,0);
},
{
name = top;
pos = (274,554);
}
);
layerId = "DB82AE46-9E91-4728-8B1E-D34291E5A7BF";
shapes = (
{
closed = 1;
nodes = (
(235,499,o),
(140,488,o),
(73,477,c),
(81,414,l),
(155,421,o),
(239,427,o),
(290,427,cs),
(367,427,o),
(389,403,o),
(389,343,cs),
(389,117,l),
(395,106,l),
(408,0,l),
(475,0,l),
(475,343,ls),
(475,461,o),
(416,499,o),
(308,499,cs)
);
},
{
closed = 1;
nodes = (
(186,300,ls),
(101,300,o),
(51,256,o),
(51,180,cs),
(51,127,ls),
(51,39,o),
(110,-9,o),
(197,-9,cs),
(303,-9,o),
(386,62,o),
(415,100,c),
(415,163,l),
(355,95,o),
(270,63,o),
(214,64,cs),
(161,64,o),
(138,86,o),
(138,137,cs),
(138,168,ls),
(138,209,o),
(154,233,o),
(201,235,cs),
(434,236,l),
(435,300,l)
);
}
);
width = 548.94118;
},
{
anchors = (
{
name = bottom;
pos = (259,-12);
},
{
name = ogonek;
pos = (447,0);
},
{
name = top;
pos = (267,558);
}
);
layerId = "E21536AE-9819-4FE7-8A20-8865FE3C0515";
shapes = (
{
closed = 1;
nodes = (
(214,492,o),
(149,480,o),
(85,471,c),
(88,453,l),
(159,462,o),
(241,469,o),
(313,469,cs),
(398,469,o),
(423,419,o),
(423,358,cs),
(423,112,l),
(423,106,l),
(429,0,l),
(447,0,l),
(447,358,ls),
(447,454,o),
(396,492,o),
(314,492,cs)
);
},
{
closed = 1;
nodes = (
(181,290,ls),
(108,290,o),
(66,249,o),
(66,177,cs),
(66,115,ls),
(66,37,o),
(112,-6,o),
(191,-6,cs),
(286,-6,o),
(390,55,o),
(428,97,c),
(428,122,l),
(374,67,o),
(269,16,o),
(191,18,cs),
(125,19,o),
(91,52,o),
(91,115,cs),
(91,177,ls),
(91,234,o),
(122,265,o),
(181,266,cs),
(426,270,l),
(427,290,l)
);
}
);
width = 538;
},
{
anchors = (
{
name = bottom;
pos = (291,-12);
},
{
name = ogonek;
pos = (552,0);
},
{
name = top;
pos = (303,565);
}
);
layerId = "924B7471-43FB-4CAD-AF7E-45215B64D997";
shapes = (
{
closed = 1;
nodes = (
(257,514,o),
(124,503,o),
(48,489,c),
(67,356,l),
(152,360,o),
(231,361,o),
(283,361,cs),
(327,361,o),
(341,346,o),
(342,311,cs),
(342,127,l),
(356,107,l),
(385,0,l),
(552,0,l),
(552,310,ls),
(552,466,o),
(474,514,o),
(333,514,cs)
);
},
{
closed = 1;
nodes = (
(186,307,ls),
(84,307,o),
(21,258,o),
(21,178,cs),
(21,128,ls),
(21,34,o),
(100,-14,o),
(193,-14,cs),
(332,-14,o),
(389,97,o),
(408,142,c),
(408,206,l),
(374,168,o),
(314,128,o),
(267,128,cs),
(239,128,o),
(225,141,o),
(225,159,cs),
(225,175,ls),
(225,193,o),
(238,206,o),
(263,206,cs),
(470,206,l),
(471,307,l)
);
}
);
width = 590;
},
{
associatedMasterId = "924B7471-43FB-4CAD-AF7E-45215B64D997";
layerId = "758B598C-C030-4D0F-AC20-5B1576654C8A";
name = "(null) Apr 26 13, 12:09";
shapes = (
{
closed = 1;
nodes = (
(216,181,ls),
(216,197,o),
(214,223,o),
(246,226,cs),
(298,231,l),
(298,171,l),
(298,171,o),
(299,138,o),
(258,138,cs),
(239,138,o),
(216,134,o),
(216,175,cs)
);
},
{
closed = 1;
nodes = (
(22,143,ls),
(22,87,o),
(60,-1,o),
(186,-6,cs),
(259,-9,o),
(289,33,o),
(298,54,c),
(336,0,l),
(492,0,l),
(492,357,l),
(492,506,o),
(408,541,o),
(268,541,cs),
(169,541,o),
(109,534,o),
(40,501,c),
(40,388,l),
(40,388,o),
(211,399,o),
(236,399,cs),
(276,399,o),
(298,400,o),
(298,347,c),
(299,346,o),
(298,340,o),
(298,340,c),
(298,339,o),
(196,340,o),
(196,340,cs),
(57,340,o),
(22,259,o),
(22,184,cs)
);
}
);
width = 600;
}
);
unicode = 97;
},
{
glyphname = aringacute;
kernLeft = a;
kernRight = a;
lastChange = "2024-09-05 12:38:30 +0000";
layers = (
{
layerId = "DB82AE46-9E91-4728-8B1E-D34291E5A7BF";
shapes = (
{
closed = 1;
nodes = (
(192,791,l),
(218,754,l),
(384,846,l),
(339,909,l)
);
},
{
ref = a;
},
{
pos = (123,-11);
ref = ring;
}
);
userData = {
com.schriftgestaltung.componentsAlignment = (
-1,
-1
);
};
width = 548.94118;
},
{
layerId = "E21536AE-9819-4FE7-8A20-8865FE3C0515";
shapes = (
{
closed = 1;
nodes = (
(220,764,l),
(230,750,l),
(375,844,l),
(362,863,l)
);
},
{
ref = a;
},
{
pos = (121,-6);
ref = ring;
}
);
width = 538;
},
{
layerId = "924B7471-43FB-4CAD-AF7E-45215B64D997";
shapes = (
{
closed = 1;
nodes = (
(120,871,l),
(177,785,l),
(432,888,l),
(353,1021,l)
);
},
{
ref = a;
},
{
pos = (144,13);
ref = ring;
}
);
width = 590;
}
);
unicode = 507;
},
{
glyphname = ae;
kernLeft = a;
kernRight = ae;
lastChange = "2024-09-05 12:38:30 +0000";
layers = (
{
anchors = (
{
name = top;
pos = (453,554);
}
);
layerId = "DB82AE46-9E91-4728-8B1E-D34291E5A7BF";
shapes = (
{
closed = 1;
nodes = (
(455,499,o),
(389,436,o),
(389,245,cs),
(389,58,o),
(454,-12,o),
(621,-12,cs),
(677,-12,o),
(765,-4,o),
(810,15,c),
(802,72,l),
(751,65,o),
(685,60,o),
(632,60,cs),
(520,60,o),
(477,93,o),
(477,250,cs),
(477,388,o),
(510,427,o),
(616,427,cs),
(703,427,o),
(736,401,o),
(736,340,cs),
(737,301,o),
(724,268,o),
(673,268,cs),
(421,268,l),
(421,202,l),
(695,202,ls),
(783,202,o),
(822,250,o),
(822,340,cs),
(821,445,o),
(759,499,o),
(612,499,cs)
);
},
{
closed = 1;
nodes = (
(186,300,ls),
(101,300,o),
(51,256,o),
(51,180,cs),
(51,127,ls),
(51,39,o),
(110,-9,o),
(197,-9,cs),
(305,-9,o),
(391,63,o),
(420,103,c),
(420,166,l),
(359,96,o),
(271,63,o),
(214,64,cs),
(161,64,o),
(138,86,o),
(138,137,cs),
(138,168,ls),
(138,209,o),
(154,233,o),
(201,235,cs),
(434,236,l),
(435,300,l)
);
},
{
closed = 1;
nodes = (
(235,499,o),
(140,488,o),
(73,477,c),
(81,414,l),
(155,421,o),
(239,427,o),
(290,427,cs),
(367,427,o),
(389,403,o),
(389,343,cs),
(389,241,l),
(475,241,l),
(475,343,ls),
(475,461,o),
(416,499,o),
(308,499,cs)
);
}
);
width = 871.24706;
},
{
anchors = (
{
name = top;
pos = (467,558);
}
);
layerId = "E21536AE-9819-4FE7-8A20-8865FE3C0515";
shapes = (
{
closed = 1;
nodes = (
(481,492,o),
(423,426,o),
(423,242,cs),
(423,59,o),
(485,-12,o),
(637,-12,cs),
(689,-12,o),
(775,-4,o),
(807,6,c),
(803,24,l),
(766,18,o),
(705,11,o),
(640,11,cs),
(506,11,o),
(448,70,o),
(448,243,cs),
(448,409,o),
(496,469,o),
(630,469,cs),
(737,469,o),
(791,431,o),
(793,354,cs),
(795,277,o),
(763,249,o),
(675,249,cs),
(437,249,l),
(437,227,l),
(675,227,ls),
(780,227,o),
(820,261,o),
(818,356,cs),
(816,447,o),
(754,492,o),
(629,492,cs)
);
},
{
closed = 1;
nodes = (
(181,290,ls),
(108,290,o),
(66,249,o),
(66,177,cs),
(66,115,ls),
(66,37,o),
(112,-6,o),
(191,-6,cs),
(294,-6,o),
(406,61,o),
(448,107,c),
(448,132,l),
(390,72,o),
(275,16,o),
(191,18,cs),
(125,19,o),
(91,52,o),
(91,115,cs),
(91,177,ls),
(91,234,o),
(122,265,o),
(181,266,cs),
(426,270,l),
(427,290,l)
);
},
{
closed = 1;
nodes = (
(214,492,o),
(149,480,o),
(85,471,c),
(88,453,l),
(159,462,o),
(241,469,o),
(313,469,cs),
(398,469,o),
(423,419,o),
(423,358,cs),
(423,224,l),
(447,225,l),
(447,358,ls),
(447,454,o),
(396,492,o),
(314,492,cs)
);
}
);
width = 880;
},
{
anchors = (
{
name = top;
pos = (462,565);
}
);
layerId = "924B7471-43FB-4CAD-AF7E-45215B64D997";
shapes = (
{
closed = 1;
nodes = (
(406,514,o),
(331,443,o),
(331,246,cs),
(331,76,o),
(406,-12,o),
(611,-12,cs),
(700,-12,o),
(781,-2,o),
(851,34,c),
(832,160,l),
(747,151,o),
(671,149,o),
(634,149,cs),
(554,149,o),
(542,177,o),
(542,269,cs),
(542,368,o),
(554,380,o),
(616,379,cs),
(650,379,o),
(664,373,o),
(664,341,cs),
(664,307,o),
(657,303,o),
(613,303,cs),
(413,303,l),
(413,204,l),
(672,204,ls),
(819,204,o),
(866,243,o),
(865,336,cs),
(864,453,o),
(795,514,o),
(610,514,cs)
);
},
{
closed = 1;
nodes = (
(182,304,ls),
(83,304,o),
(21,255,o),
(21,178,cs),
(21,128,ls),
(21,34,o),
(98,-14,o),
(189,-14,cs),
(333,-14,o),
(389,90,o),
(408,132,c),
(398,206,l),
(366,168,o),
(309,128,o),
(264,128,cs),
(238,128,o),
(225,141,o),
(225,159,cs),
(225,175,ls),
(225,193,o),
(237,206,o),
(261,206,cs),
(461,204,l),
(462,304,l)
);
},
{
closed = 1;
nodes = (
(253,514,o),
(121,503,o),
(47,489,c),
(66,356,l),
(149,360,o),
(226,361,o),
(277,361,cs),
(317,361,o),
(331,346,o),
(331,311,cs),
(331,224,l),
(542,224,l),
(542,310,ls),
(542,466,o),
(466,514,o),
(327,514,cs)
);
}
);
width = 886;
}
);
unicode = 230;
},
{
glyphname = b;
kernLeft = b;
kernRight = b;
lastChange = "2024-09-05 12:38:30 +0000";
layers = (
{
layerId = "DB82AE46-9E91-4728-8B1E-D34291E5A7BF";
shapes = (
{
closed = 1;
nodes = (
(271,499,o),
(204,466,o),
(145,402,c),
(151,345,l),
(213,394,o),
(257,425,o),
(310,425,cs),
(404,425,o),
(427,379,o),
(428,245,cs),
(427,107,o),
(392,61,o),
(298,60,cs),
(251,59,o),
(197,65,o),
(144,81,c),
(76,23,l),
(141,0,o),
(232,-12,o),
(300,-12,cs),
(467,-12,o),
(516,78,o),
(516,245,cs),
(516,428,o),
(460,499,o),
(340,499,cs)
);
},
{
closed = 1;
nodes = (
(76,700,l),
(76,23,l),
(161,19,l),
(160,394,l),
(152,408,l),
(160,444,o),
(161,476,o),
(161,518,cs),
(161,700,l)
);
}
);
width = 570.4;
},
{
background = {
shapes = (
{
closed = 1;
nodes = (
(248,492,o),
(184,453,o),
(113,390,c),
(113,367,l),
(195,434,o),
(250,469,o),
(314,469,cs),
(421,469,o),
(463,408,o),
(463,240,cs),
(463,72,o),
(415,11,o),
(294,11,cs),
(236,11,o),
(183,17,o),
(113,37,c),
(92,19,l),
(163,0,o),
(227,-12,o),
(294,-12,cs),
(434,-12,o),
(488,58,o),
(488,240,cs),
(488,422,o),
(440,492,o),
(314,492,cs)
);
},
{
closed = 1;
nodes = (
(92,700,l),
(92,19,l),
(116,19,l),
(116,374,l),
(113,390,l),
(117,421,o),
(116,444,o),
(116,483,cs),
(116,700,l)
);
}
);
};
layerId = "E21536AE-9819-4FE7-8A20-8865FE3C0515";
shapes = (
{
closed = 1;
nodes = (
(248,492,o),
(184,453,o),
(113,390,c),
(113,367,l),
(195,434,o),
(250,469,o),
(314,469,cs),
(421,469,o),
(463,408,o),
(463,240,cs),
(463,72,o),
(415,11,o),
(294,11,cs),
(236,11,o),
(183,17,o),
(113,37,c),
(92,19,l),
(163,0,o),
(227,-12,o),
(294,-12,cs),
(434,-12,o),
(488,58,o),
(488,240,cs),
(488,422,o),
(440,492,o),
(314,492,cs)
);
},
{
closed = 1;
nodes = (
(92,700,l),
(92,19,l),
(116,19,l),
(116,374,l),
(113,390,l),
(117,421,o),
(116,444,o),
(116,483,cs),
(116,700,l)
);
}
);
width = 558;
},
{
background = {
shapes = (
{
ref = n;
}
);
};
layerId = "924B7471-43FB-4CAD-AF7E-45215B64D997";
shapes = (
{
closed = 1;
nodes = (
(326,514,o),
(258,465,o),
(217,418,c),
(232,336,l),
(258,346,o),
(279,357,o),
(314,357,cs),
(362,357,o),
(375,340,o),
(375,255,cs),
(375,153,o),
(361,132,o),
(318,129,cs),
(290,127,o),
(229,134,o),
(210,143,c),
(42,30,l),
(100,0,o),
(249,-12,o),
(322,-12,cs),
(550,-12,o),
(591,121,o),
(591,256,cs),
(591,439,o),
(542,514,o),
(402,514,cs)
);
},
{
closed = 1;
nodes = (
(42,700,l),
(42,30,l),
(252,20,l),
(252,406,l),
(231,418,l),
(248,461,o),
(255,513,o),
(254,561,cs),
(252,700,l)
);
}
);
width = 618;
}
);
unicode = 98;
},
{
glyphname = c;
kernLeft = c;
kernRight = c;
lastChange = "2024-09-05 12:38:30 +0000";
layers = (
{
anchors = (
{
name = bottom;
pos = (278,-12);
},
{
name = top;
pos = (268,554);
}
);
layerId = "DB82AE46-9E91-4728-8B1E-D34291E5A7BF";
shapes = (
{
closed = 1;
nodes = (
(117,499,o),
(54,432,o),
(54,244,cs),
(54,56,o),
(117,-12,o),
(285,-12,cs),
(342,-12,o),
(403,-4,o),
(452,13,c),
(443,70,l),
(393,62,o),
(329,60,o),
(300,60,cs),
(184,60,o),
(144,101,o),
(144,244,cs),
(144,386,o),
(184,427,o),
(300,427,cs),
(334,427,o),
(388,425,o),
(432,421,c),
(443,476,l),
(395,494,o),
(329,499,o),
(286,499,cs)
);
}
);
width = 488.94118;
},
{
anchors = (
{
name = bottom;
pos = (286,-12);
},
{
name = top;
pos = (273,558);
}
);
guides = (
{
angle = 290;
pos = (314,195);
},
{
angle = 70;
pos = (308,271);
},
{
angle = 90;
pos = (384,224);
}
);
layerId = "E21536AE-9819-4FE7-8A20-8865FE3C0515";
shapes = (
{
closed = 1;
nodes = (
(129,492,o),
(69,425,o),
(69,240,cs),
(69,55,o),
(129,-12,o),
(289,-12,cs),
(337,-12,o),
(390,-5,o),
(434,5,c),
(430,23,l),
(386,14,o),
(320,11,o),
(292,11,cs),
(147,11,o),
(94,63,o),
(94,240,cs),
(94,417,o),
(147,469,o),
(292,469,cs),
(324,469,o),
(382,466,o),
(417,457,c),
(423,475,l),
(381,488,o),
(324,492,o),
(288,492,cs)
);
}
);
width = 478;
},
{
anchors = (
{
name = bottom;
pos = (276,-17);
},
{
name = top;
pos = (292,557);
}
);
layerId = "924B7471-43FB-4CAD-AF7E-45215B64D997";
shapes = (
{
closed = 1;
nodes = (
(97,514,o),
(26,444,o),
(26,251,cs),
(26,58,o),
(96,-12,o),
(292,-12,cs),
(369,-12,o),
(451,-1,o),
(510,30,c),
(491,161,l),
(428,154,o),
(364,154,o),
(330,154,cs),
(266,154,o),
(246,173,o),
(246,251,cs),
(246,328,o),
(266,347,o),
(330,347,cs),
(372,347,o),
(418,347,o),
(482,347,c),
(503,477,l),
(443,506,o),
(355,514,o),
(294,514,cs)
);
}
);
width = 528;
}
);
unicode = 99;
},
{
glyphname = d;
kernLeft = d;
kernRight = H;
lastChange = "2024-09-05 12:38:30 +0000";
layers = (
{
anchors = (
{
name = bottom;
pos = (294,-12);
},
{
name = top;
pos = (451,706);
}
);
layerId = "DB82AE46-9E91-4728-8B1E-D34291E5A7BF";
shapes = (
{
closed = 1;
nodes = (
(115,499,o),
(56,435,o),
(56,245,cs),
(56,75,o),
(104,-12,o),
(227,-12,cs),
(306,-12,o),
(374,28,o),
(428,77,c),
(420,137,l),
(347,84,o),
(312,62,o),
(255,62,cs),
(176,62,o),
(143,102,o),
(143,246,cs),
(143,390,o),
(176,425,o),
(260,425,cs),
(314,425,o),
(357,413,o),
(420,395,c),
(425,448,l),
(367,482,o),
(304,499,o),
(240,499,cs)
);
},
{
closed = 1;
nodes = (
(409,700,l),
(409,550,ls),
(409,511,o),
(410,478,o),
(415,441,c),
(409,426,l),
(409,92,l),
(418,85,l),
(428,0,l),
(494,0,l),
(494,700,l)
);
}
);
width = 572.67059;
},
{
anchors = (
{
name = bottom;
pos = (286,-12);
},
{
name = top;
pos = (453,706);
}
);
background = {
anchors = (
{
name = bottom;
pos = (286,-12);
},
{
name = top;
pos = (453,706);
}
);
shapes = (
{
closed = 1;
nodes = (
(119,492,o),
(71,422,o),
(71,240,cs),
(71,58,o),
(119,-12,o),
(245,-12,cs),
(311,-12,o),
(373,21,o),
(444,84,c),
(446,110,l),
(364,41,o),
(309,11,o),
(245,11,cs),
(138,11,o),
(96,72,o),
(96,240,cs),
(96,408,o),
(138,469,o),
(245,469,cs),
(309,469,o),
(364,452,o),
(446,419,c),
(446,442,l),
(375,473,o),
(311,492,o),
(245,492,cs)
);
},
{
closed = 1;
nodes = (
(442,700,l),
(442,535,l),
(442,500,o),
(441,477,o),
(445,442,c),
(442,426,l),
(442,88,l),
(444,84,l),
(448,0,l),
(466,0,l),
(466,700,l)
);
}
);
};
layerId = "E21536AE-9819-4FE7-8A20-8865FE3C0515";
shapes = (
{
closed = 1;
nodes = (
(119,492,o),
(71,422,o),
(71,240,cs),
(71,58,o),
(119,-12,o),
(245,-12,cs),
(311,-12,o),
(373,21,o),
(444,84,c),
(446,110,l),
(364,41,o),
(309,11,o),
(245,11,cs),
(138,11,o),
(96,72,o),
(96,240,cs),
(96,408,o),
(138,469,o),
(245,469,cs),
(309,469,o),
(364,452,o),
(446,419,c),
(446,442,l),
(375,473,o),
(311,492,o),
(245,492,cs)
);
},
{
closed = 1;
nodes = (
(442,700,l),
(442,535,l),
(442,500,o),
(441,477,o),
(445,442,c),
(442,426,l),
(442,88,l),
(444,84,l),
(448,0,l),
(466,0,l),
(466,700,l)
);
}
);
width = 561;
},
{
anchors = (
{
name = bottom;
pos = (321,-17);
},
{
name = top;
pos = (481,690);
}
);
layerId = "924B7471-43FB-4CAD-AF7E-45215B64D997";
shapes = (
{
closed = 1;
nodes = (
(94,514,o),
(28,461,o),
(28,256,cs),
(28,86,o),
(78,-12,o),
(209,-12,cs),
(316,-12,o),
(373,35,o),
(400,96,c),
(387,182,l),
(361,167,o),
(343,156,o),
(299,156,cs),
(260,156,o),
(244,166,o),
(244,258,cs),
(244,365,o),
(260,377,o),
(302,377,cs),
(343,377,o),
(363,364,o),
(390,356,c),
(405,438,l),
(364,494,o),
(294,514,o),
(218,514,cs)
);
},
{
closed = 1;
nodes = (
(367,700,l),
(367,581,ls),
(367,533,o),
(370,481,o),
(373,438,c),
(367,426,l),
(367,112,l),
(390,96,l),
(410,0,l),
(577,0,l),
(577,700,l)
);
}
);
width = 620;
}
);
unicode = 100;
},
{
glyphname = dcroat;
kernLeft = d;
kernRight = H;
lastChange = "2024-09-05 12:38:30 +0000";
layers = (
{
layerId = "DB82AE46-9E91-4728-8B1E-D34291E5A7BF";
shapes = (
{
closed = 1;
nodes = (
(256,622,l),
(256,573,l),
(562,573,l),
(562,622,l)
);
},
{
ref = d;
}
);
userData = {
com.schriftgestaltung.componentsAlignment = (
-1
);
};
width = 567.58824;
},
{
layerId = "E21536AE-9819-4FE7-8A20-8865FE3C0515";
shapes = (
{
closed = 1;
nodes = (
(265,610,l),
(265,590,l),
(540,590,l),
(540,610,l)
);
},
{
ref = d;
}
);
width = 553;
},
{
layerId = "924B7471-43FB-4CAD-AF7E-45215B64D997";
shapes = (
{
closed = 1;
nodes = (
(260,631,l),
(260,547,l),
(631,547,l),
(631,631,l)
);
},
{
ref = d;
}
);
width = 617;
}
);
unicode = 273;
},
{
glyphname = eth;
kernLeft = eth;
kernRight = eth;
lastChange = "2024-09-05 12:38:30 +0000";
layers = (
{
layerId = "DB82AE46-9E91-4728-8B1E-D34291E5A7BF";
shapes = (
{
closed = 1;
nodes = (
(119,636,l),
(253,641,o),
(407,596,o),
(407,287,cs),
(407,140,o),
(391,59,o),
(276,59,cs),
(185,59,o),
(145,101,o),
(145,219,cs),
(145,319,o),
(175,377,o),
(273,377,cs),
(331,377,o),
(379,367,o),
(434,340,c),
(441,377,l),
(382,435,o),
(314,448,o),
(260,448,cs),
(109,448,o),
(55,365,o),
(55,219,cs),
(55,57,o),
(125,-13,o),
(275,-13,cs),
(457,-13,o),
(495,107,o),
(495,283,cs),
(495,615,o),
(310,707,o),
(129,698,c)
);
},
{
closed = 1;
nodes = (
(208,554,l),
(239,516,l),
(443,673,l),
(413,712,l)
);
}
);
width = 558.94118;
},
{
layerId = "E21536AE-9819-4FE7-8A20-8865FE3C0515";
shapes = (
{
closed = 1;
nodes = (
(116,680,l),
(218,680,o),
(443,652,o),
(443,286,cs),
(443,122,o),
(422,10,o),
(270,10,cs),
(153,10,o),
(95,67,o),
(95,220,cs),
(95,337,o),
(133,424,o),
(264,424,cs),
(327,424,o),
(378,411,o),
(450,363,c),
(457,378,l),
(384,430,o),
(326,446,o),
(269,446,cs),
(122,446,o),
(70,358,o),
(70,221,cs),
(70,57,o),
(134,-12,o),
(270,-12,cs),
(452,-12,o),
(467,130,o),
(467,279,cs),
(467,655,o),
(247,700,o),
(122,698,c)
);
},
{
closed = 1;
nodes = (
(223,566,l),
(234,549,l),
(425,681,l),
(414,698,l)
);
}
);
width = 548;
},
{
layerId = "924B7471-43FB-4CAD-AF7E-45215B64D997";
shapes = (
{
closed = 1;
nodes = (
(129,568,l),
(332,583,o),
(356,500,o),
(356,290,cs),
(356,155,o),
(349,130,o),
(299,130,cs),
(256,130,o),
(247,147,o),
(247,218,cs),
(247,305,o),
(265,311,o),
(302,311,cs),
(353,311,o),
(397,303,o),
(423,292,c),
(431,376,l),
(396,446,o),
(304,453,o),
(252,453,cs),
(87,453,o),
(27,378,o),
(27,214,cs),
(27,58,o),
(112,-14,o),
(297,-14,cs),
(489,-14,o),
(576,60,o),
(576,291,cs),
(576,533,o),
(447,719,o),
(146,698,c)
);
},
{
closed = 1;
nodes = (
(190,524,l),
(244,463,l),
(485,673,l),
(432,734,l)
);
}
);
width = 604;
}
);
unicode = 240;
},
{
glyphname = e;
kernLeft = c;
kernRight = ae;
lastChange = "2024-09-05 12:38:30 +0000";
layers = (
{
anchors = (
{
name = bottom;
pos = (270,-9);
},
{
name = ogonek;
pos = (476,16);
},
{
name = top;
pos = (281,554);
}
);
layerId = "DB82AE46-9E91-4728-8B1E-D34291E5A7BF";
shapes = (
{
closed = 1;
nodes = (
(121,499,o),
(54,436,o),
(54,245,cs),
(54,58,o),
(119,-12,o),
(287,-12,cs),
(343,-12,o),
(430,-4,o),
(476,15,c),
(467,72,l),
(417,65,o),
(350,60,o),
(298,60,cs),
(186,60,o),
(143,93,o),
(143,250,cs),
(143,388,o),
(176,427,o),
(282,427,cs),
(369,427,o),
(401,402,o),
(402,340,cs),
(402,304,o),
(393,268,o),
(349,268,cs),
(87,268,l),
(87,202,l),
(371,202,ls),
(452,202,o),
(488,253,o),
(487,340,cs),
(487,445,o),
(425,499,o),
(278,499,cs)
);
}
);
width = 537.21176;
},
{
anchors = (
{
name = bottom;
pos = (263,0);
},
{
name = ogonek;
pos = (453,6);
},
{
name = top;
pos = (277,558);
}
);
layerId = "E21536AE-9819-4FE7-8A20-8865FE3C0515";
shapes = (
{
closed = 1;
nodes = (
(127,492,o),
(69,426,o),
(69,242,cs),
(69,59,o),
(131,-12,o),
(283,-12,cs),
(335,-12,o),
(421,-4,o),
(453,6,c),
(449,24,l),
(412,18,o),
(351,11,o),
(286,11,cs),
(152,11,o),
(94,70,o),
(94,243,cs),
(94,409,o),
(142,469,o),
(276,469,cs),
(383,469,o),
(437,434,o),
(439,354,cs),
(441,286,o),
(420,249,o),
(361,249,cs),
(83,249,l),
(83,227,l),
(361,227,ls),
(439,227,o),
(466,271,o),
(464,356,cs),
(462,447,o),
(400,492,o),
(275,492,cs)
);
}
);
width = 527;
},
{
anchors = (
{
name = bottom;
pos = (313,-12);
},
{
name = ogonek;
pos = (555,34);
},
{
name = top;
pos = (312,557);
}
);
layerId = "924B7471-43FB-4CAD-AF7E-45215B64D997";
shapes = (
{
closed = 1;
nodes = (
(102,514,o),
(25,443,o),
(25,246,cs),
(25,76,o),
(101,-12,o),
(310,-12,cs),
(400,-12,o),
(484,-2,o),
(555,34,c),
(536,160,l),
(450,151,o),
(373,149,o),
(333,149,cs),
(258,149,o),
(245,177,o),
(245,269,cs),
(245,368,o),
(257,380,o),
(315,379,cs),
(353,379,o),
(368,373,o),
(368,341,cs),
(368,307,o),
(361,303,o),
(316,303,cs),
(106,303,l),
(106,204,l),
(375,204,ls),
(522,204,o),
(570,243,o),
(569,336,cs),
(568,453,o),
(497,514,o),
(309,514,cs)
);
}
);
width = 590;
}
);
unicode = 101;
},
{
glyphname = schwa;
kernLeft = schwa;
kernRight = schwa;
lastChange = "2024-09-05 12:38:30 +0000";
layers = (
{
layerId = "DB82AE46-9E91-4728-8B1E-D34291E5A7BF";
shapes = (
{
closed = 1;
nodes = (
(416,-12,o),
(483,51,o),
(483,242,cs),
(483,430,o),
(418,499,o),
(250,499,cs),
(194,499,o),
(106,491,o),
(61,472,c),
(70,415,l),
(120,422,o),
(187,427,o),
(239,427,cs),
(351,427,o),
(394,394,o),
(394,238,cs),
(394,99,o),
(361,60,o),
(255,60,cs),
(168,60,o),
(136,85,o),
(135,147,cs),
(135,184,o),
(144,219,o),
(188,219,cs),
(450,219,l),
(450,285,l),
(166,285,ls),
(85,285,o),
(49,235,o),
(50,147,cs),
(50,42,o),
(112,-12,o),
(259,-12,cs)
);
}
);
width = 536.94118;
},
{
background = {
shapes = (
{
closed = 1;
nodes = (
(399,-12,o),
(457,54,o),
(457,238,cs),
(457,421,o),
(395,492,o),
(243,492,cs),
(191,492,o),
(105,484,o),
(73,474,c),
(77,456,l),
(114,462,o),
(175,469,o),
(240,469,cs),
(374,469,o),
(432,410,o),
(432,237,cs),
(432,71,o),
(384,11,o),
(250,11,cs),
(143,11,o),
(89,46,o),
(87,126,cs),
(85,194,o),
(106,231,o),
(165,231,cs),
(443,231,l),
(443,253,l),
(165,253,ls),
(87,253,o),
(60,209,o),
(62,124,cs),
(64,33,o),
(126,-12,o),
(251,-12,cs)
);
}
);
};
layerId = "E21536AE-9819-4FE7-8A20-8865FE3C0515";
shapes = (
{
closed = 1;
nodes = (
(399,-12,o),
(457,54,o),
(457,238,cs),
(457,421,o),
(395,492,o),
(243,492,cs),
(191,492,o),
(105,484,o),
(73,474,c),
(77,456,l),
(114,462,o),
(175,469,o),
(240,469,cs),
(374,469,o),
(432,410,o),
(432,237,cs),
(432,71,o),
(384,11,o),
(250,11,cs),
(143,11,o),
(89,46,o),
(87,126,cs),
(85,194,o),
(106,231,o),
(165,231,cs),
(443,231,l),
(443,253,l),
(165,253,ls),
(87,253,o),
(60,209,o),
(62,124,cs),
(64,33,o),
(126,-12,o),
(251,-12,cs)
);
}
);
width = 526;
},
{
layerId = "924B7471-43FB-4CAD-AF7E-45215B64D997";
shapes = (
{
closed = 1;
nodes = (
(488,-12,o),
(565,59,o),
(565,256,cs),
(565,426,o),
(489,514,o),
(280,514,cs),
(190,514,o),
(106,504,o),
(35,468,c),
(54,342,l),
(140,351,o),
(217,353,o),
(257,353,cs),
(332,353,o),
(345,325,o),
(345,233,cs),
(345,134,o),
(333,122,o),
(275,123,cs),
(237,123,o),
(222,129,o),
(222,161,cs),
(222,195,o),
(229,199,o),
(274,199,cs),
(484,199,l),
(484,298,l),
(215,298,ls),
(68,298,o),
(20,259,o),
(21,166,cs),
(22,49,o),
(93,-12,o),
(281,-12,cs)
);
}
);
width = 590;
}
);
unicode = 601;
},
{
glyphname = f;
kernLeft = f;
kernRight = f;
lastChange = "2024-09-05 12:38:30 +0000";
layers = (
{
layerId = "DB82AE46-9E91-4728-8B1E-D34291E5A7BF";
shapes = (
{
closed = 1;
nodes = (
(154,717,o),
(116,665,o),
(116,574,cs),
(116,0,l),
(201,0,l),
(201,565,ls),
(201,624,o),
(224,647,o),
(288,647,cs),
(388,647,l),
(395,710,l),
(357,715,o),
(290,717,o),
(258,717,cs)
);
},
{
closed = 1;
nodes = (
(121,487,l),
(28,482,l),
(28,420,l),
(357,420,l),
(357,487,l)
);
}
);
width = 380.25882;
},
{
layerId = "E21536AE-9819-4FE7-8A20-8865FE3C0515";
shapes = (
{
closed = 1;
nodes = (
(155,714,o),
(122,669,o),
(122,581,cs),
(122,0,l),
(146,0,l),
(146,581,ls),
(146,663,o),
(175,692,o),
(255,692,cs),
(365,692,l),
(365,710,l),
(331,713,o),
(275,714,o),
(247,714,cs)
);
},
{
closed = 1;
nodes = (
(128,480,l),
(35,475,l),
(35,458,l),
(324,458,l),
(324,480,l)
);
}
);
width = 354;
},
{
layerId = "924B7471-43FB-4CAD-AF7E-45215B64D997";
shapes = (
{
closed = 1;
nodes = (
(139,724,o),
(92,655,o),
(92,561,cs),
(92,0,l),
(303,0,l),
(303,532,ls),
(303,571,o),
(314,584,o),
(351,584,cs),
(439,584,l),
(459,710,l),
(409,720,o),
(316,724,o),
(276,724,cs)
);
},
{
closed = 1;
nodes = (
(93,500,l),
(8,495,l),
(8,374,l),
(422,374,l),
(422,500,l)
);
}
);
width = 427;
}
);
unicode = 102;
},
{
glyphname = g;
kernLeft = g;
kernRight = g;
lastChange = "2024-09-05 12:38:30 +0000";
layers = (
{
anchors = (
{
name = top;
pos = (272,554);
}
);
layerId = "DB82AE46-9E91-4728-8B1E-D34291E5A7BF";
shapes = (
{
closed = 1;
nodes = (
(114,499,o),
(62,453,o),
(62,343,cs),
(62,237,o),
(114,189,o),
(270,189,cs),
(426,189,o),
(479,237,o),
(479,344,cs),
(479,453,o),
(427,499,o),
(271,499,cs)
);
},
{
closed = 1;
nodes = (
(368,434,o),
(400,409,o),
(400,344,cs),
(400,280,o),
(368,254,o),
(270,254,cs),
(173,254,o),
(140,280,o),
(140,344,cs),
(140,409,o),
(173,434,o),
(270,434,cs)
);
},
{
closed = 1;
nodes = (
(372,487,l),
(407,430,l),
(531,440,l),
(536,487,l)
);
},
{
closed = 1;
nodes = (
(69,187,o),
(61,62,o),
(166,47,cs),
(341,23,ls),
(410,12,o),
(425,2,o),
(425,-47,cs),
(425,-114,o),
(393,-130,o),
(275,-130,cs),
(156,-130,o),
(124,-116,o),
(124,-47,cs),
(124,-2,o),
(143,23,o),
(184,53,cs),
(233,90,l),
(194,104,l),
(134,71,ls),
(68,38,o),
(41,9,o),
(41,-54,cs),
(41,-165,o),
(100,-202,o),
(276,-202,cs),
(450,-202,o),
(508,-165,o),
(508,-51,cs),
(508,30,o),
(477,72,o),
(385,86,cs),
(203,115,ls),
(141,124,o),
(148,184,o),
(182,214,c),
(133,221,l)
);
}
);
width = 558.12941;
},
{
anchors = (
{
name = top;
pos = (270,558);
}
);
layerId = "E21536AE-9819-4FE7-8A20-8865FE3C0515";
shapes = (
{
closed = 1;
nodes = (
(131,492,o),
(77,441,o),
(77,343,cs),
(77,244,o),
(132,196,o),
(269,196,cs),
(406,196,o),
(459,244,o),
(459,343,cs),
(459,441,o),
(407,492,o),
(269,492,cs)
);
},
{
closed = 1;
nodes = (
(392,470,o),
(435,427,o),
(435,343,cs),
(435,258,o),
(391,218,o),
(269,218,cs),
(147,218,o),
(101,258,o),
(101,343,cs),
(101,427,o),
(146,470,o),
(269,470,cs)
);
},
{
closed = 1;
nodes = (
(360,480,l),
(395,458,l),
(513,462,l),
(516,480,l)
);
},
{
closed = 1;
nodes = (
(74,183,o),
(70,86,o),
(175,67,cs),
(374,32,ls),
(446,19,o),
(461,-10,o),
(461,-74,cs),
(461,-159,o),
(409,-189,o),
(274,-189,cs),
(133,-189,o),
(81,-159,o),
(81,-74,cs),
(81,-11,o),
(90,19,o),
(138,47,cs),
(189,78,l),
(164,85,l),
(122,62,ls),
(67,32,o),
(57,-7,o),
(57,-74,cs),
(57,-176,o),
(115,-212,o),
(274,-212,cs),
(426,-212,o),
(485,-176,o),
(485,-74,cs),
(485,2,o),
(465,38,o),
(381,53,cs),
(188,87,ls),
(93,104,o),
(102,177,o),
(156,227,c),
(136,230,l)
);
}
);
width = 545;
},
{
anchors = (
{
name = top;
pos = (292,547);
}
);
layerId = "924B7471-43FB-4CAD-AF7E-45215B64D997";
shapes = (
{
closed = 1;
nodes = (
(99,514,o),
(29,471,o),
(29,356,cs),
(29,240,o),
(98,198,o),
(287,198,cs),
(477,198,o),
(544,240,o),
(544,356,cs),
(544,471,o),
(476,514,o),
(288,514,cs)
);
},
{
closed = 1;
nodes = (
(336,399,o),
(349,391,o),
(349,356,cs),
(349,321,o),
(336,312,o),
(287,312,cs),
(238,312,o),
(224,321,o),
(224,356,cs),
(224,391,o),
(238,399,o),
(287,399,cs)
);
},
{
closed = 1;
nodes = (
(414,500,l),
(451,399,l),
(591,423,l),
(601,500,l)
);
},
{
closed = 1;
nodes = (
(37,202,o),
(23,41,o),
(173,29,cs),
(309,19,ls),
(363,15,o),
(387,13,o),
(387,-12,cs),
(387,-34,o),
(367,-39,o),
(291,-39,cs),
(222,-39,o),
(203,-33,o),
(203,-7,cs),
(203,24,o),
(220,23,o),
(281,66,cs),
(313,83,l),
(245,109,l),
(159,90,ls),
(37,61,o),
(7,23,o),
(7,-39,cs),
(7,-142,o),
(55,-181,o),
(294,-181,cs),
(497,-181,o),
(583,-155,o),
(583,-13,cs),
(583,86,o),
(537,136,o),
(423,144,cs),
(241,156,ls),
(195,159,o),
(202,204,o),
(225,209,c),
(128,226,l)
);
}
);
width = 604;
}
);
unicode = 103;
},
{
glyphname = h;
kernLeft = b;
kernRight = h;
lastChange = "2024-09-05 12:38:30 +0000";
layers = (
{
anchors = (
{
name = bottom;
pos = (299,-9);
},
{
name = center;
pos = (291,240);
},
{
name = top;
pos = (120,706);
}
);
layerId = "DB82AE46-9E91-4728-8B1E-D34291E5A7BF";
shapes = (
{
closed = 1;
nodes = (
(300,499,o),
(226,463,o),
(150,406,c),
(154,345,l),
(237,398,o),
(291,427,o),
(351,427,cs),
(401,427,o),
(420,406,o),
(420,341,cs),
(420,0,l),
(506,0,l),
(506,365,ls),
(506,453,o),
(460,499,o),
(374,499,cs)
);
},
{
closed = 1;
nodes = (
(78,700,l),
(78,0,l),
(163,0,l),
(163,379,l),
(154,394,l),
(161,423,o),
(164,463,o),
(164,507,cs),
(163,700,l)
);
}
);
width = 580.67059;
},
{
anchors = (
{
name = bottom;
pos = (288,0);
},
{
name = center;
pos = (284,240);
},
{
name = top;
pos = (105,705);
}
);
layerId = "E21536AE-9819-4FE7-8A20-8865FE3C0515";
shapes = (
{
closed = 1;
nodes = (
(274,492,o),
(198,454,o),
(115,392,c),
(115,369,l),
(209,435,o),
(271,469,o),
(344,469,cs),
(418,469,o),
(454,434,o),
(454,358,cs),
(454,0,l),
(478,0,l),
(478,361,ls),
(478,447,o),
(434,492,o),
(349,492,cs)
);
},
{
closed = 1;
nodes = (
(94,700,l),
(94,0,l),
(118,0,l),
(118,376,l),
(115,392,l),
(119,419,o),
(120,450,o),
(120,485,cs),
(118,700,l)
);
}
);
width = 569;
},
{
anchors = (
{
name = bottom;
pos = (313,-12);
},
{
name = center;
pos = (306,219);
},
{
name = top;
pos = (148,715);
}
);
layerId = "924B7471-43FB-4CAD-AF7E-45215B64D997";
shapes = (
{
closed = 1;
nodes = (
(361,514,o),
(280,480,o),
(209,409,c),
(231,318,l),
(282,335,o),
(309,337,o),
(335,337,cs),
(361,337,o),
(371,329,o),
(371,307,cs),
(371,0,l),
(581,0,l),
(581,374,l),
(581,466,o),
(530,514,o),
(433,514,cs)
);
},
{
closed = 1;
nodes = (
(43,700,l),
(43,0,l),
(253,0,l),
(253,386,l),
(233,398,l),
(244,431,o),
(254,491,o),
(254,551,cs),
(253,700,l)
);
}
);
width = 621;
}
);
unicode = 104;
},
{
glyphname = hbar;
kernLeft = b;
kernRight = h;
lastChange = "2024-09-05 12:38:30 +0000";
layers = (
{
layerId = "DB82AE46-9E91-4728-8B1E-D34291E5A7BF";
shapes = (
{
closed = 1;
nodes = (
(6,622,l),
(6,573,l),
(313,573,l),
(313,622,l)
);
},
{
pos = (4,0);
ref = h;
}
);
userData = {
com.schriftgestaltung.componentsAlignment = (
-1
);
};
width = 584.67059;
},
{
layerId = "E21536AE-9819-4FE7-8A20-8865FE3C0515";
shapes = (
{
closed = 1;
nodes = (
(13,610,l),
(13,590,l),
(288,590,l),
(288,610,l)
);
},
{
pos = (4,0);
ref = h;
}
);
width = 573;
},
{
layerId = "924B7471-43FB-4CAD-AF7E-45215B64D997";
shapes = (
{
closed = 1;
nodes = (
(-9,631,l),
(-9,547,l),
(362,547,l),
(362,631,l)
);
},
{
pos = (3,0);
ref = h;
}
);
width = 624;
}
);
unicode = 295;
},
{
glyphname = i;
kernLeft = i;
kernRight = H;
lastChange = "2024-09-05 12:38:30 +0000";
layers = (
{
anchors = (
{
name = bottom;
pos = (126,-9);
},
{
name = ogonek;
pos = (161,0);
},
{
name = top;
pos = (125,554);
}
);
layerId = "DB82AE46-9E91-4728-8B1E-D34291E5A7BF";
shapes = (
{
closed = 1;
nodes = (
(82,487,l),
(82,0,l),
(166,0,l),
(166,487,l)
);
},
{
closed = 1;
nodes = (
(104,694,ls),
(87,694,o),
(78,684,o),
(78,668,cs),
(78,611,ls),
(78,593,o),
(87,585,o),
(104,585,cs),
(144,585,ls),
(162,585,o),
(170,593,o),
(170,611,cs),
(170,668,ls),
(170,684,o),
(162,694,o),
(144,694,cs)
);
}
);
width = 248.44706;
},
{
anchors = (
{
name = bottom;
pos = (111,0);
},
{
name = ogonek;
pos = (122,0);
},
{
name = top;
pos = (109,558);
}
);
layerId = "E21536AE-9819-4FE7-8A20-8865FE3C0515";
shapes = (
{
closed = 1;
nodes = (
(98,480,l),
(98,0,l),
(122,0,l),
(122,480,l)
);
},
{
closed = 1;
nodes = (
(105,679,ls),
(97,679,o),
(93,675,o),
(93,667,cs),
(93,605,ls),
(93,597,o),
(97,593,o),
(105,593,cs),
(115,593,ls),
(123,593,o),
(127,597,o),
(127,605,cs),
(127,667,ls),
(127,675,o),
(123,679,o),
(115,679,cs)
);
}
);
width = 220;
},
{
anchors = (
{
name = bottom;
pos = (151,-12);
},
{
name = ogonek;
pos = (238,0);
},
{
name = top;
pos = (150,557);
}
);
layerId = "924B7471-43FB-4CAD-AF7E-45215B64D997";
shapes = (
{
closed = 1;
nodes = (
(47,500,l),
(47,0,l),
(256,0,l),
(256,500,l)
);
},
{
closed = 1;
nodes = (
(107,729,ls),
(66,729,o),
(46,709,o),
(46,667,cs),
(46,616,ls),
(46,574,o),
(66,554,o),
(107,554,cs),
(196,554,ls),
(237,554,o),
(257,574,o),
(257,616,cs),
(257,667,ls),
(257,709,o),
(237,729,o),
(196,729,cs)
);
}
);
width = 303;
}
);
unicode = 105;
},
{
glyphname = idotless;
kernLeft = i;
kernRight = H;
lastChange = "2024-09-05 12:38:30 +0000";
layers = (
{
anchors = (
{
name = bottom;
pos = (126,-9);
},
{
name = ogonek;
pos = (161,0);
},
{
name = top;
pos = (125,554);
}
);
layerId = "DB82AE46-9E91-4728-8B1E-D34291E5A7BF";
shapes = (
{
closed = 1;
nodes = (
(82,487,l),
(82,0,l),
(167,0,l),
(167,487,l)
);
}
);
width = 249.17647;
},
{
anchors = (
{
name = bottom;
pos = (111,0);
},
{
name = ogonek;
pos = (122,0);
},
{
name = top;
pos = (109,558);
}
);
layerId = "E21536AE-9819-4FE7-8A20-8865FE3C0515";
shapes = (
{
closed = 1;
nodes = (
(98,480,l),
(98,0,l),
(122,0,l),
(122,480,l)
);
}
);
width = 220;
},
{
anchors = (
{
name = bottom;
pos = (151,-12);
},
{
name = ogonek;
pos = (238,0);
},
{
name = top;
pos = (150,557);
}
);
layerId = "924B7471-43FB-4CAD-AF7E-45215B64D997";
shapes = (
{
closed = 1;
nodes = (
(47,500,l),
(47,0,l),
(258,0,l),
(258,500,l)
);
}
);
width = 305;
}
);
unicode = 305;
},
{
glyphname = j;
kernLeft = i;
kernRight = H;
lastChange = "2024-09-05 12:38:30 +0000";
layers = (
{
layerId = "DB82AE46-9E91-4728-8B1E-D34291E5A7BF";
shapes = (
{
closed = 1;
nodes = (
(83,487,l),
(83,-12,ls),
(83,-75,o),
(65,-119,o),
(27,-166,c),
(74,-203,l),
(132,-160,o),
(168,-90,o),
(168,-12,cs),
(168,487,l)
);
},
{
closed = 1;
nodes = (
(106,694,l),
(88,694,o),
(80,684,o),
(80,668,cs),
(80,611,l),
(80,593,o),
(88,585,o),
(106,585,cs),
(146,585,l),
(163,585,o),
(171,593,o),
(171,611,cs),
(171,668,l),
(171,684,o),
(163,694,o),
(146,694,cs)
);
}
);
width = 249.90588;
},
{
layerId = "E21536AE-9819-4FE7-8A20-8865FE3C0515";
shapes = (
{
closed = 1;
nodes = (
(98,480,l),
(98,-46,ls),
(98,-111,o),
(77,-155,o),
(43,-200,c),
(56,-210,l),
(96,-165,o),
(122,-111,o),
(122,-46,cs),
(122,480,l)
);
},
{
closed = 1;
nodes = (
(105,679,l),
(97,679,o),
(93,675,o),
(93,667,cs),
(93,605,l),
(93,597,o),
(97,593,o),
(105,593,cs),
(115,593,l),
(123,593,o),
(127,597,o),
(127,605,cs),
(127,667,l),
(127,675,o),
(123,679,o),
(115,679,cs)
);
}
);
width = 220;
},
{
layerId = "924B7471-43FB-4CAD-AF7E-45215B64D997";
shapes = (
{
closed = 1;
nodes = (
(48,500,l),
(48,58,ls),
(48,1,o),
(32,-45,o),
(-21,-98,c),
(95,-190,l),
(196,-149,o),
(257,-46,o),
(257,58,cs),
(257,500,l)
);
},
{
closed = 1;
nodes = (
(105,739,ls),
(64,739,o),
(44,719,o),
(44,677,cs),
(44,626,ls),
(44,584,o),
(64,564,o),
(105,564,cs),
(194,564,ls),
(235,564,o),
(255,584,o),
(255,626,cs),
(255,677,ls),
(255,719,o),
(235,739,o),
(194,739,cs)
);
}
);
width = 304;
}
);
unicode = 106;
},
{
glyphname = jdotless;
kernLeft = i;
kernRight = H;
lastChange = "2024-09-05 12:38:30 +0000";
layers = (
{
anchors = (
{
name = bottom;
pos = (126,-9);
},
{
name = top;
pos = (125,554);
}
);
layerId = "DB82AE46-9E91-4728-8B1E-D34291E5A7BF";
shapes = (
{
closed = 1;
nodes = (
(83,487,l),
(83,-12,ls),
(83,-75,o),
(65,-119,o),
(27,-166,c),
(74,-203,l),
(132,-160,o),
(168,-90,o),
(168,-12,cs),
(168,487,l)
);
}
);
width = 249.90588;
},
{
anchors = (
{
name = bottom;
pos = (111,0);
},
{
name = top;
pos = (109,558);
}
);
layerId = "E21536AE-9819-4FE7-8A20-8865FE3C0515";
shapes = (
{
closed = 1;
nodes = (
(98,480,l),
(98,-46,ls),
(98,-111,o),
(77,-155,o),
(43,-200,c),
(56,-210,l),
(96,-165,o),
(122,-111,o),
(122,-46,cs),
(122,480,l)
);
}
);
width = 220;
},
{
anchors = (
{
name = bottom;
pos = (152,-12);
},
{
name = top;
pos = (151,557);
}
);
layerId = "924B7471-43FB-4CAD-AF7E-45215B64D997";
shapes = (
{
closed = 1;
nodes = (
(48,500,l),
(48,58,ls),
(48,1,o),
(32,-45,o),
(-21,-98,c),
(95,-190,l),
(196,-149,o),
(257,-46,o),
(257,58,cs),
(257,500,l)
);
}
);
width = 304;
}
);
unicode = 567;
},
{
glyphname = k;
kernLeft = b;
kernRight = k;
lastChange = "2024-09-05 12:38:30 +0000";
layers = (
{
anchors = (
{
name = bottom;
pos = (258,0);
}
);
layerId = "DB82AE46-9E91-4728-8B1E-D34291E5A7BF";
shapes = (
{
closed = 1;
nodes = (
(377,487,l),
(200,279,l),
(393,0,l),
(492,0,l),
(323,234,ls),
(314,249,o),
(298,266,o),
(289,273,c),
(289,275,l),
(298,281,o),
(314,296,o),
(323,308,cs),
(476,487,l)
);
},
{
closed = 1;
nodes = (
(78,700,l),
(78,0,l),
(163,0,l),
(163,166,ls),
(163,201,o),
(160,238,o),
(154,276,c),
(161,315,o),
(164,348,o),
(164,389,cs),
(163,700,l)
);
},
{
closed = 1;
nodes = (
(133,306,l),
(133,244,l),
(246,244,l),
(246,306,l)
);
}
);
width = 509.47059;
},
{
anchors = (
{
name = bottom;
pos = (236,0);
}
);
layerId = "E21536AE-9819-4FE7-8A20-8865FE3C0515";
shapes = (
{
closed = 1;
nodes = (
(392,480,l),
(189,276,l),
(409,0,l),
(440,0,l),
(243,248,ls),
(237,256,o),
(226,267,o),
(220,273,c),
(220,275,l),
(226,279,o),
(237,289,o),
(243,295,cs),
(424,480,l)
);
},
{
closed = 1;
nodes = (
(94,700,l),
(94,0,l),
(118,0,l),
(118,177,ls),
(118,210,o),
(118,239,o),
(115,275,c),
(119,310,o),
(120,333,o),
(120,368,cs),
(118,700,l)
);
},
{
closed = 1;
nodes = (
(103,286,l),
(103,264,l),
(218,264,l),
(218,286,l)
);
}
);
width = 473;
},
{
anchors = (
{
name = bottom;
pos = (316,0);
}
);
guides = (
{
angle = 90;
pos = (470,273);
}
);
layerId = "924B7471-43FB-4CAD-AF7E-45215B64D997";
shapes = (
{
closed = 1;
nodes = (
(369,500,l),
(241,277,l),
(387,0,l),
(618,0,l),
(494,205,ls),
(479,233,o),
(451,264,o),
(436,272,c),
(436,276,l),
(451,285,o),
(479,309,o),
(494,336,cs),
(599,500,l)
);
},
{
closed = 1;
nodes = (
(43,700,l),
(43,0,l),
(253,0,l),
(253,143,ls),
(253,182,o),
(243,236,o),
(232,279,c),
(246,325,o),
(253,381,o),
(253,432,cs),
(253,700,l)
);
},
{
closed = 1;
nodes = (
(191,334,l),
(191,216,l),
(308,216,l),
(308,334,l)
);
}
);
width = 609;
}
);
unicode = 107;
},
{
glyphname = kgreenlandic;
kernLeft = b;
kernRight = k;
lastChange = "2024-09-05 12:38:30 +0000";
layers = (
{
layerId = "DB82AE46-9E91-4728-8B1E-D34291E5A7BF";
shapes = (
{
closed = 1;
nodes = (
(377,487,l),
(200,252,l),
(393,0,l),
(492,0,l),
(322,216,ls),
(311,230,o),
(296,249,o),
(288,255,c),
(288,257,l),
(296,263,o),
(313,279,o),
(322,291,cs),
(476,487,l)
);
},
{
closed = 1;
nodes = (
(78,487,l),
(78,0,l),
(163,0,l),
(163,139,ls),
(163,173,o),
(160,211,o),
(154,249,c),
(161,288,o),
(165,321,o),
(164,362,cs),
(163,487,l)
);
},
{
closed = 1;
nodes = (
(133,278,l),
(133,217,l),
(246,217,l),
(246,278,l)
);
}
);
width = 509.47059;
},
{
layerId = "E21536AE-9819-4FE7-8A20-8865FE3C0515";
shapes = (
{
closed = 1;
nodes = (
(392,480,l),
(189,256,l),
(409,0,l),
(440,0,l),
(242,231,ls),
(235,239,o),
(225,250,o),
(219,256,c),
(219,258,l),
(225,262,o),
(236,272,o),
(242,279,cs),
(424,480,l)
);
},
{
closed = 1;
nodes = (
(94,480,l),
(94,0,l),
(118,0,l),
(118,157,ls),
(118,190,o),
(118,219,o),
(115,255,c),
(119,290,o),
(121,313,o),
(120,348,cs),
(118,480,l)
);
},
{
closed = 1;
nodes = (
(103,266,l),
(103,244,l),
(218,244,l),
(218,266,l)
);
}
);
width = 473;
},
{
layerId = "924B7471-43FB-4CAD-AF7E-45215B64D997";
shapes = (
{
closed = 1;
nodes = (
(369,500,l),
(241,255,l),
(387,0,l),
(618,0,l),
(494,190,ls),
(476,217,o),
(451,249,o),
(436,257,c),
(436,261,l),
(451,270,o),
(478,294,o),
(494,321,cs),
(599,500,l)
);
},
{
closed = 1;
nodes = (
(43,500,l),
(43,0,l),
(253,0,l),
(253,121,ls),
(253,160,o),
(243,214,o),
(232,257,c),
(246,303,o),
(253,359,o),
(253,410,cs),
(253,500,l)
);
},
{
closed = 1;
nodes = (
(191,312,l),
(191,194,l),
(308,194,l),
(308,312,l)
);
}
);
width = 609;
}
);
unicode = 312;
},
{
glyphname = l;
kernLeft = l;
kernRight = l;
lastChange = "2024-09-05 12:38:30 +0000";
layers = (
{
anchors = (
{
name = bottom;
pos = (187,-9);
},
{
name = top;
pos = (122,751);
}
);
layerId = "DB82AE46-9E91-4728-8B1E-D34291E5A7BF";
shapes = (
{
closed = 1;
nodes = (
(79,700,l),
(79,115,ls),
(79,35,o),
(126,-9,o),
(198,-9,cs),
(222,-9,o),
(268,-5,o),
(287,4,c),
(277,69,l),
(230,69,ls),
(187,69,o),
(163,91,o),
(163,134,cs),
(164,700,l)
);
}
);
width = 296.98824;
},
{
anchors = (
{
name = bottom;
pos = (186,0);
},
{
name = top;
pos = (108,763);
}
);
layerId = "E21536AE-9819-4FE7-8A20-8865FE3C0515";
shapes = (
{
closed = 1;
nodes = (
(95,700,l),
(95,95,ls),
(95,30,o),
(135,-6,o),
(196,-6,cs),
(214,-6,o),
(247,-4,o),
(260,0,c),
(257,16,l),
(199,16,ls),
(148,16,o),
(119,44,o),
(119,96,cs),
(119,700,l)
);
}
);
width = 270;
},
{
anchors = (
{
name = bottom;
pos = (201,-12);
},
{
name = top;
pos = (149,733);
}
);
layerId = "924B7471-43FB-4CAD-AF7E-45215B64D997";
shapes = (
{
closed = 1;
nodes = (
(44,700,l),
(44,126,ls),
(44,38,o),
(108,-14,o),
(213,-14,cs),
(252,-14,o),
(330,-6,o),
(360,12,c),
(337,146,l),
(303,146,ls),
(269,146,o),
(253,156,o),
(253,182,cs),
(253,700,l)
);
}
);
width = 358;
}
);
unicode = 108;
},
{
glyphname = lslash;
kernLeft = l;
kernRight = l;
lastChange = "2024-09-05 12:38:30 +0000";
layers = (
{
layerId = "DB82AE46-9E91-4728-8B1E-D34291E5A7BF";
shapes = (
{
closed = 1;
nodes = (
(21,356,l),
(21,301,l),
(294,415,l),
(294,470,l)
);
},
{
pos = (22,0);
ref = l;
}
);
userData = {
com.schriftgestaltung.componentsAlignment = (
-1
);
};
width = 327.52941;
},
{
layerId = "E21536AE-9819-4FE7-8A20-8865FE3C0515";
shapes = (
{
closed = 1;
nodes = (
(31,345,l),
(31,324,l),
(262,426,l),
(262,447,l)
);
},
{
pos = (24,0);
ref = l;
}
);
width = 302;
},
{
layerId = "924B7471-43FB-4CAD-AF7E-45215B64D997";
shapes = (
{
closed = 1;
nodes = (
(4,363,l),
(4,259,l),
(365,399,l),
(365,503,l)
);
},
{
pos = (29,0);
ref = l;
}
);
width = 390;
}
);
unicode = 322;
},
{
glyphname = m;
kernLeft = m;
kernRight = h;
lastChange = "2024-09-05 12:38:30 +0000";
layers = (
{
anchors = (
{
name = bottom;
pos = (440,-9);
},
{
name = top;
pos = (450,558);
}
);
layerId = "DB82AE46-9E91-4728-8B1E-D34291E5A7BF";
shapes = (
{
closed = 1;
nodes = (
(603,499,o),
(537,468,o),
(467,405,c),
(472,345,l),
(552,403,o),
(589,427,o),
(641,427,cs),
(695,427,o),
(716,401,o),
(717,341,cs),
(717,0,l),
(801,0,l),
(801,365,ls),
(801,453,o),
(755,499,o),
(671,499,cs)
);
},
{
closed = 1;
nodes = (
(78,487,l),
(78,0,l),
(163,0,l),
(163,379,l),
(154,394,l),
(148,487,l)
);
},
{
closed = 1;
nodes = (
(282,499,o),
(217,467,o),
(147,405,c),
(153,345,l),
(235,404,o),
(272,427,o),
(323,427,cs),
(374,427,o),
(399,404,o),
(399,341,cs),
(399,0,l),
(481,0,l),
(481,365,ls),
(480,454,o),
(435,499,o),
(352,499,cs)
);
}
);
width = 875.62353;
},
{
anchors = (
{
name = bottom;
pos = (442,0);
},
{
name = top;
pos = (450,558);
}
);
layerId = "E21536AE-9819-4FE7-8A20-8865FE3C0515";
shapes = (
{
closed = 1;
nodes = (
(596,492,o),
(526,458,o),
(451,392,c),
(451,369,l),
(537,435,o),
(593,469,o),
(660,469,cs),
(729,469,o),
(765,434,o),
(765,358,cs),
(765,0,l),
(789,0,l),
(789,361,ls),
(789,447,o),
(745,492,o),
(665,492,cs)
);
},
{
closed = 1;
nodes = (
(95,480,l),
(95,0,l),
(119,0,l),
(119,376,l),
(116,392,l),
(113,480,l)
);
},
{
closed = 1;
nodes = (
(261,492,o),
(191,458,o),
(116,392,c),
(116,369,l),
(202,435,o),
(258,469,o),
(325,469,cs),
(394,469,o),
(430,434,o),
(430,358,cs),
(430,0,l),
(454,0,l),
(454,361,ls),
(454,447,o),
(410,492,o),
(330,492,cs)
);
}
);
width = 880;
},
{
anchors = (
{
name = bottom;
pos = (444,-12);
},
{
name = top;
pos = (443,557);
}
);
layerId = "924B7471-43FB-4CAD-AF7E-45215B64D997";
shapes = (
{
closed = 1;
nodes = (
(626,514,o),
(574,484,o),
(516,421,c),
(527,318,l),
(568,335,o),
(585,337,o),
(603,337,cs),
(628,337,o),
(636,329,o),
(636,307,cs),
(636,0,l),
(845,0,l),
(845,374,ls),
(845,466,o),
(796,514,o),
(701,514,cs)
);
},
{
closed = 1;
nodes = (
(43,500,l),
(43,0,l),
(252,0,l),
(252,386,l),
(232,398,l),
(207,500,l)
);
},
{
closed = 1;
nodes = (
(328,514,o),
(278,484,o),
(219,421,c),
(230,318,l),
(274,335,o),
(290,337,o),
(309,337,cs),
(333,337,o),
(343,329,o),
(343,307,cs),
(343,0,l),
(545,0,l),
(545,374,ls),
(545,466,o),
(496,514,o),
(404,514,cs)
);
}
);
width = 885;
}
);
unicode = 109;
},
{
glyphname = n;
kernLeft = m;
kernRight = h;
lastChange = "2024-09-05 12:38:30 +0000";
layers = (
{
anchors = (
{
name = bottom;
pos = (297,-9);
},
{
name = top;
pos = (303,554);
}
);
layerId = "DB82AE46-9E91-4728-8B1E-D34291E5A7BF";
shapes = (
{
closed = 1;
nodes = (
(300,499,o),
(226,465,o),
(150,406,c),
(154,345,l),
(237,396,o),
(291,427,o),
(351,427,cs),
(401,427,o),
(421,406,o),
(421,341,cs),
(421,0,l),
(506,0,l),
(506,365,ls),
(506,453,o),
(460,499,o),
(374,499,cs)
);
},
{
closed = 1;
nodes = (
(78,487,l),
(78,0,l),
(163,0,l),
(163,379,l),
(157,394,l),
(150,487,l)
);
}
);
width = 580.94118;
},
{
anchors = (
{
name = bottom;
pos = (285,0);
},
{
name = top;
pos = (293,558);
}
);
layerId = "E21536AE-9819-4FE7-8A20-8865FE3C0515";
shapes = (
{
closed = 1;
nodes = (
(275,492,o),
(199,458,o),
(116,392,c),
(116,369,l),
(210,435,o),
(272,469,o),
(345,469,cs),
(419,469,o),
(455,434,o),
(455,358,cs),
(455,0,l),
(479,0,l),
(479,361,ls),
(479,447,o),
(435,492,o),
(350,492,cs)
);
},
{
closed = 1;
nodes = (
(95,480,l),
(95,0,l),
(119,0,l),
(119,376,l),
(116,392,l),
(113,480,l)
);
}
);
width = 570;
},
{
anchors = (
{
name = bottom;
pos = (313,-12);
},
{
name = top;
pos = (312,557);
}
);
layerId = "924B7471-43FB-4CAD-AF7E-45215B64D997";
shapes = (
{
closed = 1;
nodes = (
(364,514,o),
(288,484,o),
(221,421,c),
(231,318,l),
(282,335,o),
(309,337,o),
(335,337,cs),
(361,337,o),
(371,329,o),
(371,307,cs),
(371,0,l),
(581,0,l),
(581,374,ls),
(581,466,o),
(530,514,o),
(433,514,cs)
);
},
{
closed = 1;
nodes = (
(43,500,l),
(43,0,l),
(253,0,l),
(253,386,l),
(234,398,l),
(208,500,l)
);
}
);
width = 621;
}
);
unicode = 110;
},
{
glyphname = eng;
kernLeft = m;
kernRight = h;
lastChange = "2024-09-05 12:38:30 +0000";
layers = (
{
layerId = "DB82AE46-9E91-4728-8B1E-D34291E5A7BF";
shapes = (
{
closed = 1;
nodes = (
(302,499,o),
(228,467,o),
(152,407,c),
(144,487,l),
(78,487,l),
(78,0,l),
(163,0,l),
(163,350,l),
(235,393,o),
(295,421,o),
(349,421,cs),
(402,421,o),
(421,398,o),
(421,341,cs),
(421,-61,ls),
(421,-113,o),
(397,-138,o),
(349,-138,cs),
(306,-138,l),
(296,-192,l),
(323,-200,o),
(358,-205,o),
(382,-205,cs),
(463,-206,o),
(506,-157,o),
(506,-68,cs),
(506,365,ls),
(506,454,o),
(461,499,o),
(373,499,cs)
);
}
);
width = 580.94118;
},
{
layerId = "E21536AE-9819-4FE7-8A20-8865FE3C0515";
shapes = (
{
closed = 1;
nodes = (
(275,492,o),
(199,458,o),
(116,392,c),
(113,480,l),
(95,480,l),
(95,0,l),
(119,0,l),
(119,371,l),
(211,436,o),
(273,469,o),
(345,469,cs),
(419,469,o),
(455,434,o),
(455,358,cs),
(455,-88,ls),
(455,-155,o),
(425,-188,o),
(365,-188,cs),
(317,-188,l),
(314,-204,l),
(339,-207,o),
(353,-210,o),
(368,-210,cs),
(443,-211,o),
(479,-169,o),
(479,-89,cs),
(479,361,ls),
(479,447,o),
(435,492,o),
(350,492,cs)
);
}
);
width = 570;
},
{
layerId = "924B7471-43FB-4CAD-AF7E-45215B64D997";
shapes = (
{
closed = 1;
nodes = (
(367,514,o),
(293,486,o),
(226,427,c),
(207,500,l),
(43,500,l),
(43,0,l),
(253,0,l),
(253,326,l),
(289,336,o),
(313,337,o),
(335,337,cs),
(361,337,o),
(371,329,o),
(371,307,cs),
(371,-6,ls),
(371,-25,o),
(356,-33,o),
(330,-33,cs),
(294,-33,l),
(271,-169,l),
(304,-187,o),
(383,-195,o),
(424,-195,cs),
(524,-195,o),
(581,-132,o),
(581,-24,cs),
(581,374,ls),
(581,466,o),
(531,514,o),
(433,514,cs)
);
}
);
width = 621;
}
);
unicode = 331;
},
{
glyphname = o;
kernLeft = c;
kernRight = o;
lastChange = "2024-09-05 12:38:30 +0000";
layers = (
{
anchors = (
{
name = bottom;
pos = (282,-9);
},
{
name = ogonek;
pos = (326,2);
},
{
name = top;
pos = (286,550);
}
);
layerId = "DB82AE46-9E91-4728-8B1E-D34291E5A7BF";
shapes = (
{
closed = 1;
nodes = (
(117,499,o),
(55,429,o),
(55,243,cs),
(55,56,o),
(117,-13,o),
(284,-13,cs),
(452,-13,o),
(513,56,o),
(513,243,cs),
(513,429,o),
(452,499,o),
(284,499,cs)
);
},
{
closed = 1;
nodes = (
(390,427,o),
(425,385,o),
(425,243,cs),
(425,101,o),
(390,59,o),
(284,59,cs),
(178,59,o),
(144,101,o),
(144,243,cs),
(144,385,o),
(178,427,o),
(284,427,cs)
);
}
);
width = 568.02353;
},
{
anchors = (
{
name = bottom;
pos = (280,0);
},
{
name = ogonek;
pos = (311,2);
},
{
name = top;
pos = (279,558);
}
);
layerId = "E21536AE-9819-4FE7-8A20-8865FE3C0515";
shapes = (
{
closed = 1;
nodes = (
(125,492,o),
(70,425,o),
(70,240,cs),
(70,55,o),
(125,-12,o),
(280,-12,cs),
(435,-12,o),
(490,55,o),
(490,240,cs),
(490,425,o),
(435,492,o),
(280,492,cs)
);
},
{
closed = 1;
nodes = (
(416,469,o),
(465,413,o),
(465,240,cs),
(465,67,o),
(416,11,o),
(280,11,cs),
(144,11,o),
(95,67,o),
(95,240,cs),
(95,413,o),
(144,469,o),
(280,469,cs)
);
}
);
width = 560;
},
{
anchors = (
{
name = bottom;
pos = (307,-12);
},
{
name = ogonek;
pos = (350,0);
},
{
name = top;
pos = (306,547);
}
);
layerId = "924B7471-43FB-4CAD-AF7E-45215B64D997";
shapes = (
{
closed = 1;
nodes = (
(101,514,o),
(26,444,o),
(26,249,cs),
(26,57,o),
(101,-12,o),
(306,-12,cs),
(510,-12,o),
(585,57,o),
(585,249,cs),
(585,444,o),
(510,514,o),
(306,514,cs)
);
},
{
closed = 1;
nodes = (
(354,372,o),
(365,352,o),
(365,249,cs),
(365,149,o),
(354,130,o),
(306,130,cs),
(257,130,o),
(246,149,o),
(246,249,cs),
(246,352,o),
(257,372,o),
(306,372,cs)
);
}
);
width = 611;
}
);
unicode = 111;
},
{
glyphname = ohorn;
kernLeft = c;
kernRight = ohorn;
lastChange = "2024-09-05 12:38:30 +0000";
layers = (
{
anchors = (
{
name = bottom;
pos = (282,-9);
},
{
name = top;
pos = (284,550);
}
);
layerId = "DB82AE46-9E91-4728-8B1E-D34291E5A7BF";
shapes = (
{
closed = 1;
nodes = (
(117,499,o),
(55,429,o),
(55,243,cs),
(55,56,o),
(117,-13,o),
(284,-13,cs),
(452,-13,o),
(513,56,o),
(513,243,cs),
(513,429,o),
(452,499,o),
(284,499,cs)
);
},
{
closed = 1;
nodes = (
(390,427,o),
(425,385,o),
(425,243,cs),
(425,101,o),
(390,59,o),
(284,59,cs),
(178,59,o),
(144,101,o),
(144,243,cs),
(144,385,o),
(178,427,o),
(284,427,cs)
);
},
{
pos = (689,2);
ref = horncomb;
}
);
userData = {
com.schriftgestaltung.componentsAlignment = (
-1
);
};
width = 579.69412;
},
{
anchors = (
{
name = bottom;
pos = (280,0);
},
{
name = top;
pos = (279,558);
}
);
layerId = "E21536AE-9819-4FE7-8A20-8865FE3C0515";
shapes = (
{
closed = 1;
nodes = (
(125,492,o),
(70,425,o),
(70,240,cs),
(70,55,o),
(125,-12,o),
(280,-12,cs),
(435,-12,o),
(490,55,o),
(490,240,cs),
(490,425,o),
(435,492,o),
(280,492,cs)
);
},
{
closed = 1;
nodes = (
(416,469,o),
(465,413,o),
(465,240,cs),
(465,67,o),
(416,11,o),
(280,11,cs),
(144,11,o),
(95,67,o),
(95,240,cs),
(95,413,o),
(144,469,o),
(280,469,cs)
);
},
{
pos = (677,-1);
ref = horncomb;
}
);
width = 560;
},
{
anchors = (
{
name = bottom;
pos = (304,-12);
},
{
name = top;
pos = (307,540);
}
);
layerId = "924B7471-43FB-4CAD-AF7E-45215B64D997";
shapes = (
{
closed = 1;
nodes = (
(101,514,o),
(26,444,o),
(26,249,cs),
(26,57,o),
(101,-12,o),
(306,-12,cs),
(510,-12,o),
(585,57,o),
(585,249,cs),
(585,444,o),
(510,514,o),
(306,514,cs)
);
},
{
closed = 1;
nodes = (
(354,372,o),
(365,352,o),
(365,249,cs),
(365,149,o),
(354,130,o),
(306,130,cs),
(257,130,o),
(246,149,o),
(246,249,cs),
(246,352,o),
(257,372,o),
(306,372,cs)
);
},
{
pos = (742,2);
ref = horncomb;
}
);
userData = {
com.schriftgestaltung.componentsAlignment = (
-1
);
};
width = 654;
}
);
unicode = 417;
},
{
glyphname = oslash;
kernLeft = c;
kernRight = o;
lastChange = "2024-09-05 12:38:30 +0000";
layers = (
{
anchors = (
{
name = bottom;
pos = (282,-9);
},
{
name = top;
pos = (286,550);
}
);
layerId = "DB82AE46-9E91-4728-8B1E-D34291E5A7BF";
shapes = (
{
closed = 1;
nodes = (
(118,-56,l),
(157,-75,l),
(444,541,l),
(405,560,l)
);
},
{
ref = o;
}
);
userData = {
com.schriftgestaltung.Glyphs.glyph.rightMetricsKey = o;
com.schriftgestaltung.componentsAlignment = (
-1
);
};
width = 568.02353;
},
{
anchors = (
{
name = bottom;
pos = (280,0);
},
{
name = top;
pos = (279,558);
}
);
layerId = "E21536AE-9819-4FE7-8A20-8865FE3C0515";
shapes = (
{
closed = 1;
nodes = (
(128,-52,l),
(147,-61,l),
(423,530,l),
(404,539,l)
);
},
{
ref = o;
}
);
userData = {
com.schriftgestaltung.Glyphs.glyph.rightMetricsKey = o;
};
width = 560;
},
{
anchors = (
{
name = bottom;
pos = (306,-12);
},
{
name = top;
pos = (305,557);
}
);
layerId = "924B7471-43FB-4CAD-AF7E-45215B64D997";
shapes = (
{
closed = 1;
nodes = (
(127,-71,l),
(173,-93,l),
(483,575,l),
(437,597,l)
);
},
{
ref = o;
}
);
userData = {
com.schriftgestaltung.Glyphs.glyph.rightMetricsKey = o;
};
width = 611;
}
);
unicode = 248;
},
{
glyphname = oe;
kernLeft = c;
kernRight = ae;
lastChange = "2024-09-05 12:38:30 +0000";
layers = (
{
anchors = (
{
name = top;
pos = (473,547);
}
);
layerId = "DB82AE46-9E91-4728-8B1E-D34291E5A7BF";
shapes = (
{
closed = 1;
nodes = (
(452,-13,o),
(513,56,o),
(513,243,cs),
(513,429,o),
(452,499,o),
(284,499,cs),
(117,499,o),
(55,429,o),
(55,243,cs),
(55,56,o),
(117,-13,o),
(284,-13,cs)
);
},
{
closed = 1;
nodes = (
(178,59,o),
(144,101,o),
(144,243,cs),
(144,385,o),
(178,427,o),
(284,427,cs),
(390,427,o),
(425,385,o),
(425,243,cs),
(425,101,o),
(390,59,o),
(284,59,cs)
);
},
{
closed = 1;
nodes = (
(713,-12,o),
(800,-4,o),
(845,15,c),
(837,72,l),
(787,65,o),
(719,60,o),
(669,60,cs),
(555,60,o),
(513,93,o),
(513,250,cs),
(513,385,o),
(545,427,o),
(645,427,cs),
(732,427,o),
(769,402,o),
(772,350,cs),
(775,290,o),
(755,269,o),
(701,269,cs),
(456,269,l),
(456,206,l),
(706,206,ls),
(815,206,o),
(858,239,o),
(858,349,cs),
(857,442,o),
(795,499,o),
(643,499,cs),
(486,499,o),
(424,432,o),
(424,247,cs),
(424,58,o),
(488,-12,o),
(656,-12,cs)
);
}
);
width = 907.41176;
},
{
anchors = (
{
name = top;
pos = (473,547);
}
);
layerId = "E21536AE-9819-4FE7-8A20-8865FE3C0515";
shapes = (
{
closed = 1;
nodes = (
(435,-12,o),
(490,55,o),
(490,240,cs),
(490,425,o),
(435,492,o),
(280,492,cs),
(125,492,o),
(70,425,o),
(70,240,cs),
(70,55,o),
(125,-12,o),
(280,-12,cs)
);
},
{
closed = 1;
nodes = (
(144,11,o),
(95,67,o),
(95,240,cs),
(95,413,o),
(144,469,o),
(280,469,cs),
(416,469,o),
(465,413,o),
(465,240,cs),
(465,67,o),
(416,11,o),
(280,11,cs)
);
},
{
closed = 1;
nodes = (
(731,-12,o),
(817,-4,o),
(849,6,c),
(845,24,l),
(808,18,o),
(747,11,o),
(682,11,cs),
(548,11,o),
(490,70,o),
(490,243,cs),
(490,409,o),
(538,469,o),
(672,469,cs),
(779,469,o),
(833,431,o),
(835,354,cs),
(837,277,o),
(805,249,o),
(717,249,cs),
(479,249,l),
(479,227,l),
(717,227,ls),
(822,227,o),
(862,261,o),
(860,356,cs),
(858,447,o),
(796,492,o),
(671,492,cs),
(523,492,o),
(465,426,o),
(465,242,cs),
(465,59,o),
(527,-12,o),
(679,-12,cs)
);
}
);
width = 922;
},
{
anchors = (
{
name = top;
pos = (473,547);
}
);
layerId = "924B7471-43FB-4CAD-AF7E-45215B64D997";
shapes = (
{
closed = 1;
nodes = (
(496,-12,o),
(570,57,o),
(570,249,cs),
(570,444,o),
(496,514,o),
(301,514,cs),
(99,514,o),
(26,444,o),
(26,249,cs),
(26,57,o),
(99,-12,o),
(301,-12,cs)
);
},
{
closed = 1;
nodes = (
(256,130,o),
(247,149,o),
(247,249,cs),
(247,352,o),
(256,372,o),
(304,372,cs),
(351,372,o),
(361,352,o),
(361,249,cs),
(361,149,o),
(351,130,o),
(301,130,cs)
);
},
{
closed = 1;
nodes = (
(723,-14,o),
(804,-4,o),
(874,32,c),
(855,158,l),
(770,149,o),
(694,147,o),
(657,147,cs),
(580,147,o),
(569,175,o),
(569,267,cs),
(569,366,o),
(580,378,o),
(636,377,cs),
(672,377,o),
(687,371,o),
(687,339,cs),
(687,305,o),
(680,301,o),
(635,301,cs),
(436,301,l),
(436,202,l),
(693,202,ls),
(842,202,o),
(889,241,o),
(888,334,cs),
(887,451,o),
(818,512,o),
(633,512,cs),
(435,512,o),
(360,441,o),
(360,244,cs),
(360,74,o),
(435,-14,o),
(634,-14,cs)
);
}
);
width = 909;
}
);
unicode = 339;
},
{
glyphname = p;
kernLeft = m;
kernRight = p;
lastChange = "2024-09-05 12:38:30 +0000";
layers = (
{
layerId = "DB82AE46-9E91-4728-8B1E-D34291E5A7BF";
shapes = (
{
closed = 1;
nodes = (
(285,499,o),
(204,463,o),
(151,405,c),
(159,348,l),
(228,400,o),
(275,425,o),
(329,425,cs),
(406,425,o),
(437,379,o),
(437,241,cs),
(437,98,o),
(404,62,o),
(319,62,cs),
(266,62,o),
(223,75,o),
(160,92,c),
(155,41,l),
(213,5,o),
(276,-12,o),
(340,-12,cs),
(465,-12,o),
(524,53,o),
(524,241,cs),
(524,410,o),
(476,499,o),
(357,499,cs)
);
},
{
closed = 1;
nodes = (
(78,487,l),
(78,-201,l),
(163,-201,l),
(163,-60,ls),
(163,-22,o),
(163,11,o),
(159,49,c),
(163,61,l),
(163,373,l),
(157,386,l),
(148,487,l)
);
}
);
width = 579.96471;
},
{
background = {
shapes = (
{
closed = 1;
nodes = (
(250,492,o),
(188,459,o),
(117,393,c),
(115,369,l),
(197,439,o),
(252,469,o),
(316,469,cs),
(423,469,o),
(465,408,o),
(465,240,cs),
(465,72,o),
(423,11,o),
(316,11,cs),
(252,11,o),
(197,28,o),
(115,61,c),
(115,42,l),
(186,7,o),
(250,-12,o),
(316,-12,cs),
(442,-12,o),
(490,58,o),
(490,240,cs),
(490,422,o),
(442,492,o),
(316,492,cs)
);
},
{
closed = 1;
nodes = (
(95,480,l),
(95,-210,l),
(119,-210,l),
(119,-51,l),
(119,-16,o),
(120,7,o),
(116,42,c),
(119,54,l),
(119,389,l),
(117,393,l),
(113,480,l)
);
}
);
};
layerId = "E21536AE-9819-4FE7-8A20-8865FE3C0515";
shapes = (
{
closed = 1;
nodes = (
(250,492,o),
(188,459,o),
(117,393,c),
(115,369,l),
(197,439,o),
(252,469,o),
(316,469,cs),
(423,469,o),
(465,408,o),
(465,240,cs),
(465,72,o),
(423,11,o),
(316,11,cs),
(252,11,o),
(197,28,o),
(115,61,c),
(115,42,l),
(186,7,o),
(250,-12,o),
(316,-12,cs),
(442,-12,o),
(490,58,o),
(490,240,cs),
(490,422,o),
(442,492,o),
(316,492,cs)
);
},
{
closed = 1;
nodes = (
(95,480,l),
(95,-210,l),
(119,-210,l),
(119,-51,l),
(119,-16,o),
(120,7,o),
(116,42,c),
(119,54,l),
(119,389,l),
(117,393,l),
(113,480,l)
);
}
);
width = 561;
},
{
background = {
shapes = (
{
ref = n;
}
);
};
layerId = "924B7471-43FB-4CAD-AF7E-45215B64D997";
shapes = (
{
closed = 1;
nodes = (
(325,512,o),
(247,470,o),
(221,421,c),
(250,342,l),
(271,352,o),
(287,361,o),
(322,361,cs),
(360,361,o),
(376,350,o),
(376,242,cs),
(376,135,o),
(360,123,o),
(319,123,cs),
(278,123,o),
(258,135,o),
(231,144,c),
(217,62,l),
(257,6,o),
(327,-14,o),
(403,-14,cs),
(527,-14,o),
(592,38,o),
(592,244,cs),
(592,414,o),
(542,512,o),
(412,512,cs)
);
},
{
closed = 1;
nodes = (
(43,500,l),
(43,-180,l),
(253,-180,l),
(253,-81,ls),
(254,-34,o),
(251,19,o),
(247,62,c),
(253,74,l),
(253,405,l),
(231,421,l),
(211,500,l)
);
}
);
width = 620;
}
);
unicode = 112;
},
{
glyphname = thorn;
kernLeft = f;
kernRight = p;
lastChange = "2024-09-05 12:38:30 +0000";
layers = (
{
layerId = "DB82AE46-9E91-4728-8B1E-D34291E5A7BF";
shapes = (
{
closed = 1;
nodes = (
(262,499,o),
(198,465,o),
(140,412,c),
(159,356,l),
(218,400,o),
(266,426,o),
(315,426,cs),
(396,426,o),
(429,382,o),
(429,241,cs),
(429,101,o),
(397,58,o),
(312,58,cs),
(264,58,o),
(215,73,o),
(153,98,c),
(137,45,l),
(199,6,o),
(270,-13,o),
(339,-13,cs),
(463,-13,o),
(517,51,o),
(517,240,cs),
(517,421,o),
(469,499,o),
(342,499,cs)
);
},
{
closed = 1;
nodes = (
(78,700,l),
(78,-201,l),
(163,-201,l),
(163,-60,ls),
(163,-22,o),
(163,11,o),
(159,49,c),
(163,61,l),
(163,409,l),
(159,421,l),
(163,458,o),
(163,491,o),
(163,530,c),
(163,700,l)
);
}
);
width = 573.67059;
},
{
layerId = "E21536AE-9819-4FE7-8A20-8865FE3C0515";
shapes = (
{
closed = 1;
nodes = (
(250,492,o),
(186,462,o),
(115,402,c),
(115,379,l),
(197,442,o),
(252,469,o),
(316,469,cs),
(423,469,o),
(465,408,o),
(465,240,cs),
(465,72,o),
(423,11,o),
(316,11,cs),
(252,11,o),
(197,28,o),
(115,61,c),
(115,42,l),
(186,7,o),
(250,-12,o),
(316,-12,cs),
(442,-12,o),
(490,58,o),
(490,240,cs),
(490,422,o),
(442,492,o),
(316,492,cs)
);
},
{
closed = 1;
nodes = (
(95,700,l),
(95,-210,l),
(119,-210,l),
(119,-51,ls),
(119,-16,o),
(120,7,o),
(116,42,c),
(119,54,l),
(119,391,l),
(116,403,l),
(120,438,o),
(119,461,o),
(119,496,cs),
(119,700,l)
);
}
);
width = 562;
},
{
layerId = "924B7471-43FB-4CAD-AF7E-45215B64D997";
shapes = (
{
closed = 1;
nodes = (
(303,512,o),
(247,470,o),
(219,421,c),
(250,342,l),
(270,352,o),
(287,361,o),
(321,361,cs),
(360,361,o),
(376,350,o),
(376,242,cs),
(376,135,o),
(360,123,o),
(318,123,cs),
(278,123,o),
(257,135,o),
(230,144,c),
(214,62,l),
(255,6,o),
(327,-14,o),
(403,-14,cs),
(527,-14,o),
(592,38,o),
(592,244,cs),
(592,414,o),
(542,512,o),
(410,512,cs)
);
},
{
closed = 1;
nodes = (
(43,700,l),
(43,-180,l),
(253,-180,l),
(253,-81,ls),
(254,-34,o),
(250,19,o),
(247,62,c),
(253,74,l),
(253,445,l),
(247,457,l),
(250,500,o),
(254,553,o),
(253,600,c),
(253,700,l)
);
}
);
width = 620;
}
);
unicode = 254;
},
{
glyphname = q;
kernLeft = q;
kernRight = q;
lastChange = "2024-09-05 12:38:30 +0000";
layers = (
{
layerId = "DB82AE46-9E91-4728-8B1E-D34291E5A7BF";
shapes = (
{
closed = 1;
nodes = (
(104,499,o),
(55,411,o),
(55,242,cs),
(55,65,o),
(109,-13,o),
(222,-13,cs),
(298,-13,o),
(367,22,o),
(430,78,c),
(419,134,l),
(355,90,o),
(311,62,o),
(250,62,cs),
(165,62,o),
(142,117,o),
(142,236,cs),
(142,385,o),
(177,425,o),
(273,427,cs),
(316,428,o),
(373,422,o),
(425,406,c),
(494,465,l),
(429,487,o),
(336,499,o),
(274,499,cs)
);
},
{
closed = 1;
nodes = (
(409,90,l),
(418,76,l),
(410,40,o),
(408,8,o),
(408,-34,cs),
(409,-201,l),
(494,-201,l),
(494,465,l),
(409,468,l)
);
}
);
width = 569.94118;
},
{
background = {
shapes = (
{
closed = 1;
nodes = (
(124,492,o),
(70,424,o),
(70,240,cs),
(70,66,o),
(118,-12,o),
(234,-12,cs),
(311,-12,o),
(371,23,o),
(450,87,c),
(445,106,l),
(362,43,o),
(309,11,o),
(238,11,cs),
(137,11,o),
(95,76,o),
(95,239,cs),
(95,413,o),
(143,469,o),
(272,469,cs),
(317,469,o),
(376,462,o),
(445,443,c),
(466,461,l),
(395,480,o),
(329,492,o),
(268,492,cs)
);
},
{
closed = 1;
nodes = (
(442,99,l),
(445,83,l),
(441,52,o),
(442,29,o),
(442,-10,cs),
(442,-210,l),
(466,-210,l),
(466,461,l),
(442,461,l)
);
}
);
};
layerId = "E21536AE-9819-4FE7-8A20-8865FE3C0515";
shapes = (
{
closed = 1;
nodes = (
(124,492,o),
(70,424,o),
(70,240,cs),
(70,66,o),
(118,-12,o),
(234,-12,cs),
(311,-12,o),
(371,23,o),
(450,87,c),
(445,106,l),
(362,43,o),
(309,11,o),
(238,11,cs),
(137,11,o),
(95,76,o),
(95,239,cs),
(95,413,o),
(143,469,o),
(272,469,cs),
(317,469,o),
(376,462,o),
(445,443,c),
(466,461,l),
(395,480,o),
(329,492,o),
(268,492,cs)
);
},
{
closed = 1;
nodes = (
(442,99,l),
(445,83,l),
(441,52,o),
(442,29,o),
(442,-10,cs),
(442,-210,l),
(466,-210,l),
(466,461,l),
(442,461,l)
);
}
);
width = 559;
},
{
background = {
shapes = (
{
ref = u;
}
);
};
layerId = "924B7471-43FB-4CAD-AF7E-45215B64D997";
shapes = (
{
closed = 1;
nodes = (
(68,514,o),
(27,400,o),
(27,246,cs),
(27,83,o),
(76,-12,o),
(215,-12,cs),
(301,-12,o),
(374,56,o),
(404,103,c),
(389,176,l),
(362,167,o),
(339,155,o),
(303,155,cs),
(256,155,o),
(243,170,o),
(243,247,cs),
(243,349,o),
(256,370,o),
(300,373,cs),
(328,375,o),
(389,368,o),
(408,358,c),
(576,472,l),
(518,502,o),
(369,514,o),
(296,514,cs)
);
},
{
closed = 1;
nodes = (
(366,106,l),
(387,94,l),
(372,51,o),
(365,-2,o),
(366,-50,cs),
(366,-180,l),
(576,-180,l),
(576,472,l),
(366,482,l)
);
}
);
width = 618;
}
);
unicode = 113;
},
{
glyphname = r;
kernLeft = m;
kernRight = r;
lastChange = "2024-09-05 12:38:30 +0000";
layers = (
{
anchors = (
{
name = bottom;
pos = (122,-9);
},
{
name = top;
pos = (220,554);
}
);
layerId = "DB82AE46-9E91-4728-8B1E-D34291E5A7BF";
shapes = (
{
closed = 1;
nodes = (
(78,487,l),
(78,0,l),
(163,0,l),
(163,379,l),
(155,394,l),
(144,487,l)
);
},
{
closed = 1;
nodes = (
(361,499,l),
(293,499,o),
(219,464,o),
(147,405,c),
(154,352,l),
(236,394,o),
(288,419,o),
(345,419,cs),
(373,419,l),
(383,499,l)
);
}
);
width = 400.50588;
},
{
anchors = (
{
name = bottom;
pos = (108,0);
},
{
name = top;
pos = (221,558);
}
);
layerId = "E21536AE-9819-4FE7-8A20-8865FE3C0515";
shapes = (
{
closed = 1;
nodes = (
(95,480,l),
(95,0,l),
(119,0,l),
(119,376,l),
(116,392,l),
(113,480,l)
);
},
{
closed = 1;
nodes = (
(341,492,l),
(269,492,o),
(196,455,o),
(116,392,c),
(116,369,l),
(207,433,o),
(268,469,o),
(338,469,cs),
(355,469,l),
(360,492,l)
);
}
);
width = 383;
},
{
anchors = (
{
name = bottom;
pos = (147,-12);
},
{
name = top;
pos = (231,557);
}
);
layerId = "924B7471-43FB-4CAD-AF7E-45215B64D997";
shapes = (
{
closed = 1;
nodes = (
(43,500,l),
(43,0,l),
(253,0,l),
(253,386,l),
(233,398,l),
(207,500,l)
);
},
{
closed = 1;
nodes = (
(421,514,l),
(355,514,o),
(284,484,o),
(219,421,c),
(231,308,l),
(303,320,o),
(343,322,o),
(379,322,cs),
(432,322,l),
(450,514,l)
);
}
);
width = 452;
}
);
unicode = 114;
},
{
glyphname = s;
kernLeft = s;
kernRight = s;
lastChange = "2024-09-05 12:38:30 +0000";
layers = (
{
anchors = (
{
name = bottom;
pos = (249,-11);
},
{
name = top;
pos = (258,554);
}
);
layerId = "DB82AE46-9E91-4728-8B1E-D34291E5A7BF";
shapes = (
{
closed = 1;
nodes = (
(107,501,o),
(50,478,o),
(50,365,cs),
(50,285,o),
(81,248,o),
(160,229,cs),
(300,197,ls),
(347,186,o),
(377,177,o),
(377,129,cs),
(377,71,o),
(343,61,o),
(234,61,cs),
(171,60,o),
(114,62,o),
(66,65,c),
(60,3,l),
(143,-10,o),
(216,-11,o),
(251,-11,cs),
(392,-11,o),
(459,9,o),
(459,129,cs),
(459,212,o),
(423,244,o),
(346,263,cs),
(204,295,ls),
(157,306,o),
(133,314,o),
(133,365,cs),
(133,426,o),
(163,428,o),
(253,427,cs),
(314,427,o),
(377,424,o),
(438,422,c),
(445,484,l),
(385,493,o),
(304,498,o),
(240,499,cs)
);
}
);
width = 507.75294;
},
{
anchors = (
{
name = bottom;
pos = (248,-11);
},
{
name = top;
pos = (253,558);
}
);
layerId = "E21536AE-9819-4FE7-8A20-8865FE3C0515";
shapes = (
{
closed = 1;
nodes = (
(122,494,o),
(62,486,o),
(62,365,cs),
(62,282,o),
(99,249,o),
(166,241,cs),
(328,221,ls),
(376,215,o),
(413,192,o),
(413,122,cs),
(413,26,o),
(369,13,o),
(249,11,cs),
(185,10,o),
(140,12,o),
(77,18,c),
(74,0,l),
(147,-10,o),
(201,-11,o),
(248,-11,cs),
(369,-11,o),
(437,0,o),
(437,122,cs),
(437,198,o),
(398,235,o),
(328,244,cs),
(166,264,ls),
(115,270,o),
(86,294,o),
(86,365,cs),
(86,469,o),
(132,472,o),
(239,470,cs),
(298,469,o),
(363,466,o),
(422,462,c),
(425,480,l),
(366,487,o),
(297,491,o),
(239,492,cs)
);
}
);
width = 499;
},
{
anchors = (
{
name = bottom;
pos = (263,-16);
},
{
name = top;
pos = (281,547);
}
);
layerId = "924B7471-43FB-4CAD-AF7E-45215B64D997";
shapes = (
{
closed = 1;
nodes = (
(80,514,o),
(24,459,o),
(24,368,cs),
(24,290,o),
(45,236,o),
(155,204,cs),
(265,174,ls),
(317,159,o),
(330,159,o),
(330,147,cs),
(330,132,o),
(317,132,o),
(222,132,cs),
(151,132,o),
(70,132,o),
(44,132,c),
(31,10,l),
(141,-9,o),
(243,-11,o),
(291,-11,cs),
(465,-11,o),
(533,27,o),
(533,154,cs),
(533,241,o),
(490,280,o),
(401,305,cs),
(286,334,ls),
(238,347,o),
(227,347,o),
(227,358,cs),
(227,371,o),
(235,370,o),
(302,370,cs),
(363,370,o),
(432,370,o),
(499,370,c),
(512,492,l),
(449,505,o),
(336,514,o),
(256,514,cs)
);
}
);
width = 553;
}
);
unicode = 115;
},
{
glyphname = germandbls;
kernLeft = f;
kernRight = germandbls;
lastChange = "2024-09-05 12:38:30 +0000";
layers = (
{
layerId = "DB82AE46-9E91-4728-8B1E-D34291E5A7BF";
shapes = (
{
closed = 1;
nodes = (
(200,721,o),
(116,699,o),
(116,543,cs),
(116,0,l),
(201,0,l),
(201,534,ls),
(201,629,o),
(234,651,o),
(345,651,cs),
(458,651,o),
(487,629,o),
(487,586,cs),
(487,544,o),
(471,525,o),
(423,498,cs),
(356,461,o),
(300,441,o),
(300,365,cs),
(300,309,o),
(332,276,o),
(382,253,cs),
(488,206,ls),
(532,186,o),
(555,175,o),
(555,130,cs),
(555,66,o),
(523,60,o),
(445,59,cs),
(406,59,o),
(357,60,o),
(306,64,c),
(301,0,l),
(365,-9,o),
(420,-11,o),
(461,-11,cs),
(577,-11,o),
(638,12,o),
(638,126,cs),
(638,199,o),
(611,228,o),
(550,256,cs),
(446,302,ls),
(405,320,o),
(381,332,o),
(381,367,cs),
(381,415,o),
(417,421,o),
(480,458,cs),
(551,500,o),
(567,535,o),
(567,589,cs),
(567,690,o),
(501,721,o),
(341,721,cs)
);
},
{
closed = 1;
nodes = (
(120,487,l),
(28,485,l),
(28,419,l),
(160,419,l),
(160,487,l)
);
}
);
width = 675.07059;
},
{
layerId = "E21536AE-9819-4FE7-8A20-8865FE3C0515";
shapes = (
{
closed = 1;
nodes = (
(212,712,o),
(123,700,o),
(123,531,cs),
(123,0,l),
(147,0,l),
(147,531,ls),
(147,660,o),
(192,690,o),
(329,690,cs),
(443,690,o),
(514,671,o),
(514,601,cs),
(514,535,o),
(495,513,o),
(433,492,cs),
(338,460,o),
(280,453,o),
(280,365,cs),
(280,302,o),
(314,277,o),
(368,261,cs),
(500,221,ls),
(541,209,o),
(575,192,o),
(575,122,cs),
(575,24,o),
(530,13,o),
(441,11,cs),
(387,10,o),
(337,12,o),
(278,18,c),
(276,0,l),
(345,-10,o),
(397,-11,o),
(441,-11,cs),
(534,-11,o),
(600,0,o),
(600,122,cs),
(600,198,o),
(563,226,o),
(503,244,cs),
(370,284,ls),
(331,296,o),
(304,314,o),
(304,365,cs),
(304,439,o),
(346,441,o),
(434,470,cs),
(504,493,o),
(536,517,o),
(536,601,cs),
(536,688,o),
(457,712,o),
(329,712,cs)
);
},
{
closed = 1;
nodes = (
(129,480,l),
(36,475,l),
(36,458,l),
(139,458,l),
(139,480,l)
);
}
);
width = 651;
},
{
layerId = "924B7471-43FB-4CAD-AF7E-45215B64D997";
shapes = (
{
closed = 1;
nodes = (
(164,742,o),
(90,697,o),
(90,566,cs),
(90,0,l),
(300,0,l),
(300,541,ls),
(300,592,o),
(311,602,o),
(370,602,cs),
(425,602,o),
(436,594,o),
(436,560,cs),
(436,536,o),
(428,522,o),
(402,484,cs),
(365,430,o),
(341,414,o),
(341,370,cs),
(341,318,o),
(367,286,o),
(410,251,cs),
(440,231,ls),
(481,195,o),
(519,170,o),
(519,148,cs),
(519,127,o),
(511,128,o),
(475,128,cs),
(425,128,o),
(393,128,o),
(358,128,c),
(345,0,l),
(421,-7,o),
(469,-11,o),
(526,-11,cs),
(688,-11,o),
(732,45,o),
(732,141,cs),
(732,204,o),
(712,223,o),
(650,277,cs),
(598,319,ls),
(568,345,o),
(539,364,o),
(539,386,cs),
(539,407,o),
(561,435,o),
(581,461,cs),
(620,513,o),
(627,534,o),
(627,574,cs),
(627,693,o),
(582,742,o),
(368,742,cs)
);
},
{
closed = 1;
nodes = (
(90,500,l),
(8,495,l),
(8,374,l),
(192,374,l),
(192,500,l)
);
}
);
width = 738;
}
);
unicode = 223;
},
{
glyphname = t;
kernLeft = t;
kernRight = t;
lastChange = "2024-09-05 12:38:30 +0000";
layers = (
{
anchors = (
{
name = bottom;
pos = (247,-9);
},
{
name = top;
pos = (160,645);
}
);
layerId = "DB82AE46-9E91-4728-8B1E-D34291E5A7BF";
shapes = (
{
closed = 1;
nodes = (
(115,631,l),
(115,123,ls),
(115,38,o),
(158,-9,o),
(240,-9,cs),
(264,-9,o),
(318,-5,o),
(350,4,c),
(340,69,l),
(266,69,ls),
(218,69,o),
(200,87,o),
(200,134,cs),
(200,631,l)
);
},
{
closed = 1;
nodes = (
(123,487,l),
(27,482,l),
(27,420,l),
(355,420,l),
(355,487,l)
);
}
);
width = 381.28235;
},
{
anchors = (
{
name = bottom;
pos = (230,-6);
},
{
name = top;
pos = (134,641);
}
);
layerId = "E21536AE-9819-4FE7-8A20-8865FE3C0515";
shapes = (
{
closed = 1;
nodes = (
(121,631,l),
(121,95,ls),
(121,30,o),
(157,-6,o),
(231,-6,cs),
(248,-6,o),
(289,-4,o),
(316,0,c),
(313,16,l),
(225,16,ls),
(174,16,o),
(145,43,o),
(145,96,cs),
(145,631,l)
);
},
{
closed = 1;
nodes = (
(127,480,l),
(34,475,l),
(34,458,l),
(323,458,l),
(323,480,l)
);
}
);
width = 347;
},
{
anchors = (
{
name = bottom;
pos = (265,-12);
},
{
name = top;
pos = (200,653);
}
);
layerId = "924B7471-43FB-4CAD-AF7E-45215B64D997";
shapes = (
{
closed = 1;
nodes = (
(94,631,l),
(95,126,ls),
(95,38,o),
(157,-14,o),
(254,-14,cs),
(301,-14,o),
(381,-6,o),
(424,12,c),
(401,146,l),
(348,146,l),
(317,146,o),
(305,156,o),
(305,182,cs),
(305,631,l)
);
},
{
closed = 1;
nodes = (
(106,500,l),
(10,495,l),
(10,374,l),
(426,374,l),
(426,500,l)
);
}
);
width = 438;
}
);
unicode = 116;
},
{
glyphname = tbar;
kernLeft = t;
kernRight = t;
lastChange = "2024-09-05 12:38:30 +0000";
layers = (
{
layerId = "DB82AE46-9E91-4728-8B1E-D34291E5A7BF";
shapes = (
{
closed = 1;
nodes = (
(50,305,l),
(50,257,l),
(330,257,l),
(330,305,l)
);
},
{
ref = t;
}
);
userData = {
com.schriftgestaltung.componentsAlignment = (
-1
);
};
width = 381.28235;
},
{
layerId = "E21536AE-9819-4FE7-8A20-8865FE3C0515";
shapes = (
{
closed = 1;
nodes = (
(47,320,l),
(47,300,l),
(302,300,l),
(302,320,l)
);
},
{
ref = t;
}
);
width = 347;
},
{
layerId = "924B7471-43FB-4CAD-AF7E-45215B64D997";
shapes = (
{
closed = 1;
nodes = (
(39,315,l),
(39,221,l),
(387,221,l),
(387,315,l)
);
},
{
ref = t;
}
);
width = 438;
}
);
unicode = 359;
},
{
glyphname = u;
kernLeft = u;
kernRight = q;
lastChange = "2024-09-05 12:38:30 +0000";
layers = (
{
anchors = (
{
name = bottom;
pos = (276,-11);
},
{
name = ogonek;
pos = (494,0);
},
{
name = top;
pos = (285,557);
}
);
layerId = "DB82AE46-9E91-4728-8B1E-D34291E5A7BF";
shapes = (
{
closed = 1;
nodes = (
(75,487,l),
(75,121,ls),
(75,33,o),
(120,-13,o),
(208,-13,cs),
(281,-13,o),
(351,18,o),
(427,78,c),
(416,137,l),
(340,87,o),
(291,61,o),
(237,61,cs),
(181,61,o),
(159,83,o),
(160,145,cs),
(160,487,l)
);
},
{
closed = 1;
nodes = (
(407,487,l),
(407,107,l),
(416,92,l),
(424,0,l),
(492,0,l),
(492,487,l)
);
}
);
width = 570.21176;
},
{
anchors = (
{
name = bottom;
pos = (276,-11);
},
{
name = ogonek;
pos = (465,0);
},
{
name = top;
pos = (280,558);
}
);
layerId = "E21536AE-9819-4FE7-8A20-8865FE3C0515";
shapes = (
{
closed = 1;
nodes = (
(91,480,l),
(91,119,l),
(91,33,o),
(135,-12,o),
(220,-12,cs),
(292,-12,o),
(365,22,o),
(444,88,c),
(444,111,l),
(354,45,o),
(295,11,o),
(225,11,cs),
(151,11,o),
(115,46,o),
(115,122,cs),
(115,480,l)
);
},
{
closed = 1;
nodes = (
(441,480,l),
(441,104,l),
(444,88,l),
(447,0,l),
(465,0,l),
(465,480,l)
);
}
);
width = 560;
},
{
anchors = (
{
name = bottom;
pos = (307,-12);
},
{
name = ogonek;
pos = (572,0);
},
{
name = top;
pos = (306,557);
}
);
layerId = "924B7471-43FB-4CAD-AF7E-45215B64D997";
shapes = (
{
closed = 1;
nodes = (
(40,500,l),
(40,126,ls),
(40,34,o),
(90,-14,o),
(188,-14,cs),
(263,-14,o),
(327,16,o),
(395,79,c),
(383,182,l),
(337,165,o),
(313,162,o),
(287,162,cs),
(261,162,o),
(250,171,o),
(250,193,cs),
(250,500,l)
);
},
{
closed = 1;
nodes = (
(361,500,l),
(361,114,l),
(381,102,l),
(407,0,l),
(572,0,l),
(572,500,l)
);
}
);
width = 615;
}
);
unicode = 117;
},
{
glyphname = v;
kernLeft = v;
kernRight = v;
lastChange = "2024-09-05 12:38:30 +0000";
layers = (
{
layerId = "DB82AE46-9E91-4728-8B1E-D34291E5A7BF";
shapes = (
{
closed = 1;
nodes = (
(421,487,l),
(301,146,ls),
(291,118,o),
(281,89,o),
(271,61,c),
(258,61,l),
(249,88,o),
(239,118,o),
(229,146,cs),
(109,487,l),
(18,487,l),
(196,21,ls),
(201,8,o),
(212,0,o),
(226,0,cs),
(303,0,ls),
(317,0,o),
(328,8,o),
(333,21,cs),
(511,487,l)
);
}
);
width = 529.61176;
},
{
layerId = "E21536AE-9819-4FE7-8A20-8865FE3C0515";
shapes = (
{
closed = 1;
nodes = (
(451,480,l),
(299,114,ls),
(286,83,o),
(273,53,o),
(260,22,c),
(247,22,l),
(234,52,o),
(222,83,o),
(209,113,cs),
(56,480,l),
(30,480,l),
(227,8,ls),
(230,3,o),
(234,0,o),
(240,0,cs),
(267,0,ls),
(273,0,o),
(277,3,o),
(280,8,cs),
(477,480,l)
);
}
);
width = 507;
},
{
layerId = "924B7471-43FB-4CAD-AF7E-45215B64D997";
shapes = (
{
closed = 1;
nodes = (
(382,500,l),
(322,224,ls),
(317,193,o),
(311,161,o),
(307,130,c),
(294,130,l),
(290,161,o),
(286,193,o),
(280,224,cs),
(219,500,l),
(-3,500,l),
(145,49,ls),
(154,19,o),
(179,0,o),
(211,0,cs),
(390,0,ls),
(422,0,o),
(447,19,o),
(456,49,cs),
(604,500,l)
);
}
);
width = 601;
}
);
unicode = 118;
},
{
glyphname = w;
kernLeft = w;
kernRight = w;
lastChange = "2024-09-05 12:38:30 +0000";
layers = (
{
anchors = (
{
name = top;
pos = (413,554);
}
);
layerId = "DB82AE46-9E91-4728-8B1E-D34291E5A7BF";
shapes = (
{
closed = 1;
nodes = (
(711,487,l),
(610,128,ls),
(602,103,o),
(599,80,o),
(593,55,c),
(580,55,l),
(575,80,o),
(568,104,o),
(563,128,cs),
(483,459,ls),
(479,476,o),
(467,487,o),
(451,487,cs),
(374,487,ls),
(357,487,o),
(345,476,o),
(342,460,cs),
(261,128,ls),
(255,104,o),
(249,79,o),
(243,55,c),
(230,55,l),
(226,79,o),
(221,104,o),
(214,128,cs),
(113,487,l),
(25,487,l),
(167,24,ls),
(171,9,o),
(184,0,o),
(200,0,cs),
(276,0,ls),
(293,0,o),
(306,11,o),
(310,27,cs),
(389,358,ls),
(394,383,o),
(400,408,o),
(406,435,c),
(418,435,l),
(424,408,o),
(428,383,o),
(434,358,cs),
(514,27,ls),
(517,11,o),
(531,0,o),
(547,0,cs),
(624,0,ls),
(640,0,o),
(653,9,o),
(657,24,cs),
(799,487,l)
);
}
);
width = 823.67059;
},
{
anchors = (
{
name = top;
pos = (406,558);
}
);
guides = (
{
pos = (387,86);
},
{
pos = (406,385);
}
);
layerId = "E21536AE-9819-4FE7-8A20-8865FE3C0515";
shapes = (
{
closed = 1;
nodes = (
(752,480,l),
(614,87,l),
(606,65,o),
(600,44,o),
(592,22,c),
(578,22,l),
(571,44,o),
(564,65,o),
(557,87,c),
(431,471,ls),
(429,476,o),
(424,480,o),
(418,480,cs),
(394,480,ls),
(388,480,o),
(383,476,o),
(381,471,cs),
(255,87,ls),
(248,65,o),
(241,44,o),
(234,22,c),
(220,22,l),
(212,43,o),
(206,65,o),
(198,86,cs),
(60,480,l),
(34,480,l),
(201,9,ls),
(203,3,o),
(208,0,o),
(214,0,cs),
(240,0,ls),
(246,0,o),
(251,4,o),
(253,9,cs),
(377,386,l),
(385,410,o),
(393,434,o),
(401,458,c),
(411,458,l),
(419,434,o),
(426,410,o),
(434,386,c),
(559,9,ls),
(561,4,o),
(566,0,o),
(572,0,cs),
(598,0,ls),
(604,0,o),
(609,3,o),
(611,9,cs),
(778,480,l)
);
}
);
width = 812;
},
{
anchors = (
{
name = top;
pos = (440,547);
}
);
layerId = "924B7471-43FB-4CAD-AF7E-45215B64D997";
shapes = (
{
closed = 1;
nodes = (
(659,500,l),
(624,219,ls),
(620,189,o),
(618,160,o),
(615,130,c),
(603,130,l),
(601,160,o),
(596,189,o),
(593,219,cs),
(566,438,ls),
(562,475,o),
(532,500,o),
(495,500,cs),
(380,500,ls),
(343,500,o),
(313,475,o),
(309,439,cs),
(281,219,ls),
(278,189,o),
(274,160,o),
(272,130,c),
(260,130,l),
(258,160,o),
(255,189,o),
(252,219,cs),
(216,500,l),
(8,500,l),
(110,53,ls),
(117,21,o),
(144,0,o),
(178,0,cs),
(323,0,ls),
(360,0,o),
(391,25,o),
(395,62,cs),
(424,289,ls),
(427,319,o),
(429,347,o),
(431,377,c),
(444,377,l),
(446,347,o),
(447,319,o),
(450,289,cs),
(479,62,ls),
(483,25,o),
(514,0,o),
(551,0,cs),
(698,0,ls),
(732,0,o),
(759,21,o),
(766,53,cs),
(868,500,l)
);
}
);
width = 876;
}
);
unicode = 119;
},
{
glyphname = x;
kernLeft = x;
kernRight = x;
lastChange = "2024-09-05 12:38:30 +0000";
layers = (
{
layerId = "DB82AE46-9E91-4728-8B1E-D34291E5A7BF";
shapes = (
{
closed = 1;
nodes = (
(401,487,l),
(254,251,l),
(413,0,l),
(505,0,l),
(342,251,l),
(493,487,l)
);
},
{
closed = 1;
nodes = (
(35,487,l),
(186,251,l),
(23,0,l),
(116,0,l),
(274,251,l),
(127,487,l)
);
},
{
closed = 1;
nodes = (
(212,286,l),
(212,220,l),
(317,220,l),
(317,286,l)
);
}
);
width = 528.34118;
},
{
layerId = "E21536AE-9819-4FE7-8A20-8865FE3C0515";
shapes = (
{
closed = 1;
nodes = (
(426,480,l),
(257,250,l),
(439,0,l),
(469,0,l),
(287,250,l),
(456,480,l)
);
},
{
closed = 1;
nodes = (
(49,480,l),
(218,250,l),
(36,0,l),
(66,0,l),
(248,250,l),
(79,480,l)
);
},
{
closed = 1;
nodes = (
(226,262,l),
(226,240,l),
(278,240,l),
(278,262,l)
);
}
);
width = 505;
},
{
layerId = "924B7471-43FB-4CAD-AF7E-45215B64D997";
shapes = (
{
closed = 1;
nodes = (
(391,500,l),
(268,255,l),
(401,0,l),
(609,0,l),
(464,255,l),
(598,500,l)
);
},
{
closed = 1;
nodes = (
(8,500,l),
(142,255,l),
(-3,0,l),
(205,0,l),
(338,255,l),
(215,500,l)
);
},
{
closed = 1;
nodes = (
(201,316,l),
(201,198,l),
(407,198,l),
(407,316,l)
);
}
);
width = 606;
},
{
associatedMasterId = "924B7471-43FB-4CAD-AF7E-45215B64D997";
layerId = "F5C3D28C-E414-4C66-BEF3-5A44D99AFE9E";
name = "Bold Apr 29 13, 20:04";
shapes = (
{
closed = 1;
nodes = (
(565,0,l),
(387,261,l),
(555,500,l),
(325,500,l),
(274,391,l),
(225,500,l),
(-5,500,l),
(164,258,l),
(-15,0,l),
(215,0,l),
(279,124,l),
(335,0,l)
);
}
);
width = 550;
}
);
unicode = 120;
},
{
glyphname = y;
kernLeft = y;
kernRight = y;
lastChange = "2024-09-05 12:38:30 +0000";
layers = (
{
anchors = (
{
name = bottom;
pos = (432,-11);
},
{
name = top;
pos = (267,554);
}
);
layerId = "DB82AE46-9E91-4728-8B1E-D34291E5A7BF";
shapes = (
{
closed = 1;
nodes = (
(418,487,l),
(291,124,ls),
(282,98,o),
(270,63,o),
(260,37,cs),
(236,-21,ls),
(211,-82,o),
(173,-125,o),
(94,-150,c),
(102,-206,l),
(223,-200,o),
(283,-113,o),
(315,-27,cs),
(510,487,l)
);
},
{
closed = 1;
nodes = (
(18,487,l),
(195,22,ls),
(199,8,o),
(211,0,o),
(225,0,cs),
(251,0,l),
(279,65,l),
(256,65,l),
(252,85,o),
(245,104,o),
(238,124,cs),
(109,487,l)
);
}
);
width = 528.61176;
},
{
anchors = (
{
name = bottom;
pos = (394,-11);
},
{
name = top;
pos = (256,558);
}
);
background = {
anchors = (
{
name = bottom;
pos = (394,-11);
},
{
name = top;
pos = (256,558);
}
);
shapes = (
{
closed = 1;
nodes = (
(451,480,l),
(282,76,ls),
(273,54,o),
(263,30,o),
(254,9,cs),
(235,-38,ls),
(208,-108,o),
(175,-165,o),
(95,-196,c),
(101,-210,l),
(187,-185,o),
(222,-126,o),
(256,-47,cs),
(477,480,l)
);
},
{
closed = 1;
nodes = (
(30,480,l),
(227,8,ls),
(230,3,o),
(234,0,o),
(240,0,cs),
(256,0,l),
(266,22,l),
(247,22,l),
(240,39,o),
(232,57,o),
(225,74,cs),
(56,480,l)
);
}
);
};
layerId = "E21536AE-9819-4FE7-8A20-8865FE3C0515";
shapes = (
{
closed = 1;
nodes = (
(451,480,l),
(282,76,ls),
(273,54,o),
(263,30,o),
(254,9,cs),
(235,-38,ls),
(208,-108,o),
(175,-165,o),
(95,-196,c),
(101,-210,l),
(187,-185,o),
(222,-126,o),
(256,-47,cs),
(477,480,l)
);
},
{
closed = 1;
nodes = (
(30,480,l),
(227,8,ls),
(230,3,o),
(234,0,o),
(240,0,cs),
(256,0,l),
(266,22,l),
(247,22,l),
(240,39,o),
(232,57,o),
(225,74,cs),
(56,480,l)
);
}
);
width = 506;
},
{
anchors = (
{
name = bottom;
pos = (527,-12);
},
{
name = top;
pos = (306,557);
}
);
layerId = "924B7471-43FB-4CAD-AF7E-45215B64D997";
shapes = (
{
closed = 1;
nodes = (
(381,500,l),
(322,224,ls),
(315,188,o),
(304,127,o),
(289,94,cs),
(252,14,ls),
(226,-42,o),
(181,-67,o),
(98,-84,c),
(112,-197,l),
(319,-241,o),
(411,-96,o),
(445,14,cs),
(604,500,l)
);
},
{
closed = 1;
nodes = (
(-3,500,l),
(145,49,ls),
(154,19,o),
(179,0,o),
(211,0,cs),
(257,0,l),
(322,130,l),
(292,130,l),
(288,161,o),
(284,193,o),
(279,224,cs),
(220,500,l)
);
}
);
width = 602;
}
);
unicode = 121;
},
{
glyphname = z;
kernLeft = z;
kernRight = z;
lastChange = "2024-09-05 12:38:30 +0000";
layers = (
{
anchors = (
{
name = bottom;
pos = (259,-11);
},
{
name = top;
pos = (254,554);
}
);
layerId = "DB82AE46-9E91-4728-8B1E-D34291E5A7BF";
shapes = (
{
closed = 1;
nodes = (
(49,69,l),
(144,68,l),
(458,417,l),
(363,418,l)
);
},
{
closed = 1;
nodes = (
(49,69,l),
(49,0,l),
(461,0,l),
(461,69,l)
);
},
{
closed = 1;
nodes = (
(52,487,l),
(52,417,l),
(458,417,l),
(458,487,l)
);
}
);
width = 509.94118;
},
{
anchors = (
{
name = bottom;
pos = (255,-11);
},
{
name = top;
pos = (245,558);
}
);
layerId = "E21536AE-9819-4FE7-8A20-8865FE3C0515";
shapes = (
{
closed = 1;
nodes = (
(53,22,l),
(83,21,l),
(443,458,l),
(413,459,l)
);
},
{
closed = 1;
nodes = (
(53,22,l),
(53,0,l),
(446,0,l),
(446,22,l)
);
},
{
closed = 1;
nodes = (
(56,480,l),
(56,458,l),
(443,458,l),
(443,480,l)
);
}
);
width = 499;
},
{
anchors = (
{
name = bottom;
pos = (283,-12);
},
{
name = top;
pos = (282,557);
}
);
layerId = "924B7471-43FB-4CAD-AF7E-45215B64D997";
shapes = (
{
closed = 1;
nodes = (
(29,135,l),
(273,134,l),
(506,365,l),
(262,366,l)
);
},
{
closed = 1;
nodes = (
(29,135,l),
(29,0,l),
(512,0,l),
(512,135,l)
);
},
{
closed = 1;
nodes = (
(35,500,l),
(35,365,l),
(506,365,l),
(506,500,l)
);
}
);
width = 541;
}
);
unicode = 122;
},
{
color = (255,121,166,255);
glyphname = eth.rvrn;
lastChange = "2024-09-05 12:38:30 +0000";
layers = (
{
layerId = "DB82AE46-9E91-4728-8B1E-D34291E5A7BF";
shapes = (
{
closed = 1;
nodes = (
(116,636,l),
(250,641,o),
(404,596,o),
(404,287,cs),
(404,140,o),
(388,59,o),
(273,59,cs),
(182,59,o),
(142,101,o),
(141,219,cs),
(142,319,o),
(172,377,o),
(270,377,cs),
(328,377,o),
(376,367,o),
(431,340,c),
(438,377,l),
(379,435,o),
(311,448,o),
(256,448,cs),
(106,448,o),
(52,365,o),
(52,219,cs),
(52,57,o),
(122,-13,o),
(272,-13,cs),
(454,-13,o),
(493,107,o),
(493,283,cs),
(493,615,o),
(307,706,o),
(126,698,c)
);
},
{
closed = 1;
nodes = (
(292,619,l),
(338,569,l),
(461,678,l),
(415,730,l)
);
}
);
width = 550.91765;
},
{
layerId = "E21536AE-9819-4FE7-8A20-8865FE3C0515";
shapes = (
{
closed = 1;
nodes = (
(116,680,l),
(218,680,o),
(443,652,o),
(443,286,cs),
(443,122,o),
(422,10,o),
(270,10,cs),
(153,10,o),
(95,67,o),
(95,220,cs),
(95,337,o),
(133,424,o),
(264,424,cs),
(327,424,o),
(378,411,o),
(450,363,c),
(457,378,l),
(384,430,o),
(326,446,o),
(269,446,cs),
(122,446,o),
(70,358,o),
(70,221,cs),
(70,57,o),
(134,-12,o),
(270,-12,cs),
(452,-12,o),
(467,130,o),
(467,279,cs),
(467,655,o),
(247,700,o),
(122,698,c)
);
},
{
closed = 1;
nodes = (
(322,634,l),
(337,620,l),
(425,681,l),
(414,698,l)
);
}
);
width = 548;
},
{
layerId = "924B7471-43FB-4CAD-AF7E-45215B64D997";
shapes = (
{
closed = 1;
nodes = (
(129,568,l),
(332,583,o),
(356,500,o),
(356,290,cs),
(356,155,o),
(349,130,o),
(299,130,cs),
(256,130,o),
(247,147,o),
(247,218,cs),
(247,305,o),
(265,311,o),
(302,311,cs),
(353,311,o),
(397,303,o),
(423,292,c),
(431,376,l),
(396,446,o),
(304,453,o),
(252,453,cs),
(87,453,o),
(27,378,o),
(27,214,cs),
(27,58,o),
(112,-14,o),
(297,-14,cs),
(489,-14,o),
(576,60,o),
(576,291,cs),
(576,533,o),
(447,719,o),
(146,698,c)
);
},
{
closed = 1;
nodes = (
(282,596,l),
(401,485,l),
(558,641,l),
(439,754,l)
);
}
);
width = 604;
}
);
},
{
color = (255,121,166,255);
glyphname = oslash.rvrn;
lastChange = "2024-09-05 12:38:30 +0000";
layers = (
{
anchors = (
{
name = top;
pos = (286,550);
}
);
layerId = "DB82AE46-9E91-4728-8B1E-D34291E5A7BF";
shapes = (
{
closed = 1;
nodes = (
(143,40,l),
(105,-38,l),
(165,-65,l),
(203,14,l)
);
},
{
closed = 1;
nodes = (
(409,433,l),
(462,544,l),
(401,574,l),
(347,461,l)
);
},
{
ref = o;
}
);
userData = {
com.schriftgestaltung.Glyphs.glyph.rightMetricsKey = o;
com.schriftgestaltung.componentsAlignment = (
-1
);
};
width = 568;
},
{
anchors = (
{
name = top;
pos = (279,558);
}
);
layerId = "E21536AE-9819-4FE7-8A20-8865FE3C0515";
shapes = (
{
closed = 1;
nodes = (
(161,19,l),
(128,-52,l),
(147,-61,l),
(184,19,l)
);
},
{
closed = 1;
nodes = (
(393,465,l),
(423,530,l),
(404,539,l),
(370,465,l)
);
},
{
ref = o;
}
);
userData = {
com.schriftgestaltung.Glyphs.glyph.rightMetricsKey = o;
};
width = 560;
},
{
anchors = (
{
name = top;
pos = (306,547);
}
);
layerId = "924B7471-43FB-4CAD-AF7E-45215B64D997";
shapes = (
{
closed = 1;
nodes = (
(130,76,l),
(78,-36,l),
(207,-85,l),
(259,26,l)
);
},
{
closed = 1;
nodes = (
(494,414,l),
(544,521,l),
(415,570,l),
(365,463,l)
);
},
{
ref = o;
}
);
userData = {
com.schriftgestaltung.Glyphs.glyph.rightMetricsKey = o;
};
width = 611;
}
);
},
{
glyphname = oslashacute.rvrn;
lastChange = "2024-09-05 12:38:30 +0000";
layers = (
{
layerId = "DB82AE46-9E91-4728-8B1E-D34291E5A7BF";
shapes = (
{
closed = 1;
nodes = (
(347,461,l),
(409,433,l),
(462,544,l),
(401,574,l)
);
},
{
closed = 1;
nodes = (
(105,-38,l),
(165,-65,l),
(203,14,l),
(143,40,l)
);
},
{
pos = (517,13);
ref = acutecomb;
},
{
ref = o;
}
);
width = 568;
},
{
layerId = "E21536AE-9819-4FE7-8A20-8865FE3C0515";
shapes = (
{
closed = 1;
nodes = (
(370,465,l),
(393,465,l),
(423,530,l),
(404,539,l)
);
},
{
closed = 1;
nodes = (
(128,-52,l),
(147,-61,l),
(184,18,l),
(161,18,l)
);
},
{
pos = (491,4);
ref = acutecomb;
},
{
ref = o;
}
);
width = 560;
},
{
layerId = "924B7471-43FB-4CAD-AF7E-45215B64D997";
shapes = (
{
closed = 1;
nodes = (
(365,463,l),
(494,414,l),
(544,521,l),
(415,570,l)
);
},
{
closed = 1;
nodes = (
(78,-36,l),
(207,-85,l),
(259,26,l),
(130,76,l)
);
},
{
pos = (517,13);
ref = acutecomb;
},
{
ref = o;
}
);
width = 611;
}
);
},
{
glyphname = c_t;
kernLeft = c;
kernRight = t;
lastChange = "2024-09-05 13:05:51 +0000";
layers = (
{
anchors = (
{
name = bottom_1;
pos = (207,0);
},
{
name = bottom_2;
pos = (622,0);
},
{
name = caret_1;
pos = (414.476,0);
},
{
name = top_1;
pos = (207,487);
},
{
name = top_2;
pos = (622,487);
}
);
layerId = "DB82AE46-9E91-4728-8B1E-D34291E5A7BF";
shapes = (
{
closed = 1;
nodes = (
(286,487,ls),
(127,487,o),
(54,421,o),
(54,244,cs),
(54,56,o),
(116,-12,o),
(283,-12,cs),
(336,-12,o),
(392,-4,o),
(436,13,c),
(428,70,l),
(382,62,o),
(324,60,o),
(297,60,cs),
(183,60,o),
(144,101,o),
(144,244,cs),
(144,380,o),
(184,420,o),
(300,420,cs),
(803,420,l),
(803,487,l)
);
},
{
closed = 1;
nodes = (
(563,631,l),
(563,123,ls),
(563,38,o),
(605,-9,o),
(687,-9,cs),
(712,-9,o),
(766,-5,o),
(797,4,c),
(788,69,l),
(714,69,ls),
(666,69,o),
(647,87,o),
(647,134,cs),
(647,631,l)
);
}
);
userData = {
com.schriftgestaltung.Glyphs.glyph.leftMetricsKey = c;
com.schriftgestaltung.Glyphs.glyph.rightMetricsKey = t;
};
width = 828.95294;
},
{
anchors = (
{
name = bottom_1;
pos = (196,0);
},
{
name = bottom_2;
pos = (587,0);
},
{
name = caret_1;
pos = (391.5,0);
},
{
name = top_1;
pos = (196,480);
},
{
name = top_2;
pos = (587,480);
}
);
layerId = "E21536AE-9819-4FE7-8A20-8865FE3C0515";
shapes = (
{
closed = 1;
nodes = (
(288,480,ls),
(127,480,o),
(69,413,o),
(69,240,cs),
(69,55,o),
(126,-12,o),
(279,-12,cs),
(321,-12,o),
(366,-5,o),
(404,5,c),
(400,23,l),
(362,14,o),
(306,11,o),
(282,11,cs),
(144,11,o),
(94,63,o),
(94,240,cs),
(94,406,o),
(147,458,o),
(292,458,cs),
(759,458,l),
(759,480,l)
);
},
{
closed = 1;
nodes = (
(557,631,l),
(557,95,ls),
(557,30,o),
(593,-6,o),
(667,-6,cs),
(684,-6,o),
(725,-4,o),
(752,0,c),
(749,16,l),
(661,16,ls),
(610,16,o),
(581,43,o),
(581,96,cs),
(581,631,l)
);
}
);
userData = {
com.schriftgestaltung.Glyphs.glyph.leftMetricsKey = c;
com.schriftgestaltung.Glyphs.glyph.rightMetricsKey = t;
};
width = 783;
},
{
anchors = (
{
name = bottom_1;
pos = (221,0);
},
{
name = bottom_2;
pos = (662,0);
},
{
name = caret_1;
pos = (441,0);
},
{
name = top_1;
pos = (221,500);
},
{
name = top_2;
pos = (662,500);
}
);
layerId = "924B7471-43FB-4CAD-AF7E-45215B64D997";
shapes = (
{
closed = 1;
nodes = (
(294,500,ls),
(97,500,o),
(26,433,o),
(26,251,cs),
(26,58,o),
(96,-12,o),
(292,-12,cs),
(358,-12,o),
(430,-1,o),
(480,30,c),
(461,161,l),
(410,154,o),
(358,154,o),
(330,154,cs),
(266,154,o),
(246,173,o),
(246,251,cs),
(246,349,o),
(266,374,o),
(330,374,cs),
(870,374,l),
(870,500,l)
);
},
{
closed = 1;
nodes = (
(538,631,l),
(539,126,ls),
(539,38,o),
(601,-14,o),
(698,-14,cs),
(745,-14,o),
(825,-6,o),
(868,12,c),
(845,146,l),
(792,146,l),
(761,146,o),
(749,156,o),
(749,182,cs),
(749,631,l)
);
}
);
userData = {
com.schriftgestaltung.Glyphs.glyph.leftMetricsKey = c;
com.schriftgestaltung.Glyphs.glyph.rightMetricsKey = t;
};
width = 882;
}
);
},
{
glyphname = f_f;
kernLeft = f;
kernRight = f;
lastChange = "2024-09-05 13:05:51 +0000";
layers = (
{
anchors = (
{
name = caret_1;
pos = (355.259,0);
}
);
layerId = "DB82AE46-9E91-4728-8B1E-D34291E5A7BF";
shapes = (
{
closed = 1;
nodes = (
(161,704,o),
(116,652,o),
(116,562,cs),
(116,0,l),
(201,0,l),
(201,552,ls),
(201,617,o),
(224,634,o),
(288,634,cs),
(374,634,l),
(380,697,l),
(346,702,o),
(287,704,o),
(258,704,cs)
);
},
{
closed = 1;
nodes = (
(484,717,o),
(446,665,o),
(446,574,cs),
(446,0,l),
(532,0,l),
(532,565,ls),
(532,624,o),
(554,647,o),
(618,647,cs),
(719,647,l),
(725,710,l),
(687,715,o),
(620,717,o),
(588,717,cs)
);
},
{
closed = 1;
nodes = (
(121,487,l),
(28,482,l),
(28,420,l),
(687,420,l),
(687,487,l)
);
}
);
userData = {
com.schriftgestaltung.Glyphs.glyph.leftMetricsKey = f;
com.schriftgestaltung.Glyphs.glyph.rightMetricsKey = f;
};
width = 710.51765;
},
{
anchors = (
{
name = caret_1;
pos = (329,0);
}
);
layerId = "E21536AE-9819-4FE7-8A20-8865FE3C0515";
shapes = (
{
closed = 1;
nodes = (
(155,694,o),
(122,649,o),
(122,561,cs),
(122,0,l),
(146,0,l),
(146,561,ls),
(146,643,o),
(175,672,o),
(255,672,cs),
(365,672,l),
(365,690,l),
(331,693,o),
(275,694,o),
(247,694,cs)
);
},
{
closed = 1;
nodes = (
(459,714,o),
(426,669,o),
(426,581,cs),
(426,0,l),
(450,0,l),
(450,581,ls),
(450,663,o),
(479,692,o),
(559,692,cs),
(669,692,l),
(669,710,l),
(635,713,o),
(579,714,o),
(551,714,cs)
);
},
{
closed = 1;
nodes = (
(128,480,l),
(35,475,l),
(35,458,l),
(628,458,l),
(628,480,l)
);
}
);
userData = {
com.schriftgestaltung.Glyphs.glyph.leftMetricsKey = f;
com.schriftgestaltung.Glyphs.glyph.rightMetricsKey = f;
};
width = 658;
},
{
anchors = (
{
name = caret_1;
pos = (401,0);
}
);
layerId = "924B7471-43FB-4CAD-AF7E-45215B64D997";
shapes = (
{
closed = 1;
nodes = (
(139,714,o),
(95,645,o),
(92,551,cs),
(92,0,l),
(295,0,l),
(295,522,ls),
(295,561,o),
(306,574,o),
(343,574,cs),
(416,574,l),
(436,700,l),
(392,710,o),
(309,714,o),
(273,714,cs)
);
},
{
closed = 1;
nodes = (
(517,724,o),
(470,655,o),
(470,561,cs),
(470,0,l),
(673,0,l),
(673,532,ls),
(673,571,o),
(684,584,o),
(721,584,cs),
(814,584,l),
(834,710,l),
(784,720,o),
(691,724,o),
(651,724,cs)
);
},
{
closed = 1;
nodes = (
(93,500,l),
(8,495,l),
(8,374,l),
(797,374,l),
(797,500,l)
);
}
);
userData = {
com.schriftgestaltung.Glyphs.glyph.leftMetricsKey = f;
com.schriftgestaltung.Glyphs.glyph.rightMetricsKey = f;
};
width = 802;
}
);
},
{
glyphname = f_f_i;
kernLeft = f;
kernRight = i;
lastChange = "2024-09-05 13:05:51 +0000";
layers = (
{
anchors = (
{
name = caret_1;
pos = (309.529,0);
},
{
name = caret_2;
pos = (619.059,0);
}
);
layerId = "DB82AE46-9E91-4728-8B1E-D34291E5A7BF";
shapes = (
{
closed = 1;
nodes = (
(154,704,o),
(109,652,o),
(109,562,cs),
(109,0,l),
(194,0,l),
(194,552,ls),
(194,617,o),
(217,634,o),
(281,634,cs),
(366,634,l),
(373,697,l),
(339,702,o),
(279,704,o),
(251,704,cs)
);
},
{
closed = 1;
nodes = (
(121,487,l),
(28,482,l),
(28,420,l),
(773,420,l),
(773,487,l)
);
},
{
closed = 1;
nodes = (
(477,717,o),
(439,662,o),
(439,564,cs),
(439,0,l),
(524,0,l),
(524,555,ls),
(524,623,o),
(547,647,o),
(611,647,cs),
(700,647,l),
(700,710,l),
(665,715,o),
(610,717,o),
(581,717,cs)
);
},
{
closed = 1;
nodes = (
(763,487,l),
(763,0,l),
(847,0,l),
(847,487,l)
);
},
{
closed = 1;
nodes = (
(784,694,ls),
(767,694,o),
(759,684,o),
(759,668,cs),
(759,611,ls),
(759,593,o),
(767,585,o),
(784,585,cs),
(824,585,ls),
(842,585,o),
(850,593,o),
(850,611,cs),
(850,668,ls),
(850,684,o),
(842,694,o),
(824,694,cs)
);
}
);
userData = {
com.schriftgestaltung.Glyphs.glyph.leftMetricsKey = f;
com.schriftgestaltung.Glyphs.glyph.rightMetricsKey = i;
};
width = 928.58824;
},
{
anchors = (
{
name = caret_1;
pos = (284,0);
},
{
name = caret_2;
pos = (568,0);
}
);
layerId = "E21536AE-9819-4FE7-8A20-8865FE3C0515";
shapes = (
{
closed = 1;
nodes = (
(155,694,o),
(122,649,o),
(122,561,cs),
(122,0,l),
(146,0,l),
(146,561,ls),
(146,643,o),
(175,672,o),
(255,672,cs),
(365,672,l),
(365,690,l),
(331,693,o),
(275,694,o),
(247,694,cs)
);
},
{
closed = 1;
nodes = (
(128,480,l),
(35,475,l),
(35,458,l),
(745,457,l),
(745,480,l)
);
},
{
closed = 1;
nodes = (
(459,714,o),
(426,669,o),
(426,581,cs),
(426,0,l),
(450,0,l),
(450,581,ls),
(450,663,o),
(479,692,o),
(559,692,cs),
(669,692,l),
(669,710,l),
(635,713,o),
(579,714,o),
(551,714,cs)
);
},
{
closed = 1;
nodes = (
(730,480,l),
(730,0,l),
(754,0,l),
(754,480,l)
);
},
{
closed = 1;
nodes = (
(737,679,ls),
(729,679,o),
(725,675,o),
(725,667,cs),
(725,605,ls),
(725,597,o),
(729,593,o),
(737,593,cs),
(747,593,ls),
(755,593,o),
(759,597,o),
(759,605,cs),
(759,667,ls),
(759,675,o),
(755,679,o),
(747,679,cs)
);
}
);
userData = {
com.schriftgestaltung.Glyphs.glyph.leftMetricsKey = f;
com.schriftgestaltung.Glyphs.glyph.rightMetricsKey = i;
};
width = 852;
},
{
anchors = (
{
name = caret_1;
pos = (366.667,0);
},
{
name = caret_2;
pos = (733.333,0);
}
);
layerId = "924B7471-43FB-4CAD-AF7E-45215B64D997";
shapes = (
{
closed = 1;
nodes = (
(139,714,o),
(95,645,o),
(92,551,cs),
(92,0,l),
(295,0,l),
(295,522,ls),
(295,561,o),
(306,574,o),
(343,574,cs),
(416,574,l),
(436,700,l),
(392,710,o),
(309,714,o),
(273,714,cs)
);
},
{
closed = 1;
nodes = (
(93,500,l),
(8,495,l),
(8,374,l),
(843,374,l),
(843,500,l)
);
},
{
closed = 1;
nodes = (
(518,724,o),
(471,655,o),
(471,561,cs),
(471,0,l),
(673,0,l),
(673,532,ls),
(673,571,o),
(684,584,o),
(729,584,cs),
(798,584,l),
(798,710,l),
(752,720,o),
(692,724,o),
(654,724,cs)
);
},
{
closed = 1;
nodes = (
(842,500,l),
(842,0,l),
(1053,0,l),
(1053,500,l)
);
},
{
closed = 1;
nodes = (
(905,739,ls),
(863,739,o),
(843,719,o),
(843,677,cs),
(843,626,ls),
(843,584,o),
(863,564,o),
(905,564,cs),
(992,564,ls),
(1034,564,o),
(1054,584,o),
(1054,626,cs),
(1054,677,ls),
(1054,719,o),
(1034,739,o),
(992,739,cs)
);
}
);
userData = {
com.schriftgestaltung.Glyphs.glyph.leftMetricsKey = f;
com.schriftgestaltung.Glyphs.glyph.rightMetricsKey = i;
};
width = 1100;
}
);
},
{
glyphname = f_f_l;
kernLeft = f;
kernRight = l;
lastChange = "2024-09-05 13:05:51 +0000";
layers = (
{
anchors = (
{
name = caret_1;
pos = (333.322,0);
},
{
name = caret_2;
pos = (666.643,0);
}
);
layerId = "DB82AE46-9E91-4728-8B1E-D34291E5A7BF";
shapes = (
{
closed = 1;
nodes = (
(161,704,o),
(116,652,o),
(116,562,cs),
(116,0,l),
(201,0,l),
(201,552,ls),
(201,617,o),
(224,634,o),
(288,634,cs),
(374,634,l),
(380,697,l),
(346,702,o),
(287,704,o),
(258,704,cs)
);
},
{
closed = 1;
nodes = (
(484,718,o),
(446,662,o),
(446,564,cs),
(446,0,l),
(532,0,l),
(532,555,ls),
(532,624,o),
(554,649,o),
(618,648,cs),
(782,648,l),
(782,105,ls),
(782,33,o),
(828,-9,o),
(901,-9,cs),
(925,-9,o),
(971,-5,o),
(990,4,c),
(980,58,l),
(933,58,ls),
(890,58,o),
(867,80,o),
(867,124,cs),
(867,705,l),
(800,716,o),
(640,717,o),
(588,717,cs)
);
},
{
closed = 1;
nodes = (
(121,487,l),
(28,482,l),
(28,420,l),
(680,420,l),
(680,487,l)
);
}
);
userData = {
com.schriftgestaltung.Glyphs.glyph.leftMetricsKey = f;
com.schriftgestaltung.Glyphs.glyph.rightMetricsKey = l;
};
width = 999.96471;
},
{
anchors = (
{
name = caret_1;
pos = (306.333,0);
},
{
name = caret_2;
pos = (612.667,0);
}
);
layerId = "E21536AE-9819-4FE7-8A20-8865FE3C0515";
shapes = (
{
closed = 1;
nodes = (
(155,694,o),
(122,649,o),
(122,561,cs),
(122,0,l),
(146,0,l),
(146,561,ls),
(146,643,o),
(175,672,o),
(255,672,cs),
(365,672,l),
(365,690,l),
(331,693,o),
(275,694,o),
(247,694,cs)
);
},
{
closed = 1;
nodes = (
(459,714,o),
(426,669,o),
(426,581,cs),
(426,0,l),
(450,0,l),
(450,581,ls),
(450,663,o),
(479,693,o),
(559,692,cs),
(744,692,l),
(744,95,ls),
(744,30,o),
(784,-6,o),
(845,-6,cs),
(863,-6,o),
(896,-4,o),
(909,0,c),
(906,16,l),
(848,16,ls),
(797,16,o),
(768,44,o),
(768,96,cs),
(768,708,l),
(734,711,o),
(579,714,o),
(551,714,cs)
);
},
{
closed = 1;
nodes = (
(128,480,l),
(35,475,l),
(35,458,l),
(628,458,l),
(628,480,l)
);
}
);
userData = {
com.schriftgestaltung.Glyphs.glyph.leftMetricsKey = f;
com.schriftgestaltung.Glyphs.glyph.rightMetricsKey = l;
};
width = 919;
},
{
anchors = (
{
name = caret_1;
pos = (383.667,0);
},
{
name = caret_2;
pos = (767.333,0);
}
);
layerId = "924B7471-43FB-4CAD-AF7E-45215B64D997";
shapes = (
{
closed = 1;
nodes = (
(139,714,o),
(95,645,o),
(92,551,cs),
(92,0,l),
(295,0,l),
(295,522,ls),
(295,561,o),
(306,574,o),
(343,574,cs),
(416,574,l),
(436,700,l),
(392,710,o),
(309,714,o),
(273,714,cs)
);
},
{
closed = 1;
nodes = (
(516,724,o),
(470,655,o),
(470,561,cs),
(470,0,l),
(673,0,l),
(673,532,ls),
(673,575,o),
(691,587,o),
(719,587,cs),
(852,587,l),
(852,126,ls),
(852,38,o),
(912,-14,o),
(1011,-14,cs),
(1049,-14,o),
(1124,-6,o),
(1153,12,c),
(1130,146,l),
(1103,146,ls),
(1075,146,o),
(1062,156,o),
(1062,182,cs),
(1062,700,l),
(926,726,o),
(694,724,o),
(651,724,cs)
);
},
{
closed = 1;
nodes = (
(93,500,l),
(8,495,l),
(8,374,l),
(785,374,l),
(785,500,l)
);
}
);
userData = {
com.schriftgestaltung.Glyphs.glyph.leftMetricsKey = f;
com.schriftgestaltung.Glyphs.glyph.rightMetricsKey = l;
};
width = 1151;
}
);
},
{
glyphname = f_f_y;
kernLeft = f;
kernRight = y;
lastChange = "2024-09-05 13:05:51 +0000";
layers = (
{
anchors = (
{
name = bottom_1;
pos = (201,0);
},
{
name = bottom_2;
pos = (602,0);
},
{
name = bottom_3;
pos = (1004,0);
},
{
name = caret_1;
pos = (401.439,0);
},
{
name = caret_2;
pos = (802.878,0);
},
{
name = top_1;
pos = (201,700);
},
{
name = top_2;
pos = (602,700);
},
{
name = top_3;
pos = (1004,700);
}
);
layerId = "DB82AE46-9E91-4728-8B1E-D34291E5A7BF";
shapes = (
{
closed = 1;
nodes = (
(121,487,l),
(28,482,l),
(28,420,l),
(672,420,ls),
(704,420,o),
(724,406,o),
(735,377,cs),
(871,22,l),
(875,8,o),
(886,0,o),
(901,0,cs),
(933,0,l),
(959,65,l),
(932,65,l),
(927,85,o),
(921,104,o),
(914,124,cs),
(816,396,ls),
(795,457,o),
(754,487,o),
(688,487,cs)
);
},
{
closed = 1;
nodes = (
(161,704,o),
(116,652,o),
(116,562,cs),
(116,0,l),
(201,0,l),
(201,552,ls),
(201,617,o),
(224,634,o),
(288,634,cs),
(374,634,l),
(380,697,l),
(346,702,o),
(287,704,o),
(258,704,cs)
);
},
{
closed = 1;
nodes = (
(485,717,o),
(447,665,o),
(447,574,cs),
(447,0,l),
(532,0,l),
(532,565,ls),
(532,624,o),
(555,647,o),
(619,647,cs),
(719,647,l),
(726,710,l),
(688,715,o),
(621,717,o),
(589,717,cs)
);
},
{
closed = 1;
nodes = (
(1094,487,l),
(966,124,ls),
(958,100,o),
(951,74,o),
(941,51,cs),
(911,-21,ls),
(886,-81,o),
(849,-125,o),
(769,-150,c),
(778,-206,l),
(899,-200,o),
(958,-113,o),
(991,-27,cs),
(1186,487,l)
);
}
);
userData = {
com.schriftgestaltung.Glyphs.glyph.leftMetricsKey = f;
com.schriftgestaltung.Glyphs.glyph.rightMetricsKey = y;
};
width = 1204.31765;
},
{
anchors = (
{
name = bottom_1;
pos = (188,0);
},
{
name = bottom_2;
pos = (564,0);
},
{
name = bottom_3;
pos = (939,0);
},
{
name = caret_1;
pos = (375.667,0);
},
{
name = caret_2;
pos = (751.333,0);
},
{
name = top_1;
pos = (188,700);
},
{
name = top_2;
pos = (564,700);
},
{
name = top_3;
pos = (939,700);
}
);
layerId = "E21536AE-9819-4FE7-8A20-8865FE3C0515";
shapes = (
{
closed = 1;
nodes = (
(128,480,l),
(35,475,l),
(35,458,l),
(598,458,ls),
(641,458,o),
(668,440,o),
(684,401,cs),
(848,8,l),
(851,3,o),
(855,0,o),
(861,0,cs),
(877,0,l),
(887,22,l),
(868,22,l),
(861,39,o),
(853,57,o),
(846,74,cs),
(707,409,ls),
(686,458,o),
(653,480,o),
(600,480,cs)
);
},
{
closed = 1;
nodes = (
(155,694,o),
(122,649,o),
(122,561,cs),
(122,0,l),
(146,0,l),
(146,561,ls),
(146,643,o),
(175,672,o),
(255,672,cs),
(365,672,l),
(365,690,l),
(331,693,o),
(275,694,o),
(247,694,cs)
);
},
{
closed = 1;
nodes = (
(459,714,o),
(426,669,o),
(426,581,cs),
(426,0,l),
(450,0,l),
(450,581,ls),
(450,663,o),
(479,692,o),
(559,692,cs),
(669,692,l),
(669,710,l),
(635,713,o),
(579,714,o),
(551,714,cs)
);
},
{
closed = 1;
nodes = (
(1072,480,l),
(903,75,ls),
(894,53,o),
(885,31,o),
(876,9,cs),
(856,-38,ls),
(827,-107,o),
(796,-165,o),
(716,-196,c),
(722,-210,l),
(808,-185,o),
(843,-126,o),
(877,-47,cs),
(1098,480,l)
);
}
);
userData = {
com.schriftgestaltung.Glyphs.glyph.leftMetricsKey = f;
com.schriftgestaltung.Glyphs.glyph.rightMetricsKey = y;
};
width = 1127;
},
{
anchors = (
{
name = bottom_1;
pos = (224,0);
},
{
name = bottom_2;
pos = (672,0);
},
{
name = bottom_3;
pos = (1120,0);
},
{
name = caret_1;
pos = (448,0);
},
{
name = caret_2;
pos = (896,0);
},
{
name = top_1;
pos = (224,700);
},
{
name = top_2;
pos = (672,700);
},
{
name = top_3;
pos = (1120,700);
}
);
layerId = "924B7471-43FB-4CAD-AF7E-45215B64D997";
shapes = (
{
closed = 1;
nodes = (
(93,500,l),
(8,495,l),
(8,374,l),
(746,374,ls),
(769,374,o),
(784,363,o),
(791,341,cs),
(887,49,ls),
(896,19,o),
(921,0,o),
(953,0,cs),
(999,0,l),
(1064,130,l),
(1034,130,l),
(1030,161,o),
(1026,193,o),
(1021,224,c),
(990,367,ls),
(971,456,o),
(917,500,o),
(826,500,cs)
);
},
{
closed = 1;
nodes = (
(139,714,o),
(95,645,o),
(92,551,cs),
(92,0,l),
(295,0,l),
(295,522,ls),
(295,561,o),
(306,574,o),
(343,574,cs),
(416,574,l),
(436,700,l),
(392,710,o),
(309,714,o),
(273,714,cs)
);
},
{
closed = 1;
nodes = (
(516,724,o),
(469,655,o),
(469,561,cs),
(469,0,l),
(673,0,l),
(673,532,ls),
(673,571,o),
(684,584,o),
(721,584,cs),
(809,584,l),
(829,710,l),
(779,720,o),
(693,724,o),
(653,724,cs)
);
},
{
closed = 1;
nodes = (
(1123,500,l),
(1064,224,ls),
(1057,188,o),
(1046,127,o),
(1031,94,cs),
(994,14,ls),
(968,-42,o),
(923,-67,o),
(840,-84,c),
(854,-197,l),
(1061,-241,o),
(1153,-96,o),
(1187,14,cs),
(1346,500,l)
);
}
);
userData = {
com.schriftgestaltung.Glyphs.glyph.leftMetricsKey = f;
com.schriftgestaltung.Glyphs.glyph.rightMetricsKey = y;
};
width = 1344;
}
);
},
{
glyphname = f_t;
kernLeft = f;
kernRight = t;
lastChange = "2024-09-05 13:05:51 +0000";
layers = (
{
anchors = (
{
name = bottom_1;
pos = (179,0);
},
{
name = bottom_2;
pos = (536,0);
},
{
name = caret_1;
pos = (357.3,0);
},
{
name = top_1;
pos = (179,700);
},
{
name = top_2;
pos = (536,700);
}
);
layerId = "DB82AE46-9E91-4728-8B1E-D34291E5A7BF";
shapes = (
{
closed = 1;
nodes = (
(154,717,o),
(116,665,o),
(116,574,cs),
(116,0,l),
(201,0,l),
(201,565,ls),
(201,624,o),
(224,647,o),
(288,647,cs),
(381,647,l),
(388,710,l),
(351,715,o),
(288,717,o),
(258,717,cs)
);
},
{
closed = 1;
nodes = (
(448,631,l),
(448,123,ls),
(448,38,o),
(491,-9,o),
(573,-9,cs),
(597,-9,o),
(651,-5,o),
(683,4,c),
(673,69,l),
(599,69,ls),
(552,69,o),
(533,87,o),
(533,134,cs),
(533,631,l)
);
},
{
closed = 1;
nodes = (
(121,487,l),
(28,482,l),
(28,420,l),
(688,420,l),
(688,487,l)
);
}
);
userData = {
com.schriftgestaltung.Glyphs.glyph.leftMetricsKey = f;
com.schriftgestaltung.Glyphs.glyph.rightMetricsKey = t;
};
width = 714.6;
},
{
anchors = (
{
name = bottom_1;
pos = (166,0);
},
{
name = bottom_2;
pos = (499,0);
},
{
name = caret_1;
pos = (332.5,0);
},
{
name = top_1;
pos = (166,700);
},
{
name = top_2;
pos = (499,700);
}
);
layerId = "E21536AE-9819-4FE7-8A20-8865FE3C0515";
shapes = (
{
closed = 1;
nodes = (
(155,714,o),
(122,669,o),
(122,581,cs),
(122,0,l),
(146,0,l),
(146,581,ls),
(146,663,o),
(175,692,o),
(255,692,cs),
(365,692,l),
(365,710,l),
(331,713,o),
(275,714,o),
(247,714,cs)
);
},
{
closed = 1;
nodes = (
(439,631,l),
(439,95,ls),
(439,30,o),
(475,-6,o),
(549,-6,cs),
(566,-6,o),
(607,-4,o),
(634,0,c),
(631,16,l),
(543,16,ls),
(492,16,o),
(463,43,o),
(463,96,cs),
(463,631,l)
);
},
{
closed = 1;
nodes = (
(128,480,l),
(35,475,l),
(35,458,l),
(641,458,l),
(641,480,l)
);
}
);
userData = {
com.schriftgestaltung.Glyphs.glyph.leftMetricsKey = f;
com.schriftgestaltung.Glyphs.glyph.rightMetricsKey = t;
};
width = 665;
},
{
anchors = (
{
name = bottom_1;
pos = (203,0);
},
{
name = bottom_2;
pos = (608,0);
},
{
name = caret_1;
pos = (405,0);
},
{
name = top_1;
pos = (203,700);
},
{
name = top_2;
pos = (608,700);
}
);
layerId = "924B7471-43FB-4CAD-AF7E-45215B64D997";
shapes = (
{
closed = 1;
nodes = (
(139,724,o),
(92,655,o),
(92,561,cs),
(92,0,l),
(303,0,l),
(303,532,ls),
(303,571,o),
(314,584,o),
(351,584,cs),
(409,584,l),
(429,710,l),
(388,720,o),
(310,724,o),
(276,724,cs)
);
},
{
closed = 1;
nodes = (
(466,631,l),
(467,126,ls),
(467,38,o),
(529,-14,o),
(626,-14,cs),
(673,-14,o),
(753,-6,o),
(796,12,c),
(773,146,l),
(720,146,l),
(689,146,o),
(677,156,o),
(677,182,cs),
(677,631,l)
);
},
{
closed = 1;
nodes = (
(93,500,l),
(8,495,l),
(8,374,l),
(798,374,l),
(798,500,l)
);
}
);
userData = {
com.schriftgestaltung.Glyphs.glyph.leftMetricsKey = f;
com.schriftgestaltung.Glyphs.glyph.rightMetricsKey = t;
};
width = 810;
}
);
},
{
glyphname = f_y;
kernLeft = f;
kernRight = y;
lastChange = "2024-09-05 13:05:51 +0000";
layers = (
{
anchors = (
{
name = bottom_1;
pos = (218,0);
},
{
name = bottom_2;
pos = (655,0);
},
{
name = caret_1;
pos = (436.665,0);
},
{
name = top_1;
pos = (218,700);
},
{
name = top_2;
pos = (655,700);
}
);
layerId = "DB82AE46-9E91-4728-8B1E-D34291E5A7BF";
shapes = (
{
closed = 1;
nodes = (
(154,717,o),
(116,665,o),
(116,574,cs),
(116,0,l),
(201,0,l),
(201,565,ls),
(201,624,o),
(224,647,o),
(288,647,cs),
(388,647,l),
(395,710,l),
(357,715,o),
(290,717,o),
(258,717,cs)
);
},
{
closed = 1;
nodes = (
(121,487,l),
(28,482,l),
(28,420,l),
(341,420,ls),
(373,420,o),
(393,406,o),
(404,377,cs),
(540,22,l),
(544,8,o),
(555,0,o),
(570,0,cs),
(602,0,l),
(628,65,l),
(601,65,l),
(596,85,o),
(590,104,o),
(583,124,cs),
(485,396,ls),
(464,457,o),
(423,487,o),
(357,487,cs)
);
},
{
closed = 1;
nodes = (
(763,487,l),
(632,117,ls),
(626,97,o),
(617,73,o),
(610,51,cs),
(580,-21,ls),
(556,-82,o),
(518,-125,o),
(438,-150,c),
(447,-206,l),
(568,-200,o),
(627,-113,o),
(660,-27,cs),
(855,487,l)
);
}
);
userData = {
com.schriftgestaltung.Glyphs.glyph.leftMetricsKey = f;
com.schriftgestaltung.Glyphs.glyph.rightMetricsKey = y;
};
width = 873.32941;
},
{
anchors = (
{
name = bottom_1;
pos = (206,0);
},
{
name = bottom_2;
pos = (617,0);
},
{
name = caret_1;
pos = (411.5,0);
},
{
name = top_1;
pos = (206,700);
},
{
name = top_2;
pos = (617,700);
}
);
layerId = "E21536AE-9819-4FE7-8A20-8865FE3C0515";
shapes = (
{
closed = 1;
nodes = (
(155,714,o),
(122,669,o),
(122,581,cs),
(122,0,l),
(146,0,l),
(146,581,ls),
(146,663,o),
(175,692,o),
(255,692,cs),
(365,692,l),
(365,710,l),
(331,713,o),
(275,714,o),
(247,714,cs)
);
},
{
closed = 1;
nodes = (
(128,480,l),
(35,475,l),
(35,458,l),
(294,458,ls),
(337,458,o),
(364,440,o),
(380,401,cs),
(544,8,l),
(547,3,o),
(551,0,o),
(557,0,cs),
(573,0,l),
(583,22,l),
(564,22,l),
(557,39,o),
(549,57,o),
(542,74,cs),
(403,409,ls),
(382,458,o),
(349,480,o),
(296,480,cs)
);
},
{
closed = 1;
nodes = (
(768,480,l),
(588,50,ls),
(582,36,o),
(577,23,o),
(571,9,cs),
(552,-38,ls),
(525,-108,o),
(492,-165,o),
(412,-196,c),
(418,-210,l),
(504,-185,o),
(539,-126,o),
(573,-47,cs),
(794,480,l)
);
}
);
userData = {
com.schriftgestaltung.Glyphs.glyph.leftMetricsKey = f;
com.schriftgestaltung.Glyphs.glyph.rightMetricsKey = y;
};
width = 823;
},
{
anchors = (
{
name = bottom_1;
pos = (242,0);
},
{
name = bottom_2;
pos = (725,0);
},
{
name = caret_1;
pos = (483.5,0);
},
{
name = top_1;
pos = (242,700);
},
{
name = top_2;
pos = (725,700);
}
);
layerId = "924B7471-43FB-4CAD-AF7E-45215B64D997";
shapes = (
{
closed = 1;
nodes = (
(139,724,o),
(92,655,o),
(92,561,cs),
(92,0,l),
(303,0,l),
(303,532,ls),
(303,571,o),
(314,584,o),
(351,584,cs),
(439,584,l),
(459,710,l),
(409,720,o),
(316,724,o),
(276,724,cs)
);
},
{
closed = 1;
nodes = (
(93,500,l),
(8,495,l),
(8,374,l),
(369,374,ls),
(392,374,o),
(407,363,o),
(414,341,cs),
(510,49,ls),
(519,19,o),
(544,0,o),
(576,0,cs),
(622,0,l),
(687,130,l),
(657,130,l),
(653,161,o),
(649,193,o),
(644,224,cs),
(613,367,ls),
(594,456,o),
(540,500,o),
(449,500,cs)
);
},
{
closed = 1;
nodes = (
(746,500,l),
(687,224,ls),
(680,188,o),
(669,127,o),
(654,94,cs),
(617,14,ls),
(591,-42,o),
(546,-67,o),
(463,-84,c),
(477,-197,l),
(684,-241,o),
(776,-96,o),
(810,14,cs),
(969,500,l)
);
}
);
userData = {
com.schriftgestaltung.Glyphs.glyph.leftMetricsKey = f;
com.schriftgestaltung.Glyphs.glyph.rightMetricsKey = y;
};
width = 967;
}
);
},
{
glyphname = fi;
kernLeft = f;
kernRight = H;
lastChange = "2024-09-05 13:05:51 +0000";
layers = (
{
anchors = (
{
name = caret_1;
pos = (303.176,0);
}
);
layerId = "DB82AE46-9E91-4728-8B1E-D34291E5A7BF";
shapes = (
{
closed = 1;
nodes = (
(154,717,o),
(116,662,o),
(116,564,cs),
(116,0,l),
(201,0,l),
(201,555,ls),
(201,623,o),
(224,647,o),
(288,647,cs),
(372,647,l),
(372,710,l),
(338,715,o),
(286,717,o),
(258,717,cs)
);
},
{
closed = 1;
nodes = (
(121,487,l),
(28,482,l),
(28,420,l),
(450,420,l),
(450,487,l)
);
},
{
closed = 1;
nodes = (
(440,487,l),
(440,0,l),
(524,0,l),
(524,487,l)
);
},
{
closed = 1;
nodes = (
(461,694,ls),
(444,694,o),
(436,684,o),
(436,668,cs),
(436,611,ls),
(436,593,o),
(444,585,o),
(461,585,cs),
(501,585,ls),
(519,585,o),
(527,593,o),
(527,611,cs),
(527,668,ls),
(527,684,o),
(519,694,o),
(501,694,cs)
);
}
);
userData = {
com.schriftgestaltung.Glyphs.glyph.leftMetricsKey = f;
};
width = 606.35294;
},
{
anchors = (
{
name = caret_1;
pos = (274,0);
}
);
layerId = "E21536AE-9819-4FE7-8A20-8865FE3C0515";
shapes = (
{
closed = 1;
nodes = (
(155,714,o),
(122,669,o),
(122,581,cs),
(122,0,l),
(146,0,l),
(146,581,ls),
(146,663,o),
(175,692,o),
(255,692,cs),
(345,692,l),
(345,710,l),
(317,713,o),
(271,714,o),
(247,714,cs)
);
},
{
closed = 1;
nodes = (
(128,480,l),
(35,475,l),
(35,457,l),
(441,457,l),
(441,480,l)
);
},
{
closed = 1;
nodes = (
(426,480,l),
(426,0,l),
(450,0,l),
(450,480,l)
);
},
{
closed = 1;
nodes = (
(433,679,ls),
(425,679,o),
(421,675,o),
(421,667,cs),
(421,605,ls),
(421,597,o),
(425,593,o),
(433,593,cs),
(443,593,ls),
(451,593,o),
(455,597,o),
(455,605,cs),
(455,667,ls),
(455,675,o),
(451,679,o),
(443,679,cs)
);
}
);
userData = {
com.schriftgestaltung.Glyphs.glyph.leftMetricsKey = f;
};
width = 548;
},
{
anchors = (
{
name = caret_1;
pos = (363.5,0);
}
);
layerId = "924B7471-43FB-4CAD-AF7E-45215B64D997";
shapes = (
{
closed = 1;
nodes = (
(138,724,o),
(91,655,o),
(91,561,cs),
(91,0,l),
(302,0,l),
(302,532,ls),
(302,571,o),
(313,584,o),
(349,584,cs),
(425,584,l),
(425,710,l),
(379,720,o),
(312,724,o),
(274,724,cs)
);
},
{
closed = 1;
nodes = (
(92,500,l),
(8,495,l),
(8,374,l),
(470,374,l),
(470,500,l)
);
},
{
closed = 1;
nodes = (
(469,500,l),
(469,0,l),
(680,0,l),
(680,500,l)
);
},
{
closed = 1;
nodes = (
(532,739,ls),
(490,739,o),
(470,719,o),
(470,677,cs),
(470,626,ls),
(470,584,o),
(490,564,o),
(532,564,cs),
(619,564,ls),
(661,564,o),
(681,584,o),
(681,626,cs),
(681,677,ls),
(681,719,o),
(661,739,o),
(619,739,cs)
);
}
);
userData = {
com.schriftgestaltung.Glyphs.glyph.leftMetricsKey = f;
};
width = 727;
}
);
unicode = 64257;
},
{
glyphname = fl;
kernLeft = f;
kernRight = l;
lastChange = "2024-09-05 13:05:51 +0000";
layers = (
{
anchors = (
{
name = caret_1;
pos = (334.124,0);
}
);
layerId = "DB82AE46-9E91-4728-8B1E-D34291E5A7BF";
shapes = (
{
closed = 1;
nodes = (
(153,718,o),
(115,662,o),
(115,564,cs),
(115,0,l),
(201,0,l),
(201,555,ls),
(201,624,o),
(223,649,o),
(287,648,cs),
(451,648,l),
(451,105,ls),
(451,33,o),
(497,-9,o),
(570,-9,cs),
(594,-9,o),
(640,-5,o),
(659,4,c),
(649,58,l),
(602,58,ls),
(559,58,o),
(536,80,o),
(536,124,cs),
(536,705,l),
(469,716,o),
(309,717,o),
(257,717,cs)
);
},
{
closed = 1;
nodes = (
(120,487,l),
(28,482,l),
(28,420,l),
(346,420,l),
(346,487,l)
);
}
);
width = 668.24706;
},
{
anchors = (
{
name = caret_1;
pos = (307.5,0);
}
);
layerId = "E21536AE-9819-4FE7-8A20-8865FE3C0515";
shapes = (
{
closed = 1;
nodes = (
(155,714,o),
(122,669,o),
(122,581,cs),
(122,0,l),
(146,0,l),
(146,581,ls),
(146,663,o),
(175,693,o),
(255,692,cs),
(440,692,l),
(440,95,ls),
(440,30,o),
(480,-6,o),
(541,-6,cs),
(559,-6,o),
(592,-4,o),
(605,0,c),
(602,16,l),
(544,16,ls),
(493,16,o),
(464,44,o),
(464,96,cs),
(464,708,l),
(430,711,o),
(275,714,o),
(247,714,cs)
);
},
{
closed = 1;
nodes = (
(128,480,l),
(35,475,l),
(35,457,l),
(315,457,l),
(315,480,l)
);
}
);
width = 615;
},
{
anchors = (
{
name = caret_1;
pos = (386.5,0);
}
);
layerId = "924B7471-43FB-4CAD-AF7E-45215B64D997";
shapes = (
{
closed = 1;
nodes = (
(136,724,o),
(90,655,o),
(90,561,cs),
(90,0,l),
(300,0,l),
(300,532,ls),
(300,574,o),
(311,587,o),
(346,587,cs),
(472,587,l),
(472,126,ls),
(472,38,o),
(532,-14,o),
(631,-14,cs),
(669,-14,o),
(744,-6,o),
(773,12,c),
(750,146,l),
(723,146,ls),
(695,146,o),
(682,156,o),
(682,182,cs),
(682,700,l),
(546,726,o),
(314,724,o),
(271,724,cs)
);
},
{
closed = 1;
nodes = (
(90,500,l),
(8,495,l),
(8,374,l),
(405,374,l),
(405,500,l)
);
}
);
width = 773;
}
);
unicode = 64258;
},
